<svg width="82" height="81" viewBox="0 0 82 81" fill="none" xmlns="http://www.w3.org/2000/svg">
<mask id="path-1-outside-1_5418_35300" maskUnits="userSpaceOnUse" x="11.6816" y="-0.307617" width="59" height="82" fill="black">
<rect fill="white" x="11.6816" y="-0.307617" width="59" height="82"/>
<path fill-rule="evenodd" clip-rule="evenodd" d="M38.3248 0.798634C30.823 1.74089 23.1558 6.39523 18.5815 12.7836C15.9015 16.5267 14.7737 19.624 14.0773 25.1545C13.7805 27.5112 13.8247 34.8455 14.1485 36.9963L14.3951 38.634L13.8591 39.3361C13.1475 40.2684 12.6816 41.8179 12.6816 43.2521C12.6816 45.6739 13.6299 47.7846 15.6044 49.7584C17.0237 51.1768 18.3064 51.9099 19.8661 52.1939C20.3806 52.2876 20.812 52.3823 20.8247 52.4043C20.8375 52.4265 21.0462 53.0496 21.2884 53.7892C21.8258 55.4304 23.18 58.2526 24.0973 59.6428C25.4436 61.6833 28.4643 64.5202 31.3044 66.4112L32.6037 67.2764L32.5084 68.0079C32.3594 69.1538 31.9005 70.8458 31.3559 72.2577C30.339 74.895 28.5143 77.0503 26.3248 78.2009C25.1175 78.8353 24.9024 79.1416 25.202 79.7993C25.5106 80.477 26.0011 80.4784 27.3643 79.8061C28.9576 79.02 31.1142 76.892 32.1093 75.1239C32.9462 73.6369 33.7902 71.3143 34.1394 69.5373L34.402 68.2009L34.972 68.446C37.3487 69.4676 39.6157 70.0813 41.0193 70.0831C42.1244 70.0845 44.4401 69.5055 46.2425 68.7771L47.6089 68.2248L47.8769 69.5736C48.8171 74.308 51.3542 78.1285 54.6786 79.8159C55.9488 80.4605 56.508 80.4762 56.8292 79.8761C57.1668 79.2454 56.8874 78.8379 55.6838 78.2054C52.8171 76.699 50.7902 73.7417 49.8692 69.7214C49.2713 67.1123 49.1984 67.4107 50.6705 66.442C53.4397 64.6197 56.5457 61.6996 57.9027 59.6428C58.7768 58.3181 60.1522 55.4849 60.7061 53.8683C60.9447 53.1723 61.2362 52.5233 61.3541 52.4263C61.472 52.3293 61.8971 52.2048 62.2987 52.1498C64.9912 51.7809 68.2481 48.4975 69.0766 45.3172C69.6136 43.2558 69.2177 40.747 68.1309 39.3232C67.6094 38.64 67.5916 38.5737 67.7317 37.8351C68.0524 36.1437 68.251 32.1123 68.1576 29.1887C67.9149 21.5955 66.6887 17.351 63.4185 12.7836C59.2065 6.90116 52.4791 2.53317 45.434 1.10634C43.5301 0.720798 40.1196 0.573194 38.3248 0.798634ZM38.4688 2.69217C29.9584 3.87853 21.9292 9.59394 18.1374 17.1652C17.1428 19.1515 16.4752 21.5272 16.0534 24.5826C15.6299 27.6509 15.6976 36.4263 16.1506 37.1591C16.2486 37.3178 16.448 37.3094 17.1276 37.1175C17.5972 36.9851 18.195 36.8553 18.4561 36.8296L18.9307 36.7824L19.0468 34.9631C19.1452 33.4209 19.5328 30.3127 19.8981 28.138C19.9854 27.6175 19.9511 27.5411 19.5418 27.3457C19.229 27.1966 19.0729 26.9912 19.0375 26.6818C18.9493 25.9134 19.3254 25.6871 20.8721 25.5781C24.6514 25.3117 27.2773 23.4872 30.9204 18.5962C32.7347 16.1603 33.0985 15.7476 34.245 14.8237C35.3194 13.9578 36.5194 13.3158 37.9994 12.8148C39.4105 12.3372 42.2484 12.21 43.7265 12.558C45.8929 13.0682 47.9575 14.3946 49.4257 16.2198L50.1864 17.1652L51.2761 17.2666C53.6042 17.4832 54.9768 18.5484 57.3997 22.0191C58.2495 23.2364 59.2081 24.441 59.53 24.696C60.2551 25.2701 61.5971 25.8879 62.4365 26.0338C63.1899 26.1648 63.624 26.5038 63.6207 26.9588C63.6159 27.5927 63.0269 28.0257 62.3465 27.8957L61.9434 27.8186L62.2915 29.5484C62.7116 31.6362 62.9902 34.0808 62.9902 35.6812V36.8615H63.5152C63.804 36.8615 64.4191 36.974 64.8823 37.1116C65.5511 37.3102 65.7498 37.3206 65.8475 37.1623C66.0795 36.787 66.2334 33.9357 66.2182 30.2961C66.1791 20.8844 64.4274 16.0464 59.1143 10.6772C55.1603 6.68142 50.4863 4.09385 45.2278 2.98959C43.5409 2.63537 39.9956 2.47938 38.4688 2.69217ZM40.1299 14.1907C38.4417 14.4145 36.2419 15.4354 34.9555 16.5919C34.5148 16.9882 33.4414 18.276 32.5701 19.4536C29.2703 23.9143 26.5475 26.1372 23.2711 27.045C22.6429 27.2192 22.0944 27.3961 22.0523 27.438C21.9011 27.5894 21.3834 30.7745 21.13 33.1132C20.8062 36.1007 20.8908 42.408 21.2949 45.4045C22.025 50.8187 23.5687 55.4448 25.7032 58.6144C26.9405 60.4518 29.765 63.1095 32.3178 64.838C34.7443 66.4809 38.4395 67.9521 40.6045 68.1368C42.6485 68.3112 46.6736 66.844 49.7012 64.8211C52.2074 63.1463 55.0567 60.4553 56.341 58.5499C57.1951 57.2827 58.549 54.429 59.0874 52.7609C60.5874 48.1132 61.1791 43.2928 61.0497 36.7743C60.9695 32.7349 60.807 31.2886 60.1132 28.4377C59.789 27.1054 59.7517 27.0393 59.1105 26.6636C58.2163 26.1396 57.1288 24.9146 55.792 22.926C53.8508 20.0382 52.8545 19.2776 50.7486 19.0758C49.3172 18.9387 48.9076 18.703 48.1 17.5517C46.3599 15.0711 43.281 13.7727 40.1299 14.1907ZM26.208 33.2214C25.1536 33.4105 22.7465 34.6353 22.6741 35.0194C22.567 35.5883 22.8894 35.6165 24.0859 35.1426C25.6918 34.5067 26.4948 34.4355 28.9766 34.7088C33.2699 35.1817 36.2208 35.3456 36.4855 35.126C36.794 34.8699 36.7992 34.2695 36.495 34.017C35.7741 33.4187 28.3214 32.8422 26.208 33.2214ZM48.9102 33.2942C47.1638 33.5185 45.751 33.8303 45.4692 34.0539C45.1955 34.2709 45.2215 34.8829 45.5145 35.126C45.783 35.3489 48.9741 35.1694 52.9443 34.708C55.3742 34.4257 56.3251 34.5084 57.9141 35.1406C59.1044 35.6141 59.4341 35.5881 59.3267 35.0298C59.2554 34.6592 57.3236 33.6248 56.1147 33.3102C54.9706 33.0123 51.171 33.0039 48.9102 33.2942ZM17.585 38.9077C15.5619 39.5231 14.4741 41.2698 14.6136 43.679C14.6734 44.7125 14.7862 45.1243 15.288 46.1395C16.2507 48.0873 18.1955 49.8302 19.8663 50.2423C20.2748 50.3431 20.3142 50.3219 20.2115 50.0556C20.0495 49.6361 19.3262 45.3189 19.3262 44.772C19.3262 44.1651 18.4616 43.6313 17.3265 43.5372C16.4534 43.4647 16.2747 43.352 16.0925 42.7573C16.0121 42.4948 16.092 42.2961 16.4026 41.9855C16.7835 41.6046 16.8965 41.576 17.6646 41.6663C18.1286 41.7207 18.6211 41.8087 18.759 41.8617C18.9777 41.9455 19.0098 41.7533 19.0098 40.3589V38.7599L18.4956 38.7736C18.2129 38.781 17.803 38.8414 17.585 38.9077ZM62.9902 40.3589C62.9902 41.6323 63.0336 41.9413 63.2027 41.8764C63.3196 41.8315 63.8135 41.7451 64.3003 41.6842C65.1181 41.582 65.2171 41.6052 65.6006 41.9887C65.9085 42.2966 65.9877 42.4953 65.9075 42.7573C65.7253 43.352 65.5466 43.4647 64.6735 43.5372C63.5384 43.6313 62.6738 44.1651 62.6738 44.772C62.6738 45.3018 61.9529 49.6301 61.7977 50.0319C61.4745 50.8688 63.6991 49.7563 65.064 48.3986C67.0769 46.3963 67.8971 43.7587 67.179 41.5968C66.6745 40.0778 64.9361 38.7599 63.4367 38.7599H62.9902V40.3589ZM25.1302 40.2784C24.0096 40.8614 24.1518 41.1868 25.5766 41.3001C26.3751 41.3635 26.8823 41.5051 27.4002 41.8088C28.6182 42.523 29.8965 42.7611 32.0563 42.6758C34.6842 42.572 35.8499 42.0984 35.3658 41.3307C35.2136 41.0895 34.8983 41.0515 32.9144 41.0354C30.4197 41.0151 29.4763 40.8683 27.971 40.2662C26.7309 39.7701 26.1017 39.7728 25.1302 40.2784ZM53.9333 40.2849C52.5529 40.864 51.5764 41.0153 49.0856 41.0354C47.1017 41.0515 46.7864 41.0895 46.6342 41.3307C46.156 42.089 47.339 42.5693 49.9437 42.6742C52.1335 42.7625 53.3588 42.5277 54.7205 41.7593C55.38 41.3871 55.7414 41.2912 56.4846 41.2912C57.3539 41.2912 57.6113 41.1624 57.6113 40.7272C57.6113 40.6922 57.2577 40.4845 56.8255 40.2656C55.8578 39.7751 55.1366 39.7799 53.9333 40.2849ZM37.8886 48.5076C37.6459 48.878 37.6418 48.9648 37.85 49.3358C37.9794 49.5663 38.5254 49.9794 39.0805 50.2668C40.6179 51.0626 42.0085 50.9678 43.4811 49.9669C44.2709 49.4301 44.4428 49.0134 44.0945 48.4817C43.8303 48.0784 43.0163 47.9335 42.8179 48.2543C42.6368 48.5475 41.4945 49.0432 41 49.0432C40.5055 49.0432 39.3632 48.5475 39.1821 48.2543C38.9766 47.922 38.1686 48.0802 37.8886 48.5076ZM34.2969 54.7571C34.083 55.0626 34.0758 55.17 34.2512 55.4431C34.6483 56.0607 35.5553 56.3578 37.4199 56.4808C38.3884 56.5447 39.4654 56.7095 39.8135 56.8473C40.1615 56.9849 40.6955 57.0976 41 57.0976C41.3045 57.0976 41.8385 56.9849 42.1865 56.8473C42.5346 56.7095 43.6024 56.5434 44.5596 56.4781C46.7945 56.3254 47.8027 55.9058 47.8027 55.1287C47.8027 54.5641 47.4207 54.3453 46.8486 54.5823C46.5064 54.7241 45.928 54.7495 44.8314 54.6712C42.6361 54.5144 42.6463 54.5137 41.7801 54.8862L40.993 55.2248L40.2451 54.8853C39.7542 54.6625 39.2525 54.5605 38.7852 54.5885C37.3229 54.6763 35.2142 54.6386 34.8881 54.5189C34.6303 54.4241 34.4909 54.4803 34.2969 54.7571ZM39.4472 58.4853C39.1243 58.6146 38.9323 59.2765 39.0941 59.7024C39.2729 60.1724 39.9934 60.4338 41.1106 60.4338C42.1237 60.4338 42.8575 60.0985 42.9888 59.5755C43.194 58.7576 42.4202 58.1876 41.517 58.4915C41.2761 58.5725 40.9011 58.5871 40.6836 58.5238C40.2109 58.3862 39.7322 58.3713 39.4472 58.4853Z"/>
</mask>
<path fill-rule="evenodd" clip-rule="evenodd" d="M38.3248 0.798634C30.823 1.74089 23.1558 6.39523 18.5815 12.7836C15.9015 16.5267 14.7737 19.624 14.0773 25.1545C13.7805 27.5112 13.8247 34.8455 14.1485 36.9963L14.3951 38.634L13.8591 39.3361C13.1475 40.2684 12.6816 41.8179 12.6816 43.2521C12.6816 45.6739 13.6299 47.7846 15.6044 49.7584C17.0237 51.1768 18.3064 51.9099 19.8661 52.1939C20.3806 52.2876 20.812 52.3823 20.8247 52.4043C20.8375 52.4265 21.0462 53.0496 21.2884 53.7892C21.8258 55.4304 23.18 58.2526 24.0973 59.6428C25.4436 61.6833 28.4643 64.5202 31.3044 66.4112L32.6037 67.2764L32.5084 68.0079C32.3594 69.1538 31.9005 70.8458 31.3559 72.2577C30.339 74.895 28.5143 77.0503 26.3248 78.2009C25.1175 78.8353 24.9024 79.1416 25.202 79.7993C25.5106 80.477 26.0011 80.4784 27.3643 79.8061C28.9576 79.02 31.1142 76.892 32.1093 75.1239C32.9462 73.6369 33.7902 71.3143 34.1394 69.5373L34.402 68.2009L34.972 68.446C37.3487 69.4676 39.6157 70.0813 41.0193 70.0831C42.1244 70.0845 44.4401 69.5055 46.2425 68.7771L47.6089 68.2248L47.8769 69.5736C48.8171 74.308 51.3542 78.1285 54.6786 79.8159C55.9488 80.4605 56.508 80.4762 56.8292 79.8761C57.1668 79.2454 56.8874 78.8379 55.6838 78.2054C52.8171 76.699 50.7902 73.7417 49.8692 69.7214C49.2713 67.1123 49.1984 67.4107 50.6705 66.442C53.4397 64.6197 56.5457 61.6996 57.9027 59.6428C58.7768 58.3181 60.1522 55.4849 60.7061 53.8683C60.9447 53.1723 61.2362 52.5233 61.3541 52.4263C61.472 52.3293 61.8971 52.2048 62.2987 52.1498C64.9912 51.7809 68.2481 48.4975 69.0766 45.3172C69.6136 43.2558 69.2177 40.747 68.1309 39.3232C67.6094 38.64 67.5916 38.5737 67.7317 37.8351C68.0524 36.1437 68.251 32.1123 68.1576 29.1887C67.9149 21.5955 66.6887 17.351 63.4185 12.7836C59.2065 6.90116 52.4791 2.53317 45.434 1.10634C43.5301 0.720798 40.1196 0.573194 38.3248 0.798634ZM38.4688 2.69217C29.9584 3.87853 21.9292 9.59394 18.1374 17.1652C17.1428 19.1515 16.4752 21.5272 16.0534 24.5826C15.6299 27.6509 15.6976 36.4263 16.1506 37.1591C16.2486 37.3178 16.448 37.3094 17.1276 37.1175C17.5972 36.9851 18.195 36.8553 18.4561 36.8296L18.9307 36.7824L19.0468 34.9631C19.1452 33.4209 19.5328 30.3127 19.8981 28.138C19.9854 27.6175 19.9511 27.5411 19.5418 27.3457C19.229 27.1966 19.0729 26.9912 19.0375 26.6818C18.9493 25.9134 19.3254 25.6871 20.8721 25.5781C24.6514 25.3117 27.2773 23.4872 30.9204 18.5962C32.7347 16.1603 33.0985 15.7476 34.245 14.8237C35.3194 13.9578 36.5194 13.3158 37.9994 12.8148C39.4105 12.3372 42.2484 12.21 43.7265 12.558C45.8929 13.0682 47.9575 14.3946 49.4257 16.2198L50.1864 17.1652L51.2761 17.2666C53.6042 17.4832 54.9768 18.5484 57.3997 22.0191C58.2495 23.2364 59.2081 24.441 59.53 24.696C60.2551 25.2701 61.5971 25.8879 62.4365 26.0338C63.1899 26.1648 63.624 26.5038 63.6207 26.9588C63.6159 27.5927 63.0269 28.0257 62.3465 27.8957L61.9434 27.8186L62.2915 29.5484C62.7116 31.6362 62.9902 34.0808 62.9902 35.6812V36.8615H63.5152C63.804 36.8615 64.4191 36.974 64.8823 37.1116C65.5511 37.3102 65.7498 37.3206 65.8475 37.1623C66.0795 36.787 66.2334 33.9357 66.2182 30.2961C66.1791 20.8844 64.4274 16.0464 59.1143 10.6772C55.1603 6.68142 50.4863 4.09385 45.2278 2.98959C43.5409 2.63537 39.9956 2.47938 38.4688 2.69217ZM40.1299 14.1907C38.4417 14.4145 36.2419 15.4354 34.9555 16.5919C34.5148 16.9882 33.4414 18.276 32.5701 19.4536C29.2703 23.9143 26.5475 26.1372 23.2711 27.045C22.6429 27.2192 22.0944 27.3961 22.0523 27.438C21.9011 27.5894 21.3834 30.7745 21.13 33.1132C20.8062 36.1007 20.8908 42.408 21.2949 45.4045C22.025 50.8187 23.5687 55.4448 25.7032 58.6144C26.9405 60.4518 29.765 63.1095 32.3178 64.838C34.7443 66.4809 38.4395 67.9521 40.6045 68.1368C42.6485 68.3112 46.6736 66.844 49.7012 64.8211C52.2074 63.1463 55.0567 60.4553 56.341 58.5499C57.1951 57.2827 58.549 54.429 59.0874 52.7609C60.5874 48.1132 61.1791 43.2928 61.0497 36.7743C60.9695 32.7349 60.807 31.2886 60.1132 28.4377C59.789 27.1054 59.7517 27.0393 59.1105 26.6636C58.2163 26.1396 57.1288 24.9146 55.792 22.926C53.8508 20.0382 52.8545 19.2776 50.7486 19.0758C49.3172 18.9387 48.9076 18.703 48.1 17.5517C46.3599 15.0711 43.281 13.7727 40.1299 14.1907ZM26.208 33.2214C25.1536 33.4105 22.7465 34.6353 22.6741 35.0194C22.567 35.5883 22.8894 35.6165 24.0859 35.1426C25.6918 34.5067 26.4948 34.4355 28.9766 34.7088C33.2699 35.1817 36.2208 35.3456 36.4855 35.126C36.794 34.8699 36.7992 34.2695 36.495 34.017C35.7741 33.4187 28.3214 32.8422 26.208 33.2214ZM48.9102 33.2942C47.1638 33.5185 45.751 33.8303 45.4692 34.0539C45.1955 34.2709 45.2215 34.8829 45.5145 35.126C45.783 35.3489 48.9741 35.1694 52.9443 34.708C55.3742 34.4257 56.3251 34.5084 57.9141 35.1406C59.1044 35.6141 59.4341 35.5881 59.3267 35.0298C59.2554 34.6592 57.3236 33.6248 56.1147 33.3102C54.9706 33.0123 51.171 33.0039 48.9102 33.2942ZM17.585 38.9077C15.5619 39.5231 14.4741 41.2698 14.6136 43.679C14.6734 44.7125 14.7862 45.1243 15.288 46.1395C16.2507 48.0873 18.1955 49.8302 19.8663 50.2423C20.2748 50.3431 20.3142 50.3219 20.2115 50.0556C20.0495 49.6361 19.3262 45.3189 19.3262 44.772C19.3262 44.1651 18.4616 43.6313 17.3265 43.5372C16.4534 43.4647 16.2747 43.352 16.0925 42.7573C16.0121 42.4948 16.092 42.2961 16.4026 41.9855C16.7835 41.6046 16.8965 41.576 17.6646 41.6663C18.1286 41.7207 18.6211 41.8087 18.759 41.8617C18.9777 41.9455 19.0098 41.7533 19.0098 40.3589V38.7599L18.4956 38.7736C18.2129 38.781 17.803 38.8414 17.585 38.9077ZM62.9902 40.3589C62.9902 41.6323 63.0336 41.9413 63.2027 41.8764C63.3196 41.8315 63.8135 41.7451 64.3003 41.6842C65.1181 41.582 65.2171 41.6052 65.6006 41.9887C65.9085 42.2966 65.9877 42.4953 65.9075 42.7573C65.7253 43.352 65.5466 43.4647 64.6735 43.5372C63.5384 43.6313 62.6738 44.1651 62.6738 44.772C62.6738 45.3018 61.9529 49.6301 61.7977 50.0319C61.4745 50.8688 63.6991 49.7563 65.064 48.3986C67.0769 46.3963 67.8971 43.7587 67.179 41.5968C66.6745 40.0778 64.9361 38.7599 63.4367 38.7599H62.9902V40.3589ZM25.1302 40.2784C24.0096 40.8614 24.1518 41.1868 25.5766 41.3001C26.3751 41.3635 26.8823 41.5051 27.4002 41.8088C28.6182 42.523 29.8965 42.7611 32.0563 42.6758C34.6842 42.572 35.8499 42.0984 35.3658 41.3307C35.2136 41.0895 34.8983 41.0515 32.9144 41.0354C30.4197 41.0151 29.4763 40.8683 27.971 40.2662C26.7309 39.7701 26.1017 39.7728 25.1302 40.2784ZM53.9333 40.2849C52.5529 40.864 51.5764 41.0153 49.0856 41.0354C47.1017 41.0515 46.7864 41.0895 46.6342 41.3307C46.156 42.089 47.339 42.5693 49.9437 42.6742C52.1335 42.7625 53.3588 42.5277 54.7205 41.7593C55.38 41.3871 55.7414 41.2912 56.4846 41.2912C57.3539 41.2912 57.6113 41.1624 57.6113 40.7272C57.6113 40.6922 57.2577 40.4845 56.8255 40.2656C55.8578 39.7751 55.1366 39.7799 53.9333 40.2849ZM37.8886 48.5076C37.6459 48.878 37.6418 48.9648 37.85 49.3358C37.9794 49.5663 38.5254 49.9794 39.0805 50.2668C40.6179 51.0626 42.0085 50.9678 43.4811 49.9669C44.2709 49.4301 44.4428 49.0134 44.0945 48.4817C43.8303 48.0784 43.0163 47.9335 42.8179 48.2543C42.6368 48.5475 41.4945 49.0432 41 49.0432C40.5055 49.0432 39.3632 48.5475 39.1821 48.2543C38.9766 47.922 38.1686 48.0802 37.8886 48.5076ZM34.2969 54.7571C34.083 55.0626 34.0758 55.17 34.2512 55.4431C34.6483 56.0607 35.5553 56.3578 37.4199 56.4808C38.3884 56.5447 39.4654 56.7095 39.8135 56.8473C40.1615 56.9849 40.6955 57.0976 41 57.0976C41.3045 57.0976 41.8385 56.9849 42.1865 56.8473C42.5346 56.7095 43.6024 56.5434 44.5596 56.4781C46.7945 56.3254 47.8027 55.9058 47.8027 55.1287C47.8027 54.5641 47.4207 54.3453 46.8486 54.5823C46.5064 54.7241 45.928 54.7495 44.8314 54.6712C42.6361 54.5144 42.6463 54.5137 41.7801 54.8862L40.993 55.2248L40.2451 54.8853C39.7542 54.6625 39.2525 54.5605 38.7852 54.5885C37.3229 54.6763 35.2142 54.6386 34.8881 54.5189C34.6303 54.4241 34.4909 54.4803 34.2969 54.7571ZM39.4472 58.4853C39.1243 58.6146 38.9323 59.2765 39.0941 59.7024C39.2729 60.1724 39.9934 60.4338 41.1106 60.4338C42.1237 60.4338 42.8575 60.0985 42.9888 59.5755C43.194 58.7576 42.4202 58.1876 41.517 58.4915C41.2761 58.5725 40.9011 58.5871 40.6836 58.5238C40.2109 58.3862 39.7322 58.3713 39.4472 58.4853Z" fill="#10569F"/>
<path fill-rule="evenodd" clip-rule="evenodd" d="M38.3248 0.798634C30.823 1.74089 23.1558 6.39523 18.5815 12.7836C15.9015 16.5267 14.7737 19.624 14.0773 25.1545C13.7805 27.5112 13.8247 34.8455 14.1485 36.9963L14.3951 38.634L13.8591 39.3361C13.1475 40.2684 12.6816 41.8179 12.6816 43.2521C12.6816 45.6739 13.6299 47.7846 15.6044 49.7584C17.0237 51.1768 18.3064 51.9099 19.8661 52.1939C20.3806 52.2876 20.812 52.3823 20.8247 52.4043C20.8375 52.4265 21.0462 53.0496 21.2884 53.7892C21.8258 55.4304 23.18 58.2526 24.0973 59.6428C25.4436 61.6833 28.4643 64.5202 31.3044 66.4112L32.6037 67.2764L32.5084 68.0079C32.3594 69.1538 31.9005 70.8458 31.3559 72.2577C30.339 74.895 28.5143 77.0503 26.3248 78.2009C25.1175 78.8353 24.9024 79.1416 25.202 79.7993C25.5106 80.477 26.0011 80.4784 27.3643 79.8061C28.9576 79.02 31.1142 76.892 32.1093 75.1239C32.9462 73.6369 33.7902 71.3143 34.1394 69.5373L34.402 68.2009L34.972 68.446C37.3487 69.4676 39.6157 70.0813 41.0193 70.0831C42.1244 70.0845 44.4401 69.5055 46.2425 68.7771L47.6089 68.2248L47.8769 69.5736C48.8171 74.308 51.3542 78.1285 54.6786 79.8159C55.9488 80.4605 56.508 80.4762 56.8292 79.8761C57.1668 79.2454 56.8874 78.8379 55.6838 78.2054C52.8171 76.699 50.7902 73.7417 49.8692 69.7214C49.2713 67.1123 49.1984 67.4107 50.6705 66.442C53.4397 64.6197 56.5457 61.6996 57.9027 59.6428C58.7768 58.3181 60.1522 55.4849 60.7061 53.8683C60.9447 53.1723 61.2362 52.5233 61.3541 52.4263C61.472 52.3293 61.8971 52.2048 62.2987 52.1498C64.9912 51.7809 68.2481 48.4975 69.0766 45.3172C69.6136 43.2558 69.2177 40.747 68.1309 39.3232C67.6094 38.64 67.5916 38.5737 67.7317 37.8351C68.0524 36.1437 68.251 32.1123 68.1576 29.1887C67.9149 21.5955 66.6887 17.351 63.4185 12.7836C59.2065 6.90116 52.4791 2.53317 45.434 1.10634C43.5301 0.720798 40.1196 0.573194 38.3248 0.798634ZM38.4688 2.69217C29.9584 3.87853 21.9292 9.59394 18.1374 17.1652C17.1428 19.1515 16.4752 21.5272 16.0534 24.5826C15.6299 27.6509 15.6976 36.4263 16.1506 37.1591C16.2486 37.3178 16.448 37.3094 17.1276 37.1175C17.5972 36.9851 18.195 36.8553 18.4561 36.8296L18.9307 36.7824L19.0468 34.9631C19.1452 33.4209 19.5328 30.3127 19.8981 28.138C19.9854 27.6175 19.9511 27.5411 19.5418 27.3457C19.229 27.1966 19.0729 26.9912 19.0375 26.6818C18.9493 25.9134 19.3254 25.6871 20.8721 25.5781C24.6514 25.3117 27.2773 23.4872 30.9204 18.5962C32.7347 16.1603 33.0985 15.7476 34.245 14.8237C35.3194 13.9578 36.5194 13.3158 37.9994 12.8148C39.4105 12.3372 42.2484 12.21 43.7265 12.558C45.8929 13.0682 47.9575 14.3946 49.4257 16.2198L50.1864 17.1652L51.2761 17.2666C53.6042 17.4832 54.9768 18.5484 57.3997 22.0191C58.2495 23.2364 59.2081 24.441 59.53 24.696C60.2551 25.2701 61.5971 25.8879 62.4365 26.0338C63.1899 26.1648 63.624 26.5038 63.6207 26.9588C63.6159 27.5927 63.0269 28.0257 62.3465 27.8957L61.9434 27.8186L62.2915 29.5484C62.7116 31.6362 62.9902 34.0808 62.9902 35.6812V36.8615H63.5152C63.804 36.8615 64.4191 36.974 64.8823 37.1116C65.5511 37.3102 65.7498 37.3206 65.8475 37.1623C66.0795 36.787 66.2334 33.9357 66.2182 30.2961C66.1791 20.8844 64.4274 16.0464 59.1143 10.6772C55.1603 6.68142 50.4863 4.09385 45.2278 2.98959C43.5409 2.63537 39.9956 2.47938 38.4688 2.69217ZM40.1299 14.1907C38.4417 14.4145 36.2419 15.4354 34.9555 16.5919C34.5148 16.9882 33.4414 18.276 32.5701 19.4536C29.2703 23.9143 26.5475 26.1372 23.2711 27.045C22.6429 27.2192 22.0944 27.3961 22.0523 27.438C21.9011 27.5894 21.3834 30.7745 21.13 33.1132C20.8062 36.1007 20.8908 42.408 21.2949 45.4045C22.025 50.8187 23.5687 55.4448 25.7032 58.6144C26.9405 60.4518 29.765 63.1095 32.3178 64.838C34.7443 66.4809 38.4395 67.9521 40.6045 68.1368C42.6485 68.3112 46.6736 66.844 49.7012 64.8211C52.2074 63.1463 55.0567 60.4553 56.341 58.5499C57.1951 57.2827 58.549 54.429 59.0874 52.7609C60.5874 48.1132 61.1791 43.2928 61.0497 36.7743C60.9695 32.7349 60.807 31.2886 60.1132 28.4377C59.789 27.1054 59.7517 27.0393 59.1105 26.6636C58.2163 26.1396 57.1288 24.9146 55.792 22.926C53.8508 20.0382 52.8545 19.2776 50.7486 19.0758C49.3172 18.9387 48.9076 18.703 48.1 17.5517C46.3599 15.0711 43.281 13.7727 40.1299 14.1907ZM26.208 33.2214C25.1536 33.4105 22.7465 34.6353 22.6741 35.0194C22.567 35.5883 22.8894 35.6165 24.0859 35.1426C25.6918 34.5067 26.4948 34.4355 28.9766 34.7088C33.2699 35.1817 36.2208 35.3456 36.4855 35.126C36.794 34.8699 36.7992 34.2695 36.495 34.017C35.7741 33.4187 28.3214 32.8422 26.208 33.2214ZM48.9102 33.2942C47.1638 33.5185 45.751 33.8303 45.4692 34.0539C45.1955 34.2709 45.2215 34.8829 45.5145 35.126C45.783 35.3489 48.9741 35.1694 52.9443 34.708C55.3742 34.4257 56.3251 34.5084 57.9141 35.1406C59.1044 35.6141 59.4341 35.5881 59.3267 35.0298C59.2554 34.6592 57.3236 33.6248 56.1147 33.3102C54.9706 33.0123 51.171 33.0039 48.9102 33.2942ZM17.585 38.9077C15.5619 39.5231 14.4741 41.2698 14.6136 43.679C14.6734 44.7125 14.7862 45.1243 15.288 46.1395C16.2507 48.0873 18.1955 49.8302 19.8663 50.2423C20.2748 50.3431 20.3142 50.3219 20.2115 50.0556C20.0495 49.6361 19.3262 45.3189 19.3262 44.772C19.3262 44.1651 18.4616 43.6313 17.3265 43.5372C16.4534 43.4647 16.2747 43.352 16.0925 42.7573C16.0121 42.4948 16.092 42.2961 16.4026 41.9855C16.7835 41.6046 16.8965 41.576 17.6646 41.6663C18.1286 41.7207 18.6211 41.8087 18.759 41.8617C18.9777 41.9455 19.0098 41.7533 19.0098 40.3589V38.7599L18.4956 38.7736C18.2129 38.781 17.803 38.8414 17.585 38.9077ZM62.9902 40.3589C62.9902 41.6323 63.0336 41.9413 63.2027 41.8764C63.3196 41.8315 63.8135 41.7451 64.3003 41.6842C65.1181 41.582 65.2171 41.6052 65.6006 41.9887C65.9085 42.2966 65.9877 42.4953 65.9075 42.7573C65.7253 43.352 65.5466 43.4647 64.6735 43.5372C63.5384 43.6313 62.6738 44.1651 62.6738 44.772C62.6738 45.3018 61.9529 49.6301 61.7977 50.0319C61.4745 50.8688 63.6991 49.7563 65.064 48.3986C67.0769 46.3963 67.8971 43.7587 67.179 41.5968C66.6745 40.0778 64.9361 38.7599 63.4367 38.7599H62.9902V40.3589ZM25.1302 40.2784C24.0096 40.8614 24.1518 41.1868 25.5766 41.3001C26.3751 41.3635 26.8823 41.5051 27.4002 41.8088C28.6182 42.523 29.8965 42.7611 32.0563 42.6758C34.6842 42.572 35.8499 42.0984 35.3658 41.3307C35.2136 41.0895 34.8983 41.0515 32.9144 41.0354C30.4197 41.0151 29.4763 40.8683 27.971 40.2662C26.7309 39.7701 26.1017 39.7728 25.1302 40.2784ZM53.9333 40.2849C52.5529 40.864 51.5764 41.0153 49.0856 41.0354C47.1017 41.0515 46.7864 41.0895 46.6342 41.3307C46.156 42.089 47.339 42.5693 49.9437 42.6742C52.1335 42.7625 53.3588 42.5277 54.7205 41.7593C55.38 41.3871 55.7414 41.2912 56.4846 41.2912C57.3539 41.2912 57.6113 41.1624 57.6113 40.7272C57.6113 40.6922 57.2577 40.4845 56.8255 40.2656C55.8578 39.7751 55.1366 39.7799 53.9333 40.2849ZM37.8886 48.5076C37.6459 48.878 37.6418 48.9648 37.85 49.3358C37.9794 49.5663 38.5254 49.9794 39.0805 50.2668C40.6179 51.0626 42.0085 50.9678 43.4811 49.9669C44.2709 49.4301 44.4428 49.0134 44.0945 48.4817C43.8303 48.0784 43.0163 47.9335 42.8179 48.2543C42.6368 48.5475 41.4945 49.0432 41 49.0432C40.5055 49.0432 39.3632 48.5475 39.1821 48.2543C38.9766 47.922 38.1686 48.0802 37.8886 48.5076ZM34.2969 54.7571C34.083 55.0626 34.0758 55.17 34.2512 55.4431C34.6483 56.0607 35.5553 56.3578 37.4199 56.4808C38.3884 56.5447 39.4654 56.7095 39.8135 56.8473C40.1615 56.9849 40.6955 57.0976 41 57.0976C41.3045 57.0976 41.8385 56.9849 42.1865 56.8473C42.5346 56.7095 43.6024 56.5434 44.5596 56.4781C46.7945 56.3254 47.8027 55.9058 47.8027 55.1287C47.8027 54.5641 47.4207 54.3453 46.8486 54.5823C46.5064 54.7241 45.928 54.7495 44.8314 54.6712C42.6361 54.5144 42.6463 54.5137 41.7801 54.8862L40.993 55.2248L40.2451 54.8853C39.7542 54.6625 39.2525 54.5605 38.7852 54.5885C37.3229 54.6763 35.2142 54.6386 34.8881 54.5189C34.6303 54.4241 34.4909 54.4803 34.2969 54.7571ZM39.4472 58.4853C39.1243 58.6146 38.9323 59.2765 39.0941 59.7024C39.2729 60.1724 39.9934 60.4338 41.1106 60.4338C42.1237 60.4338 42.8575 60.0985 42.9888 59.5755C43.194 58.7576 42.4202 58.1876 41.517 58.4915C41.2761 58.5725 40.9011 58.5871 40.6836 58.5238C40.2109 58.3862 39.7322 58.3713 39.4472 58.4853Z" stroke="#10569F" mask="url(#path-1-outside-1_5418_35300)"/>
<path d="M33.6663 62.7204C32.9295 62.158 32.7672 61.7688 33.1214 61.4146C33.4166 61.1194 33.6938 61.1844 34.4483 61.7263C35.1615 62.2385 35.3374 62.7108 34.9566 63.0916C34.6634 63.3847 34.4594 63.326 33.6663 62.7204Z" fill="#10569F"/>
<path d="M46.8857 62.6266C46.8497 62.3293 46.9946 62.1253 47.5186 61.7358C48.252 61.1904 48.6978 61.143 48.9723 61.5807C49.199 61.9424 49.0112 62.2333 48.1468 62.8595C47.3907 63.4072 46.9712 63.3297 46.8857 62.6266Z" fill="#10569F"/>
<path d="M37.6617 64.8427C36.8335 64.567 36.6361 64.3217 36.8552 63.841C37.0699 63.3697 37.1287 63.3632 38.2388 63.6859C39.1354 63.9465 39.4546 64.3589 39.0952 64.7919C38.8663 65.0677 38.3888 65.0846 37.6617 64.8427Z" fill="#10569F"/>
<path d="M42.9183 64.8084C42.5742 64.3937 42.8487 63.9864 43.6519 63.7192C44.6188 63.3975 44.874 63.3887 45.1069 63.6693C45.5643 64.2205 44.9292 64.8122 43.7038 64.9765C43.2966 65.0311 43.0615 64.9808 42.9183 64.8084Z" fill="#10569F"/>
<path d="M34.5391 45.1046C34.4989 44.8199 34.6564 44.5754 35.1719 44.1225C35.9403 43.4478 36.1218 43.3967 36.48 43.7547C36.8595 44.1344 36.7858 44.3669 36.0848 45.0001C35.3186 45.6922 34.6288 45.7389 34.5391 45.1046Z" fill="#10569F"/>
<path d="M45.9152 45.0001C45.2142 44.3669 45.1405 44.1344 45.52 43.7547C45.8736 43.4013 45.9953 43.4343 46.7905 44.0989C47.3354 44.5544 47.489 44.7836 47.4536 45.0877C47.3772 45.7409 46.692 45.7018 45.9152 45.0001Z" fill="#10569F"/>
<path d="M30.7185 47.3842C30.4221 47.027 30.6404 46.6894 31.3868 46.3506C32.1965 45.9831 32.6684 45.9575 32.9253 46.2671C33.2393 46.6455 32.9658 47.0888 32.2496 47.3624C31.413 47.6818 30.9707 47.6881 30.7185 47.3842Z" fill="#10569F"/>
<path d="M49.7504 47.3624C49.0342 47.0888 48.7606 46.6455 49.0747 46.2671C49.3316 45.9575 49.8035 45.9831 50.6132 46.3506C51.3596 46.6894 51.5779 47.027 51.2815 47.3842C51.0293 47.6881 50.5869 47.6818 49.7504 47.3624Z" fill="#10569F"/>
<path d="M23.5415 48.0039C22.6176 47.7289 22.2335 47.1485 22.6801 46.7019C22.7845 46.5974 22.9802 46.5123 23.1151 46.5126C23.4958 46.5136 24.3887 47.1137 24.3887 47.3685C24.3887 47.7566 23.912 48.1141 23.5415 48.0039Z" fill="#10569F"/>
<path d="M57.6113 47.3685C57.6113 47.2429 57.8426 46.9991 58.1255 46.8267C58.7159 46.4668 59.0499 46.4318 59.3199 46.7019C59.7665 47.1485 59.3824 47.7289 58.4585 48.0039C58.088 48.1141 57.6113 47.7566 57.6113 47.3685Z" fill="#10569F"/>
<path d="M26.4769 48.2206C26.2317 47.9754 26.2346 47.577 26.4834 47.3282C26.7964 47.0152 28.5059 47.1546 28.7228 47.5107C28.8649 47.7439 28.8277 47.8547 28.5239 48.104C28.0962 48.4551 26.7861 48.5297 26.4769 48.2206Z" fill="#10569F"/>
<path d="M54.6942 48.3801C53.568 48.4535 52.8369 47.8692 53.378 47.3282C53.6842 47.0219 55.3988 47.1542 55.6165 47.5008C55.9144 47.9751 55.5479 48.3245 54.6942 48.3801Z" fill="#10569F"/>
<path d="M40.7232 34.0758C40.3846 33.8633 40.2455 32.2155 40.5365 31.8649C40.6387 31.7416 40.8473 31.6409 41 31.6409C41.4754 31.6409 41.6521 32.0388 41.6015 32.9954C41.548 34.0098 41.2338 34.3963 40.7232 34.0758Z" fill="#10569F"/>
<path d="M40.7232 38.5055C40.3846 38.293 40.2455 36.6452 40.5365 36.2946C40.6387 36.1713 40.8473 36.0706 41 36.0706C41.4754 36.0706 41.6521 36.4684 41.6015 37.4251C41.548 38.4395 41.2338 38.826 40.7232 38.5055Z" fill="#10569F"/>
<path d="M40.7232 42.9351C40.3846 42.7227 40.2455 41.0748 40.5365 40.7243C40.6387 40.601 40.8473 40.5002 41 40.5002C41.4754 40.5002 41.6521 40.8981 41.6015 41.8548C41.548 42.8692 41.2338 43.2557 40.7232 42.9351Z" fill="#10569F"/>
<path d="M40.6157 47.2126C40.3156 46.9124 40.2734 45.4034 40.557 45.1198C40.6615 45.0154 40.8608 44.9299 41 44.9299C41.445 44.9299 41.6328 45.2879 41.6328 46.1369C41.6328 47.2647 41.1639 47.7607 40.6157 47.2126Z" fill="#10569F"/>
<path d="M40.0281 25.8006C39.8478 25.777 39.7244 25.2769 39.8226 24.9673C39.9066 24.7025 40.0538 24.6721 41.0523 24.7128C42.1517 24.7576 42.1881 24.772 42.2355 25.1834C42.3142 25.8647 41.743 26.0243 40.0281 25.8006Z" fill="#10569F"/>
<path d="M35.4557 25.9324C35.2118 25.4764 35.635 25.0322 36.3893 24.9523C36.7063 24.9188 37.0816 24.8794 37.2233 24.8647C37.5988 24.8259 37.8857 25.251 37.7767 25.6851C37.7048 25.9718 37.5402 26.085 37.0867 26.16C36.0265 26.3352 35.6427 26.2817 35.4557 25.9324Z" fill="#10569F"/>
<path d="M44.3955 25.9406C44.1118 25.7052 44.0966 25.2861 44.3618 25.0173C44.5466 24.83 45.4724 24.8659 46.2457 25.0904C46.5758 25.1863 46.7323 25.5796 46.6026 25.9882C46.5135 26.269 46.4024 26.2937 45.5648 26.2178C45.0489 26.171 44.5227 26.0463 44.3955 25.9406Z" fill="#10569F"/>
<path d="M31.2531 27.1825C30.8582 26.7876 31.1142 26.3165 31.871 26.0444C32.6956 25.7481 33.2423 25.7819 33.4685 26.1433C33.7498 26.5924 33.3902 26.9499 32.4015 27.2043C31.5957 27.4117 31.4801 27.4095 31.2531 27.1825Z" fill="#10569F"/>
<path d="M49.0031 27.0305C48.5265 26.8133 48.436 26.6096 48.6094 26.1433C48.7658 25.7223 49.0718 25.6998 50.0618 26.0373C50.8516 26.3064 51.134 26.7399 50.7897 27.1548C50.5686 27.4212 49.7331 27.3632 49.0031 27.0305Z" fill="#10569F"/>
</svg>
