<svg width="152" height="151" viewBox="0 0 152 151" fill="none" xmlns="http://www.w3.org/2000/svg">
<g id="Group 4593">
<g id="Group">
<g id="Group_2">
<path id="Vector" d="M75.9997 138.023C110.973 138.023 139.325 109.937 139.325 75.2899C139.325 40.6431 110.973 12.5564 75.9997 12.5564C41.0261 12.5564 12.6743 40.6431 12.6743 75.2899C12.6743 109.937 41.0261 138.023 75.9997 138.023Z" fill="#B8DEFF"/>
<g id="Group_3">
<path id="Vector_2" d="M76 150.579C34.0938 150.579 0 116.804 0 75.2896C0 33.7751 34.0938 0 76 0C117.908 0 152 33.7751 152 75.2896C152.002 116.804 117.908 150.579 76 150.579ZM76 4.47314C36.5823 4.47314 4.51536 36.2404 4.51536 75.2896C4.51536 114.339 36.5823 146.106 76 146.106C115.418 146.106 147.485 114.337 147.485 75.2896C147.485 36.2425 115.418 4.47314 76 4.47314Z" fill="#B8DEFF"/>
</g>
</g>
</g>
<g id="Group_4">
<path id="Vector_3" fill-rule="evenodd" clip-rule="evenodd" d="M75.5024 104.966C67.0413 104.966 58.5802 104.966 50.1191 104.966C47.5204 104.966 46.0114 103.448 46.0114 100.836C46.0114 90.5721 46.0152 80.3106 46 70.0471C46 69.3994 46.1905 68.9459 46.7068 68.5439C47.9262 67.5913 49.096 66.5796 50.3058 65.6156C50.6125 65.3698 50.723 65.1126 50.7211 64.7239C50.7078 60.984 50.7116 57.2421 50.7135 53.5003C50.7135 52.4714 51.0107 52.1723 52.0377 52.1704C56.6997 52.1685 61.3599 52.1647 66.022 52.178C66.4793 52.1799 66.8355 52.0637 67.1899 51.7665C69.1447 50.1375 71.1185 48.5276 73.0885 46.9177C74.5669 45.7098 76.4017 45.6888 77.8801 46.8872C79.8425 48.4781 81.7954 50.0785 83.7368 51.6941C84.1331 52.0237 84.5256 52.1818 85.0552 52.1799C89.6773 52.159 94.2994 52.1685 98.9214 52.1685C100.042 52.1685 100.295 52.4276 100.295 53.5536C100.295 57.2364 100.305 60.9173 100.284 64.6001C100.282 65.0821 100.436 65.3832 100.81 65.6766C102.01 66.6215 103.17 67.6142 104.365 68.5668C104.816 68.9269 105.003 69.3441 105.003 69.9271C104.99 80.2687 104.995 90.6102 104.993 100.95C104.993 103.425 103.443 104.96 100.947 104.962C92.4627 104.968 83.9826 104.966 75.5024 104.966ZM52.653 54.0985C52.6416 54.31 52.6264 54.4624 52.6264 54.6167C52.6245 60.5706 52.6188 66.5263 52.6435 72.4801C52.6454 72.7564 52.8436 73.1127 53.0646 73.2936C60.0929 79.0817 67.1328 84.8546 74.1745 90.6255C75.1157 91.3971 75.9101 91.3895 76.8647 90.6083C83.8911 84.8488 90.9138 79.0836 97.9441 73.3298C98.266 73.0669 98.3785 72.7926 98.3785 72.383C98.367 66.5072 98.3708 60.6315 98.3708 54.7539C98.3708 54.5443 98.3708 54.3328 98.3708 54.0985C83.1024 54.0985 67.9082 54.0985 52.653 54.0985ZM49.4675 102.996C66.8336 102.996 84.1883 102.996 101.52 102.996C95.9969 97.4748 90.4927 91.9706 84.9619 86.4416C84.9333 86.4626 84.8552 86.5159 84.7809 86.5769C82.586 88.3773 80.3893 90.1758 78.2002 91.9839C76.375 93.4909 74.6336 93.4948 72.8027 91.982C71.1718 90.635 69.5371 89.2937 67.9025 87.9525C67.2585 87.4228 66.6088 86.9008 66.0315 86.4302C60.4797 91.9839 54.985 97.4786 49.4675 102.996ZM47.9833 71.6094C47.9833 81.6652 47.9833 91.5952 47.9833 101.466C53.4456 96.0058 58.906 90.5455 64.3892 85.0622C58.9746 80.6231 53.5123 76.1458 47.9833 71.6094ZM103.02 101.514C103.02 91.5686 103.02 81.6404 103.02 71.6094C97.4697 76.161 91.9998 80.6478 86.5908 85.0851C92.0912 90.5836 97.544 96.0363 103.02 101.514ZM81.2886 52.1418C79.7187 50.8501 78.2898 49.6669 76.8513 48.4952C75.8797 47.7027 75.0985 47.7084 74.1173 48.5086C72.7684 49.6098 71.4252 50.7167 70.082 51.8256C69.9906 51.9018 69.9201 52.0066 69.8001 52.1437C73.6296 52.1418 77.3733 52.1418 81.2886 52.1418ZM48.473 69.5499C49.2084 70.15 49.9133 70.7254 50.6564 71.3313C50.6564 70.0948 50.6564 68.9669 50.6564 67.7609C49.8943 68.3839 49.2046 68.9497 48.473 69.5499ZM102.526 69.5499C101.787 68.944 101.088 68.3705 100.322 67.7418C100.322 68.9859 100.322 70.1195 100.322 71.356C101.095 70.7216 101.795 70.1481 102.526 69.5499Z" fill="#0E56A0"/>
<path id="Vector_4" fill-rule="evenodd" clip-rule="evenodd" d="M81.5721 77.1097C81.9264 77.6717 82.2675 78.2109 82.6352 78.792C81.5302 79.3769 80.4118 79.6989 79.2515 79.8684C76.5385 80.2647 73.8635 80.1466 71.2762 79.1559C67.201 77.5955 65.0157 73.9756 65.3224 69.4468C65.4863 67.0405 66.2255 64.8495 67.803 62.99C69.6911 60.7647 72.1679 59.6807 75.0162 59.3911C77.0491 59.1834 79.0496 59.3625 80.9319 60.2294C83.7574 61.5306 85.3254 63.775 85.5692 66.8519C85.8169 69.9917 84.6947 72.5752 82.0408 74.3795C80.8576 75.1835 79.522 75.5188 78.0836 75.3931C77.3406 75.3283 76.7709 75.0234 76.5632 74.3928C75.7745 74.7186 75.0238 75.1854 74.2122 75.3359C71.9297 75.7608 69.8683 74.2652 69.5272 71.9675C69.1233 69.2487 69.9064 66.8843 71.9354 65.0039C73.1796 63.8512 74.6923 63.4225 76.3384 63.8722C76.9786 64.0474 77.5311 64.5352 78.1465 64.8934C78.2093 64.6666 78.2989 64.337 78.3846 64.017C79.6688 63.9007 80.7947 65.0324 80.6671 66.3985C80.5794 67.3282 80.3356 68.2427 80.1489 69.1611C79.9507 70.1365 79.7126 71.1063 79.543 72.0875C79.4878 72.4076 79.5963 72.7562 79.6287 73.0896C79.9945 73.023 80.4289 73.0611 80.7128 72.8705C82.8943 71.413 83.8755 69.3306 83.5935 66.7376C83.3401 64.4209 82.0617 62.75 79.8726 61.9536C76.6699 60.7895 73.5454 61.0296 70.7009 63.0053C68.7499 64.3599 67.8849 66.4061 67.502 68.6752C67.241 70.2242 67.2981 71.7636 67.8868 73.2401C68.9519 75.9094 71.0667 77.283 73.7721 77.8203C76.4051 78.3462 78.9924 78.1423 81.5721 77.1097ZM77.5006 68.3952C77.5006 68.1418 77.5235 67.8846 77.4968 67.635C77.3596 66.288 76.4261 65.484 75.1477 65.7412C74.6313 65.8441 74.0693 66.166 73.7206 66.5585C72.3851 68.0579 72.0231 69.8831 72.3736 71.8074C72.6556 73.3564 74.1931 73.907 75.4963 73.002C75.8259 72.7734 76.1174 72.4609 76.3537 72.1332C77.1538 71.0244 77.4587 69.7441 77.5006 68.3952Z" fill="#0E56A0"/>
</g>
</g>
</svg>
