<svg width="152" height="151" viewBox="0 0 152 151" fill="none" xmlns="http://www.w3.org/2000/svg">
<g id="Group 4594">
<g id="Group">
<g id="Group_2">
<path id="Vector" d="M75.9997 138.174C110.973 138.174 139.325 110.087 139.325 75.4408C139.325 40.794 110.973 12.7073 75.9997 12.7073C41.0261 12.7073 12.6743 40.794 12.6743 75.4408C12.6743 110.087 41.0261 138.174 75.9997 138.174Z" fill="#B8DEFF"/>
<g id="Group_3">
<path id="Vector_2" d="M76 150.73C34.0938 150.73 0 116.955 0 75.4405C0 33.926 34.0938 0.150879 76 0.150879C117.908 0.150879 152 33.926 152 75.4405C152.002 116.955 117.908 150.73 76 150.73ZM76 4.62402C36.5823 4.62402 4.51536 36.3913 4.51536 75.4405C4.51536 114.49 36.5823 146.257 76 146.257C115.418 146.257 147.485 114.488 147.485 75.4405C147.485 36.3934 115.418 4.62402 76 4.62402Z" fill="#B8DEFF"/>
</g>
</g>
</g>
<g id="Group_4">
<path id="Vector_3" fill-rule="evenodd" clip-rule="evenodd" d="M102.486 104.05C102.208 104.05 101.93 104.05 101.652 104.05C101.463 103.961 101.278 103.853 101.081 103.786C95.7463 102.001 90.4115 100.213 85.0671 98.4576C84.6904 98.3337 84.1992 98.3559 83.8161 98.4815C79.3985 99.9265 74.9889 101.4 70.5808 102.878C69.4824 103.247 68.3998 103.657 67.3093 104.05C66.9914 104.05 66.6735 104.05 66.3555 104.05C66.1314 103.943 65.9152 103.812 65.6799 103.734C60.1734 101.893 54.6669 100.057 49.1588 98.2208C48.2194 97.9076 48.0016 97.6072 48 96.6168C48 85.429 48 74.2411 48 63.0533C48 61.7513 48.6931 61.2506 49.925 61.6607C53.6448 62.9023 57.3645 64.1469 61.0859 65.3869C61.4642 65.5124 61.8473 65.6269 62.3051 65.77C62.1366 65.3996 62.0095 65.1309 61.8918 64.8575C60.787 62.2886 59.9207 59.7007 60.245 56.806C60.9587 50.4252 65.6688 44.968 71.9129 43.4642C72.6394 43.2893 73.3754 43.1542 74.105 43C75.0985 43 76.0921 43 77.0856 43C77.2175 43.0382 77.3479 43.0938 77.483 43.1113C83.007 43.8695 87.0383 46.7643 89.5626 51.7001C90.8693 54.2562 91.4464 57.0095 91.0076 59.8867C90.8343 61.0297 90.4512 62.1392 90.1556 63.2949C90.2112 63.3187 90.297 63.3632 90.3877 63.3934C94.295 64.6985 98.2023 65.9989 102.108 67.3071C103.121 67.6457 103.31 67.9223 103.31 69.0001C103.31 80.1403 103.305 91.2804 103.321 102.422C103.324 103.147 103.122 103.691 102.486 104.05ZM50.421 64.3647C50.4099 64.5888 50.3988 64.7065 50.3988 64.8241C50.3972 75.0773 50.4019 85.3288 50.3845 95.582C50.3829 96.0541 50.5959 96.1797 50.9663 96.3021C54.8752 97.5977 58.7809 98.9043 62.6882 100.206C63.6547 100.529 64.6244 100.842 65.6418 101.174C65.6418 100.853 65.6418 100.616 65.6418 100.38C65.6418 91.8956 65.5893 83.4101 65.6799 74.9263C65.7022 72.8661 65.4367 71.0078 64.1539 69.3752C63.9266 69.0859 63.6198 68.7791 63.2859 68.6647C60.4008 67.6728 57.5013 66.7237 54.6049 65.7604C53.2379 65.3042 51.8692 64.848 50.421 64.3647ZM89.2352 65.5458C88.0573 67.6553 86.9143 69.6916 85.7857 71.7374C85.6966 71.898 85.676 72.1158 85.676 72.3065C85.6712 80.0767 85.6744 87.8468 85.6617 95.6154C85.6617 96.0064 85.7936 96.1606 86.1481 96.2783C90.8868 97.8425 95.6207 99.421 100.358 100.995C100.523 101.049 100.692 101.088 100.916 101.152C100.916 100.88 100.916 100.666 100.916 100.451C100.916 94.2515 100.916 88.0519 100.916 81.8507C100.916 77.9561 100.905 74.0615 100.929 70.1669C100.932 69.628 100.819 69.3387 100.253 69.2052C99.5614 69.0414 98.897 68.7664 98.2198 68.5407C95.2138 67.5376 92.2094 66.5362 89.2352 65.5458ZM75.6581 82.7536C77.0538 80.6664 78.3986 78.681 79.718 76.6796C82.5539 72.3797 85.3628 68.0638 87.4611 63.3346C88.5055 60.982 89.0492 58.5768 88.5167 55.9889C87.3975 50.5428 83.2947 46.5226 77.6276 45.5609C72.7061 44.7263 67.4015 46.9185 64.537 51.6222C62.5134 54.9461 61.8775 58.4878 63.4036 62.198C64.0951 63.8815 64.8724 65.5379 65.734 67.1418C68.2599 71.8455 71.2913 76.2361 74.2576 80.6664C74.7043 81.3357 75.1558 82.0049 75.6581 82.7536ZM83.2756 75.7815C83.0737 76.0613 82.9688 76.1964 82.8734 76.3394C80.8562 79.3788 78.8389 82.4166 76.8217 85.456C76.1286 86.5004 75.1875 86.5099 74.5072 85.483C72.4709 82.4103 70.4345 79.3375 68.395 76.2663C68.314 76.1439 68.2122 76.0374 68.0755 75.8673C68.0755 84.3401 68.0755 92.7254 68.0755 101.146C68.2313 101.109 68.3473 101.09 68.4586 101.054C73.2482 99.4575 78.0362 97.8552 82.8321 96.2735C83.2263 96.1431 83.282 95.9317 83.282 95.5756C83.2724 92.1786 83.2756 88.7815 83.2756 85.3845C83.2756 82.2465 83.2756 79.1086 83.2756 75.7815Z" fill="#0E56A0"/>
<path id="Vector_4" fill-rule="evenodd" clip-rule="evenodd" d="M75.6233 66.7618C70.8783 66.738 67.1681 62.9387 67.1935 58.1285C67.2173 53.5662 71.0897 49.7893 75.7203 49.8131C80.4065 49.8369 84.1438 53.6711 84.1199 58.4337C84.0993 63.0198 80.2571 66.7857 75.6233 66.7618ZM75.404 52.2405C71.9131 52.498 69.3363 55.3403 69.5923 58.6515C69.8577 62.101 72.7302 64.5824 76.1797 64.344C79.3574 64.1246 81.9533 61.1393 81.7244 57.9648C81.4811 54.6027 78.6118 52.0052 75.404 52.2405Z" fill="#0E56A0"/>
</g>
</g>
</svg>
