<svg width="159" height="68" viewBox="0 0 159 68" fill="none" xmlns="http://www.w3.org/2000/svg">
<mask id="mask0_719_229" style="mask-type:luminance" maskUnits="userSpaceOnUse" x="0" y="0" width="14" height="26">
<path d="M13.1755 0.884766H0V25.7252L13.1755 16.8053V0.884766Z" fill="white"/>
</mask>
<g mask="url(#mask0_719_229)">
<path d="M-11.4331 18.1585L4.01266 -5.18018L24.6085 8.45026L9.16272 31.789L-11.4331 18.1585Z" fill="url(#paint0_linear_719_229)"/>
</g>
<mask id="mask1_719_229" style="mask-type:luminance" maskUnits="userSpaceOnUse" x="0" y="0" width="49" height="68">
<path d="M35.2421 0.884766L35.3261 7.60944L0 30.5285V50.5678L30.759 67.4491V50.983L13.1998 41.7385V38.4899L48.7224 15.5686V0.884766H35.2421Z" fill="white"/>
</mask>
<g mask="url(#mask1_719_229)">
<path d="M-30.6353 47.1726L14.8407 -21.5405L79.3578 21.1573L33.8818 89.8726L-30.6353 47.1726Z" fill="url(#paint1_linear_719_229)"/>
</g>
<mask id="mask2_719_229" style="mask-type:luminance" maskUnits="userSpaceOnUse" x="35" y="32" width="14" height="36">
<path d="M35.2725 67.4487L48.7218 59.823V32.7388L35.2725 41.7381V67.4487Z" fill="white"/>
</mask>
<g mask="url(#mask2_719_229)">
<path d="M19.2988 56.8772L39.369 26.5488L64.6953 43.3108L44.6251 73.6392L19.2988 56.8772Z" fill="url(#paint2_linear_719_229)"/>
</g>
<mask id="mask3_719_229" style="mask-type:luminance" maskUnits="userSpaceOnUse" x="35" y="22" width="14" height="17">
<path d="M48.7213 22.5459L35.272 31.3708V38.8706L48.7213 29.8823V22.5459Z" fill="white"/>
</mask>
<g mask="url(#mask3_719_229)">
<path d="M27.7593 33.898L39.369 16.3564L56.2348 27.5179L44.6251 45.0616L27.7593 33.898Z" fill="url(#paint3_linear_719_229)"/>
</g>
<path d="M55.1152 43.9577V34.9893H57.56V38.4742H60.8174V34.9893H63.2666V43.9577H60.8174V40.3072H57.5578V43.9577H55.1152Z" fill="black"/>
<path d="M65.1729 43.9577V34.9893H70.6674V36.9548H67.5558V38.5117H70.4907V40.4352H67.5558V41.948H70.6674V43.9577H65.1729Z" fill="black"/>
<path d="M71.2305 43.9577L74.3245 34.9893H77.3876L80.4882 43.9577H78.0567L77.604 42.3522H74.1301L73.6642 43.9577H71.2305ZM74.6557 40.6075H77.0872L76.1751 37.6482C76.1464 37.5577 76.1067 37.4141 76.0581 37.2131C76.0095 37.0122 75.9455 36.756 75.8682 36.4402C75.8152 36.661 75.7622 36.8708 75.7114 37.0718C75.6606 37.2728 75.6076 37.4649 75.5546 37.6482L74.6557 40.6075Z" fill="black"/>
<path d="M81.3447 43.9577V34.9893H83.7895V41.8619H86.8283V43.9577H81.3447Z" fill="black"/>
<path d="M88.8759 43.9577V37.1094H86.8662V34.9893H93.3281V37.1094H91.3184V43.9577H88.8759Z" fill="black"/>
<path d="M94.5229 43.9577V34.9893H96.9677V38.4742H100.227V34.9893H102.679V43.9577H100.227V40.3072H96.9677V43.9577H94.5229Z" fill="black"/>
<path d="M111.079 35.338V38.008C110.744 37.637 110.41 37.3632 110.077 37.1909C109.743 37.0165 109.388 36.9303 109.008 36.9303C108.306 36.9303 107.738 37.171 107.303 37.6503C106.868 38.1295 106.652 38.7567 106.652 39.5274C106.652 40.2452 106.872 40.8437 107.316 41.3163C107.76 41.7911 108.323 42.0274 109.01 42.0274C109.39 42.0274 109.746 41.9413 110.079 41.7668C110.412 41.5923 110.746 41.3185 111.082 40.943V43.6197C110.693 43.8074 110.309 43.9487 109.924 44.0415C109.54 44.1342 109.154 44.1828 108.761 44.1828C108.27 44.1828 107.818 44.1254 107.405 44.0084C106.989 43.8913 106.61 43.7146 106.263 43.4783C105.594 43.03 105.084 42.4624 104.732 41.7823C104.381 41.0998 104.205 40.3335 104.205 39.4789C104.205 38.792 104.315 38.1693 104.538 37.6083C104.761 37.0474 105.097 36.5372 105.545 36.0801C105.969 35.6428 106.448 35.316 106.981 35.0995C107.513 34.8831 108.107 34.7749 108.761 34.7749C109.154 34.7749 109.54 34.8213 109.924 34.9162C110.306 35.0112 110.693 35.1503 111.079 35.338Z" fill="black"/>
<path d="M111.404 43.9577L114.498 34.9893H117.561L120.662 43.9577H118.231L117.778 42.3522H114.304L113.838 43.9577H111.404ZM114.83 40.6075H117.261L116.349 37.6482C116.32 37.5577 116.281 37.4141 116.232 37.2131C116.183 37.0122 116.119 36.756 116.042 36.4402C115.989 36.661 115.936 36.8708 115.885 37.0718C115.834 37.2728 115.781 37.4649 115.728 37.6482L114.83 40.6075Z" fill="black"/>
<path d="M121.519 43.9577V34.9893H124.074C125.075 34.9893 125.772 35.0356 126.166 35.1262C126.559 35.2189 126.899 35.3713 127.186 35.5877C127.508 35.8329 127.756 36.1443 127.93 36.5241C128.105 36.904 128.191 37.3236 128.191 37.7807C128.191 38.4742 128.021 39.0395 127.678 39.4746C127.336 39.9096 126.841 40.1989 126.188 40.3403L128.632 43.9555H125.87L123.811 40.4463V43.9555H121.519V43.9577ZM123.809 39.2294H124.262C124.788 39.2294 125.174 39.1389 125.417 38.96C125.66 38.7811 125.781 38.4985 125.781 38.1142C125.781 37.6659 125.669 37.3457 125.441 37.1557C125.214 36.9658 124.834 36.8708 124.299 36.8708H123.809V39.2294Z" fill="black"/>
<path d="M129.562 43.9577V34.9893H135.057V36.9548H131.945V38.5117H134.88V40.4352H131.945V41.948H135.057V43.9577H129.562Z" fill="black"/>
<path d="M55.1128 59.3254V50.3569H57.5818V59.3254H55.1128Z" fill="black"/>
<path d="M59.5537 59.3254V50.3569H61.9123L65.3 54.9703C65.3663 55.0653 65.4723 55.253 65.6225 55.5379C65.7704 55.8228 65.9361 56.1607 66.115 56.5516C66.0664 56.1806 66.031 55.8493 66.0067 55.56C65.9847 55.2707 65.9736 55.0123 65.9736 54.787V50.3591H68.319V59.3276H65.9736L62.5859 54.6965C62.5174 54.6038 62.407 54.4138 62.259 54.1289C62.1089 53.844 61.9477 53.5106 61.771 53.1263C61.8196 53.5017 61.8549 53.8352 61.8792 54.1245C61.9013 54.4138 61.9123 54.6722 61.9123 54.8953V59.3232H59.5537V59.3254Z" fill="black"/>
<path d="M71.5346 59.3254V52.477H69.5249V50.3569H75.9868V52.477H73.9771V59.3254H71.5346Z" fill="black"/>
<path d="M77.1841 59.3254V50.3569H82.6787V52.3224H79.567V53.8794H82.502V55.8029H79.567V57.3157H82.6787V59.3254H77.1841Z" fill="black"/>
<path d="M84.2949 59.3254V50.3569H86.8501C87.8505 50.3569 88.5484 50.4033 88.9415 50.4939C89.3346 50.5866 89.6747 50.739 89.9618 50.9554C90.2842 51.2006 90.5315 51.5119 90.706 51.8918C90.8805 52.2716 90.9666 52.6912 90.9666 53.1484C90.9666 53.8418 90.7965 54.4072 90.4542 54.8423C90.1119 55.2773 89.6172 55.5666 88.9635 55.708L91.4083 59.3232H88.6433L86.5851 55.814V59.3232H84.2949V59.3254ZM86.5851 54.5971H87.0378C87.5634 54.5971 87.9499 54.5066 88.1928 54.3277C88.4357 54.1488 88.5572 53.8661 88.5572 53.4819C88.5572 53.0336 88.4446 52.7133 88.2171 52.5234C87.9896 52.3335 87.6098 52.2385 87.0753 52.2385H86.5851V54.5971Z" fill="black"/>
<path d="M92.3384 59.3254V50.3569H94.697L98.0847 54.9703C98.151 55.0653 98.257 55.253 98.4071 55.5379C98.5573 55.8228 98.7207 56.1607 98.8996 56.5516C98.851 56.1806 98.8157 55.8493 98.7914 55.56C98.7693 55.2707 98.7583 55.0123 98.7583 54.787V50.3591H101.104V59.3276H98.7583L95.3705 54.6965C95.3021 54.6038 95.1917 54.4138 95.0437 54.1289C94.8935 53.844 94.7323 53.5106 94.5556 53.1263C94.6042 53.5017 94.6396 53.8352 94.6639 54.1245C94.6859 54.4138 94.697 54.6722 94.697 54.8953V59.3232H92.3384V59.3254Z" fill="black"/>
<path d="M101.974 59.3254L105.068 50.3569H108.131L111.231 59.3254H108.8L108.347 57.7198H104.873L104.407 59.3254H101.974ZM105.399 55.9752H107.83L106.918 53.0159C106.89 52.9253 106.85 52.7818 106.801 52.5808C106.753 52.3799 106.689 52.1237 106.611 51.8079C106.558 52.0287 106.505 52.2385 106.455 52.4395C106.404 52.6405 106.351 52.8326 106.298 53.0159L105.399 55.9752Z" fill="black"/>
<path d="M112.878 59.3254V52.477H110.869V50.3569H117.331V52.477H115.321V59.3254H112.878Z" fill="black"/>
<path d="M118.588 59.3254V50.3569H121.057V59.3254H118.588Z" fill="black"/>
<path d="M132.235 54.86C132.235 55.5048 132.116 56.1099 131.88 56.6731C131.643 57.2362 131.297 57.742 130.844 58.1859C130.387 58.6276 129.863 58.9677 129.276 59.2062C128.688 59.4447 128.077 59.5639 127.445 59.5639C126.805 59.5639 126.191 59.4447 125.603 59.2062C125.016 58.9677 124.501 58.6276 124.057 58.1859C123.596 57.7398 123.245 57.234 123.006 56.6665C122.768 56.0989 122.648 55.496 122.648 54.86C122.648 54.2195 122.768 53.6166 123.006 53.0491C123.245 52.4837 123.596 51.978 124.057 51.5319C124.501 51.0902 125.018 50.7501 125.603 50.5116C126.189 50.2731 126.803 50.1538 127.445 50.1538C128.081 50.1538 128.695 50.2731 129.285 50.5116C129.874 50.7501 130.393 51.0902 130.844 51.5319C131.294 51.9736 131.637 52.4771 131.875 53.0446C132.114 53.6144 132.235 54.2173 132.235 54.86ZM127.445 57.4924C128.123 57.4924 128.684 57.2429 129.126 56.746C129.57 56.2469 129.791 55.6197 129.791 54.86C129.791 54.1091 129.565 53.4819 129.117 52.9784C128.666 52.4771 128.11 52.2253 127.445 52.2253C126.767 52.2253 126.206 52.4749 125.765 52.9762C125.321 53.4775 125.1 54.1047 125.1 54.86C125.1 55.6285 125.318 56.2579 125.756 56.7526C126.193 57.2473 126.754 57.4924 127.445 57.4924Z" fill="black"/>
<path d="M133.766 59.3254V50.3569H136.125L139.512 54.9703C139.579 55.0653 139.685 55.253 139.835 55.5379C139.985 55.8228 140.148 56.1607 140.327 56.5516C140.279 56.1806 140.243 55.8493 140.219 55.56C140.197 55.2707 140.186 55.0123 140.186 54.787V50.3591H142.531V59.3276H140.186L136.798 54.6965C136.73 54.6038 136.619 54.4138 136.471 54.1289C136.321 53.844 136.16 53.5106 135.983 53.1263C136.032 53.5017 136.067 53.8352 136.092 54.1245C136.114 54.4138 136.125 54.6722 136.125 54.8953V59.3232H133.766V59.3254Z" fill="black"/>
<path d="M143.401 59.3254L146.495 50.3569H149.558L152.659 59.3254H150.228L149.775 57.7198H146.301L145.835 59.3254H143.401ZM146.827 55.9752H149.258L148.346 53.0159C148.317 52.9253 148.278 52.7818 148.229 52.5808C148.18 52.3799 148.116 52.1237 148.039 51.8079C147.986 52.0287 147.933 52.2385 147.882 52.4395C147.831 52.6405 147.778 52.8326 147.725 53.0159L146.827 55.9752Z" fill="black"/>
<path d="M153.516 59.3254V50.3569H155.961V57.2296H159V59.3254H153.516Z" fill="black"/>
<defs>
<linearGradient id="paint0_linear_719_229" x1="-20.7404" y1="54.6884" x2="30.4576" y2="-22.6724" gradientUnits="userSpaceOnUse">
<stop stop-color="#D84598"/>
<stop offset="0.2756" stop-color="#D84598"/>
<stop offset="0.5728" stop-color="#EEB81D"/>
<stop offset="0.8178" stop-color="#10569F"/>
<stop offset="1" stop-color="#10569F"/>
</linearGradient>
<linearGradient id="paint1_linear_719_229" x1="1.1331" y1="69.2284" x2="52.3311" y2="-8.13249" gradientUnits="userSpaceOnUse">
<stop stop-color="#D84598"/>
<stop offset="0.2756" stop-color="#D84598"/>
<stop offset="0.5728" stop-color="#EEB81D"/>
<stop offset="0.8178" stop-color="#10569F"/>
<stop offset="1" stop-color="#10569F"/>
</linearGradient>
<linearGradient id="paint2_linear_719_229" x1="20.0655" y1="83.2308" x2="72.3985" y2="4.15479" gradientUnits="userSpaceOnUse">
<stop stop-color="#D84598"/>
<stop offset="0.2756" stop-color="#D84598"/>
<stop offset="0.5728" stop-color="#EEB81D"/>
<stop offset="0.8178" stop-color="#10569F"/>
<stop offset="1" stop-color="#10569F"/>
</linearGradient>
<linearGradient id="paint3_linear_719_229" x1="12.889" y1="74.5966" x2="62.7724" y2="-0.77802" gradientUnits="userSpaceOnUse">
<stop stop-color="#D84598"/>
<stop offset="0.2756" stop-color="#D84598"/>
<stop offset="0.5728" stop-color="#EEB81D"/>
<stop offset="0.8178" stop-color="#10569F"/>
<stop offset="1" stop-color="#10569F"/>
</linearGradient>
</defs>
</svg>
