<svg width="152" height="151" viewBox="0 0 152 151" fill="none" xmlns="http://www.w3.org/2000/svg">
<g id="Group 4592">
<g id="Group">
<g id="Group_2">
<path id="Vector" d="M75.9997 138.023C110.973 138.023 139.325 109.937 139.325 75.2899C139.325 40.6431 110.973 12.5564 75.9997 12.5564C41.0261 12.5564 12.6743 40.6431 12.6743 75.2899C12.6743 109.937 41.0261 138.023 75.9997 138.023Z" fill="#B8DEFF"/>
<g id="Group_3">
<path id="Vector_2" d="M76 150.579C34.0938 150.579 0 116.804 0 75.2896C0 33.7751 34.0938 0 76 0C117.908 0 152 33.7751 152 75.2896C152.002 116.804 117.908 150.579 76 150.579ZM76 4.47314C36.5823 4.47314 4.51536 36.2404 4.51536 75.2896C4.51536 114.339 36.5823 146.106 76 146.106C115.418 146.106 147.485 114.337 147.485 75.2896C147.485 36.2425 115.418 4.47314 76 4.47314Z" fill="#B8DEFF"/>
</g>
</g>
</g>
<g id="Group_4">
<path id="Vector_3" fill-rule="evenodd" clip-rule="evenodd" d="M108 72.7786C108 73.1434 108 73.5082 108 73.8731C107.974 73.8749 107.95 73.8768 107.924 73.8786C107.95 73.9138 107.974 73.949 108 73.9823C108 75.6602 108 77.338 108 79.0158C107.974 79.051 107.95 79.0862 107.924 79.1195C107.95 79.1214 107.974 79.1232 108 79.1251C108 79.4899 108 79.8547 108 80.2196C107.748 80.1603 107.794 80.3566 107.783 80.4862C107.68 81.8307 107.417 83.153 107.076 84.4512C105.907 88.9087 103.963 92.9866 101.087 96.62C99.3794 98.7756 97.4478 100.692 95.2885 102.37C93.1125 104.061 90.7254 105.42 88.1772 106.483C85.3864 107.648 82.503 108.467 79.4862 108.781C79.3566 108.794 79.1621 108.746 79.2196 108.998C78.8547 108.998 78.4899 108.998 78.1251 108.998C78.1232 108.972 78.1214 108.948 78.1195 108.922C78.0843 108.948 78.0491 108.972 78.0158 108.998C76.338 108.998 74.6602 108.998 72.9823 108.998C72.9471 108.972 72.912 108.948 72.8786 108.922C72.8768 108.948 72.8749 108.972 72.8731 108.998C72.5082 108.998 72.1434 108.998 71.7786 108.998C71.8379 108.746 71.6416 108.793 71.5119 108.781C70.1674 108.678 68.8452 108.415 67.547 108.074C63.0895 106.905 59.0116 104.961 55.3781 102.087C53.2225 100.379 51.3058 98.4478 49.628 96.2885C47.9372 94.1125 46.5779 91.7254 45.5149 89.1772C44.35 86.3864 43.5315 83.503 43.2167 80.4862C43.2037 80.3566 43.2519 80.1621 43 80.2196C43 79.8547 43 79.4899 43 79.1251C43.0259 79.1232 43.05 79.1214 43.0759 79.1195C43.05 79.0843 43.0259 79.0491 43 79.0158C43 77.338 43 75.6602 43 73.9823C43.0259 73.9471 43.05 73.912 43.0759 73.8786C43.05 73.8768 43.0259 73.8749 43 73.8731C43 73.5082 43 73.1434 43 72.7786C43.2519 72.8379 43.2056 72.6416 43.2167 72.5119C43.3204 71.1674 43.5833 69.8452 43.9241 68.547C45.0927 64.0895 47.0372 60.0116 49.9132 56.3781C51.6206 54.2225 53.5522 52.3058 55.7115 50.628C57.8875 48.9372 60.2746 47.5779 62.8228 46.5149C65.6136 45.35 68.497 44.5315 71.5138 44.2167C71.6434 44.2037 71.8379 44.2519 71.7805 44C72.1453 44 72.5101 44 72.8749 44C72.8768 44.0259 72.8786 44.05 72.8805 44.0759C72.9157 44.05 72.9509 44.0259 72.9842 44C74.662 44 76.3398 44 78.0177 44C78.0529 44.0259 78.088 44.05 78.1214 44.0759C78.1232 44.05 78.1251 44.0259 78.1269 44C78.4918 44 78.8566 44 79.2214 44C79.1621 44.2519 79.3584 44.2056 79.4881 44.2167C80.8326 44.3204 82.1548 44.5833 83.453 44.9241C87.9105 46.0927 91.9884 48.0372 95.6219 50.9132C97.7775 52.6206 99.6942 54.5522 101.372 56.7115C103.063 58.8875 104.422 61.2746 105.485 63.8228C106.65 66.6136 107.469 69.497 107.783 72.5138C107.796 72.6434 107.746 72.8379 108 72.7786ZM75.5065 47.9409C59.5912 47.9927 47.4298 60.706 46.9612 75.4009C46.4186 92.4384 59.9264 104.62 74.4546 105.044C91.4347 105.541 103.62 92.0662 104.052 77.4917C104.546 60.7394 91.0199 47.902 75.5065 47.9409Z" fill="#0E56A0"/>
<path id="Vector_4" fill-rule="evenodd" clip-rule="evenodd" d="M72.9843 44C72.9491 44.0259 72.9139 44.05 72.8806 44.0759C72.8787 44.05 72.8769 44.0259 72.875 44C72.9102 44 72.9472 44 72.9843 44Z" fill="#010101"/>
<path id="Vector_5" fill-rule="evenodd" clip-rule="evenodd" d="M78.1268 44C78.125 44.0259 78.1231 44.05 78.1213 44.0759C78.0861 44.05 78.0509 44.0259 78.0176 44C78.0528 44 78.0898 44 78.1268 44Z" fill="#010101"/>
<path id="Vector_6" fill-rule="evenodd" clip-rule="evenodd" d="M43.002 73.873C43.0279 73.8749 43.052 73.8768 43.0779 73.8786C43.052 73.9138 43.0279 73.949 43.002 73.9823C43.002 73.9453 43.002 73.9101 43.002 73.873Z" fill="#010101"/>
<path id="Vector_7" fill-rule="evenodd" clip-rule="evenodd" d="M108 73.9823C107.974 73.9471 107.95 73.9119 107.924 73.8786C107.95 73.8768 107.974 73.8749 108 73.873C108 73.9101 108 73.9453 108 73.9823Z" fill="#010101"/>
<path id="Vector_8" fill-rule="evenodd" clip-rule="evenodd" d="M43.002 79.0159C43.0279 79.0511 43.052 79.0862 43.0779 79.1196C43.052 79.1214 43.0279 79.1233 43.002 79.1251C43.002 79.09 43.002 79.0529 43.002 79.0159Z" fill="#010101"/>
<path id="Vector_9" fill-rule="evenodd" clip-rule="evenodd" d="M108 79.1251C107.974 79.1233 107.95 79.1214 107.924 79.1196C107.95 79.0844 107.974 79.0492 108 79.0159C108 79.0529 108 79.09 108 79.1251Z" fill="#010101"/>
<path id="Vector_10" fill-rule="evenodd" clip-rule="evenodd" d="M72.875 108.998C72.8769 108.972 72.8787 108.948 72.8806 108.922C72.9157 108.948 72.9509 108.972 72.9843 108.998C72.9472 108.998 72.9102 108.998 72.875 108.998Z" fill="#010101"/>
<path id="Vector_11" fill-rule="evenodd" clip-rule="evenodd" d="M78.0176 108.998C78.0528 108.972 78.088 108.948 78.1213 108.922C78.1231 108.948 78.125 108.972 78.1268 108.998C78.0898 108.998 78.0528 108.998 78.0176 108.998Z" fill="#010101"/>
<path id="Vector_12" fill-rule="evenodd" clip-rule="evenodd" d="M58.8876 65.6191C58.7395 63.932 59.0895 62.3913 60.1821 61.0597C61.0692 59.9782 62.2544 59.2893 63.4137 58.5615C63.7211 58.3689 63.8507 58.3578 64.0619 58.7319C65.2045 60.7653 66.3934 62.7746 67.5675 64.7913C68.3342 66.1099 69.1064 67.4266 69.8694 68.747C69.9694 68.9211 70.1194 69.0766 69.8287 69.2822C68.6138 70.1396 68.1286 71.3971 68.0694 72.8212C67.9823 74.8768 68.5546 76.8065 69.375 78.6602C70.3694 80.9066 71.6806 82.9455 73.5047 84.6178C74.4825 85.5141 75.5844 86.2419 76.8919 86.5271C77.7289 86.7105 78.6012 86.6957 79.3938 86.2475C79.7123 86.0679 79.9179 86.1382 80.1012 86.4549C81.5087 88.9179 82.9254 91.3754 84.3421 93.8329C84.8347 94.6885 85.3254 95.5441 85.8329 96.3904C86.0125 96.6922 86.0292 96.9034 85.6699 97.0756C84.5199 97.6219 83.4291 98.296 82.1402 98.5145C80.8623 98.7312 79.6253 98.633 78.4437 98.0978C76.653 97.2867 75.1529 96.0626 73.6769 94.7811C72.5621 93.8125 71.5547 92.744 70.5917 91.6402C68.9953 89.8124 67.562 87.8586 66.2508 85.8104C64.3859 82.8955 62.7877 79.851 61.4562 76.6565C60.4025 74.1323 59.6136 71.5323 59.1191 68.8507C58.9228 67.7933 58.7599 66.7062 58.8876 65.6191Z" fill="#0E56A0"/>
<path id="Vector_13" fill-rule="evenodd" clip-rule="evenodd" d="M92.1272 93.3645C92.2012 93.9182 91.929 94.3163 91.492 94.5793C90.4771 95.1904 89.4512 95.783 88.4122 96.3516C87.727 96.7275 86.8863 96.5145 86.4826 95.8442C85.6862 94.5219 84.9251 93.1793 84.151 91.8422C83.1176 90.0551 82.0787 88.2717 81.0583 86.4791C80.7528 85.942 80.3639 85.4161 80.5342 84.7309C80.6176 84.3975 80.7176 84.1012 81.0472 83.8938C82.0824 83.2475 83.138 82.6327 84.2158 82.0604C84.9899 81.6493 85.7603 81.8493 86.2122 82.6049C87.0807 84.0512 87.9215 85.5124 88.7622 86.9754C89.8271 88.8273 90.8753 90.6885 91.942 92.5385C92.0938 92.8052 92.1623 93.0681 92.1272 93.3645Z" fill="#0E56A0"/>
<path id="Vector_14" fill-rule="evenodd" clip-rule="evenodd" d="M69.0118 54.4041C69.7007 54.3319 70.1322 54.6763 70.4396 55.2134C71.7508 57.5005 73.0563 59.7913 74.3675 62.0802C74.912 63.0303 75.4564 63.9784 76.0083 64.9229C76.5416 65.834 76.2916 66.7415 75.3657 67.2674C74.4286 67.7989 73.4934 68.3323 72.5434 68.8378C71.7915 69.2378 71.0396 69.0471 70.5896 68.3082C69.797 67.0063 69.047 65.6785 68.2821 64.3618C67.2469 62.5784 66.2136 60.7932 65.1783 59.0079C64.7506 58.269 64.3302 57.5283 64.8969 56.6745C65.2228 56.1838 65.808 56.0486 66.2673 55.743C66.9377 55.2967 67.6599 54.9282 68.3562 54.5226C68.5692 54.393 68.7988 54.3745 69.0118 54.4041Z" fill="#0E56A0"/>
</g>
</g>
</svg>
