<svg width="152" height="151" viewBox="0 0 152 151" fill="none" xmlns="http://www.w3.org/2000/svg">
<g id="Group 4589">
<g id="Group">
<g id="Group_2">
<path id="Vector" d="M75.9997 138.023C110.973 138.023 139.325 109.937 139.325 75.2899C139.325 40.6431 110.973 12.5564 75.9997 12.5564C41.0261 12.5564 12.6743 40.6431 12.6743 75.2899C12.6743 109.937 41.0261 138.023 75.9997 138.023Z" fill="#D84498"/>
<g id="Group_3">
<path id="Vector_2" d="M76 150.579C34.0938 150.579 0 116.804 0 75.2896C0 33.7751 34.0938 0 76 0C117.908 0 152 33.7751 152 75.2896C152.002 116.804 117.908 150.579 76 150.579ZM76 4.47314C36.5823 4.47314 4.51536 36.2404 4.51536 75.2896C4.51536 114.339 36.5823 146.106 76 146.106C115.418 146.106 147.485 114.337 147.485 75.2896C147.485 36.2425 115.418 4.47314 76 4.47314Z" fill="#D84498"/>
</g>
</g>
</g>
<g id="Group_4">
<path id="Vector_3" fill-rule="evenodd" clip-rule="evenodd" d="M93.5339 42.1526C94.2965 42.3263 95.0675 42.468 95.8182 42.6789C101.662 44.3306 105.801 49.9738 105.51 56.0152C105.279 60.82 103.078 64.5316 98.9916 67.0926C98.6171 67.3271 98.4922 67.5751 98.4973 68.0053C98.5209 69.8374 98.5159 71.6713 98.504 73.5051C98.4973 74.5629 97.6858 75.2057 96.7883 74.8835C96.1641 74.6591 95.9228 74.1749 95.9245 73.5372C95.9279 72.1099 95.9245 70.681 95.9245 69.252C95.9245 69.0226 95.9245 68.7915 95.9245 68.4861C93.8916 69.0563 91.8924 69.1508 89.8004 68.8606C89.8004 69.1913 89.8004 69.4629 89.8004 69.7328C89.8004 78.4297 89.8038 87.1266 89.7988 95.8234C89.7971 98.2697 88.3968 100.115 86.1294 100.637C85.6384 100.75 85.1154 100.748 84.6059 100.748C76.1436 100.755 67.6812 100.753 59.2189 100.753C58.9472 100.753 58.6756 100.753 58.3686 100.753C58.3686 101.711 58.2943 102.607 58.3905 103.484C58.485 104.347 59.3673 104.999 60.3138 105.072C60.5044 105.087 60.6967 105.079 60.8891 105.079C71.6965 105.079 82.5038 105.079 93.3096 105.079C95.1569 105.079 95.9228 104.323 95.9228 102.489C95.9245 96.947 95.9228 91.405 95.9245 85.863C95.9245 85.6284 95.9195 85.3923 95.9414 85.1611C96.0055 84.4661 96.4728 84.0038 97.1274 83.9734C97.8174 83.9414 98.3674 84.375 98.4821 85.0633C98.5209 85.2927 98.5057 85.5306 98.5057 85.7651C98.5074 91.3291 98.5074 96.8913 98.5057 102.455C98.5057 105.19 97.394 106.707 94.7756 107.55C94.7402 107.562 94.7132 107.604 94.6828 107.633C82.9594 107.633 71.2359 107.633 59.5124 107.633C59.4837 107.603 59.4601 107.559 59.4247 107.547C56.8047 106.68 55.7114 105.175 55.7097 102.433C55.7097 101.89 55.7097 101.345 55.7097 100.751C54.3517 100.751 53.0982 100.761 51.8447 100.75C48.975 100.721 47.0028 98.737 47.0028 95.8589C46.9977 80.5116 46.9994 65.1642 47.0095 49.8169C47.0095 49.3125 47.077 48.7912 47.212 48.307C47.8109 46.1577 49.5907 44.9143 52.0353 44.9126C62.4378 44.9092 72.8386 44.916 83.2411 44.8957C83.6325 44.8957 84.0813 44.754 84.4069 44.5347C85.8729 43.5478 87.4571 42.8527 89.1728 42.4495C89.6435 42.3381 90.121 42.2504 90.5934 42.1509C91.5736 42.1526 92.5537 42.1526 93.5339 42.1526ZM81.3296 47.5056C80.9467 47.5056 80.697 47.5056 80.4473 47.5056C73.3717 47.5056 66.2944 47.5056 59.2189 47.5056C56.7675 47.5056 54.3162 47.5023 51.8649 47.5073C50.4478 47.509 49.6464 48.2901 49.5992 49.7005C49.5907 49.935 49.5958 50.1695 49.5958 50.404C49.5958 65.3667 49.5958 80.3293 49.5958 95.292C49.5958 95.4843 49.5924 95.675 49.5975 95.8673C49.6245 97.3873 50.4258 98.1786 51.9476 98.1786C62.9237 98.1803 73.9015 98.1803 84.8776 98.1786C86.3369 98.1786 87.1872 97.3941 87.1889 95.9668C87.199 86.8448 87.1922 77.7211 87.204 68.5991C87.204 68.206 87.0454 68.0491 86.7114 67.9041C84.7409 67.0521 83.0758 65.7851 81.7092 64.1301C81.3465 63.6914 81.0175 63.2224 80.7324 62.8462C80.3022 62.9019 79.9496 62.9846 79.5953 62.9862C72.1351 62.993 64.6749 62.993 57.2146 62.9913C56.0522 62.9913 55.5765 62.524 55.5731 61.3734C55.568 59.8601 55.5714 58.3468 55.5714 56.8335C55.5714 55.4248 55.9915 54.9996 57.3918 54.9979C61.0156 54.9963 64.6394 54.9979 68.2616 54.9979C71.5008 54.9979 74.7416 54.9878 77.9808 55.0081C78.4869 55.0114 78.7096 54.8917 78.713 54.3484C78.7164 53.8642 78.8176 53.3767 78.9104 52.8975C79.2866 50.9675 80.1048 49.2282 81.3296 47.5056ZM102.933 55.5817C102.933 49.601 98.0603 44.7152 92.0881 44.7085C86.1091 44.7017 81.2436 49.5673 81.2318 55.5597C81.22 61.564 86.0636 66.4498 92.0341 66.4565C98.0587 66.465 102.933 61.6011 102.933 55.5817ZM58.2151 60.3881C65.0207 60.3881 71.7842 60.3881 78.5679 60.3881C78.5679 59.4484 78.5679 58.5492 78.5679 57.65C71.7521 57.65 64.987 57.65 58.2151 57.65C58.2151 58.583 58.2151 59.4687 58.2151 60.3881Z" fill="white"/>
<path id="Vector_4" fill-rule="evenodd" clip-rule="evenodd" d="M97.1932 78.1412C97.8782 78.1328 98.5007 78.7452 98.5041 79.4335C98.5075 80.1151 97.8799 80.7393 97.1966 80.7325C96.5252 80.7275 95.9533 80.1522 95.9398 79.4689C95.9246 78.7452 96.4864 78.1513 97.1932 78.1412Z" fill="white"/>
<path id="Vector_5" fill-rule="evenodd" clip-rule="evenodd" d="M68.3964 70.0094C64.6495 70.0094 60.9008 70.0128 57.1538 70.0077C55.9998 70.0061 55.2761 69.1794 55.7029 68.2836C55.8682 67.936 56.2968 67.6695 56.6629 67.4755C56.9024 67.3489 57.2466 67.4063 57.5418 67.4063C64.781 67.4029 72.022 67.4029 79.2612 67.4063C79.5379 67.4063 79.8162 67.408 80.0879 67.4501C80.7559 67.5531 81.2216 68.0862 81.2182 68.7121C81.2148 69.3127 80.7762 69.8441 80.1452 69.9706C79.9192 70.0162 79.6796 70.0077 79.4468 70.0077C75.7639 70.0094 72.081 70.0094 68.3964 70.0094Z" fill="white"/>
<path id="Vector_6" fill-rule="evenodd" clip-rule="evenodd" d="M68.3324 82.1412C64.7119 82.1412 61.0915 82.1412 57.4727 82.1412C57.2804 82.1412 57.0881 82.1496 56.8974 82.1344C56.1197 82.0686 55.5764 81.5288 55.5781 80.8354C55.5798 80.1707 56.0977 79.6342 56.8401 79.5448C57.0509 79.5195 57.2652 79.5296 57.4778 79.5296C64.7609 79.5296 72.044 79.5296 79.3254 79.5296C79.5177 79.5296 79.71 79.5212 79.9007 79.5397C80.6801 79.6139 81.2216 80.1538 81.22 80.8421C81.2183 81.5372 80.675 82.0703 79.8939 82.1344C79.7033 82.1496 79.5109 82.1412 79.3186 82.1412C75.6577 82.1412 71.995 82.1412 68.3324 82.1412Z" fill="white"/>
<path id="Vector_7" fill-rule="evenodd" clip-rule="evenodd" d="M68.3648 76.0491C64.5925 76.0491 60.8185 76.0525 57.0462 76.0457C55.9597 76.044 55.2562 75.16 55.7185 74.303C55.9091 73.9487 56.4018 73.7513 56.7695 73.5016C56.8438 73.451 56.9787 73.4898 57.085 73.4898C64.6313 73.4898 72.1759 73.4881 79.7222 73.4915C80.8373 73.4915 81.5155 74.3738 81.0971 75.2848C80.8373 75.85 80.365 76.0575 79.7475 76.0542C77.1258 76.0407 74.5041 76.0491 71.8823 76.0491C70.7098 76.0491 69.5373 76.0491 68.3648 76.0491Z" fill="white"/>
<path id="Vector_8" fill-rule="evenodd" clip-rule="evenodd" d="M68.4675 85.6318C72.2398 85.6318 76.0138 85.6284 79.7861 85.6352C80.8591 85.6369 81.5069 86.5243 81.0953 87.4201C80.8625 87.9279 80.4458 88.1911 79.8738 88.1911C79.086 88.1894 78.2964 88.1911 77.5086 88.1911C70.8159 88.1911 64.1233 88.1911 57.4307 88.1911C57.2384 88.1911 57.0461 88.1979 56.8554 88.1877C56.1452 88.1456 55.5918 87.5905 55.5817 86.9191C55.5716 86.2257 56.1435 85.6453 56.8942 85.6386C58.8124 85.6251 60.7306 85.6318 62.6488 85.6318C64.589 85.6318 66.5274 85.6318 68.4675 85.6318Z" fill="white"/>
<path id="Vector_9" fill-rule="evenodd" clip-rule="evenodd" d="M90.7939 58.2675C90.7939 56.8621 90.7771 55.4568 90.8007 54.0515C90.8159 53.0898 91.4418 52.528 92.292 52.6478C92.9568 52.7423 93.3836 53.3092 93.3853 54.1476C93.3903 56.8942 93.387 59.6407 93.387 62.3873C93.387 62.4514 93.3886 62.5155 93.3853 62.5796C93.338 63.3979 92.8117 63.9394 92.0693 63.9327C91.349 63.9259 90.8226 63.4181 90.8074 62.61C90.7787 61.1625 90.799 59.715 90.799 58.2658C90.7973 58.2675 90.7956 58.2675 90.7939 58.2675Z" fill="white"/>
<path id="Vector_10" fill-rule="evenodd" clip-rule="evenodd" d="M92.0864 48.5278C92.8017 48.5312 93.3922 49.1251 93.3736 49.8218C93.3551 50.5169 92.7292 51.1124 92.0408 51.0888C91.3609 51.0669 90.8076 50.495 90.8008 49.8083C90.7941 49.0846 91.3576 48.5245 92.0864 48.5278Z" fill="white"/>
</g>
</g>
</svg>
