<svg width="152" height="151" viewBox="0 0 152 151" fill="none" xmlns="http://www.w3.org/2000/svg">
<path d="M75.9997 138.174C110.973 138.174 139.325 110.087 139.325 75.4408C139.325 40.794 110.973 12.7073 75.9997 12.7073C41.0261 12.7073 12.6743 40.794 12.6743 75.4408C12.6743 110.087 41.0261 138.174 75.9997 138.174Z" fill="#D84498"/>
<path d="M76 150.73C34.0938 150.73 0 116.955 0 75.4405C0 33.926 34.0938 0.150879 76 0.150879C117.908 0.150879 152 33.926 152 75.4405C152.002 116.955 117.908 150.73 76 150.73ZM76 4.62402C36.5823 4.62402 4.51536 36.3913 4.51536 75.4405C4.51536 114.49 36.5823 146.257 76 146.257C115.418 146.257 147.485 114.488 147.485 75.4405C147.485 36.3934 115.418 4.62402 76 4.62402Z" fill="#D84498"/>
<path fill-rule="evenodd" clip-rule="evenodd" d="M102.404 74.0776C103.676 74.0776 105.097 74.0728 106.518 74.0776C110.313 74.0919 112.986 76.7414 112.991 80.5241C113.003 88.3799 113.003 96.2334 112.993 104.089C112.988 107.839 110.336 110.498 106.592 110.502C96.1793 110.514 85.7644 110.495 75.3519 110.514C73.0856 110.519 71.355 109.6 70.0195 107.8C69.829 107.543 69.4196 107.31 69.1053 107.301C54.7054 106.913 42.0647 96.6285 38.8033 82.2238C37.9344 78.384 37.9059 74.4871 38.0939 70.5972C38.3772 64.6863 40.1555 59.2158 43.524 54.3333C49.1587 46.1681 56.9003 41.357 66.7962 40.3262C83.2268 38.6146 98.2623 49.6103 101.507 65.6862C102.05 68.3762 102.107 71.1638 102.404 74.0776ZM71.3121 89.4393C71.3121 89.763 71.3121 90.0535 71.3121 90.3415C71.3121 93.9409 71.3026 97.5403 71.3145 101.137C71.324 103.939 72.8142 105.422 75.6209 105.422C85.8525 105.427 96.0841 105.427 106.313 105.422C109.113 105.42 110.586 103.934 110.594 101.118C110.603 97.5189 110.596 93.9219 110.594 90.3225C110.594 90.0368 110.558 89.7535 110.539 89.4583C106.04 89.4583 101.621 89.4583 97.2172 89.4583C96.7316 91.4104 95.8341 92.1031 93.8488 92.1055C91.7658 92.1055 89.6852 92.1126 87.6022 92.1031C86.3167 92.096 85.3074 91.3675 84.8908 90.1773C84.8074 89.9344 84.7432 89.6845 84.6717 89.4417C80.2177 89.4393 75.8232 89.4393 71.3121 89.4393ZM110.596 86.9326C110.596 84.9234 110.515 82.9666 110.615 81.0169C110.777 77.8413 108.663 76.3725 106.042 76.4034C99.2597 76.482 92.4776 76.4296 85.6954 76.4296C82.2745 76.4296 78.8537 76.4201 75.4328 76.4344C73.3594 76.4439 71.5811 77.6318 71.4526 79.4172C71.2764 81.8953 71.4073 84.3949 71.4073 86.9373C75.859 86.9373 80.3058 86.9373 84.7336 86.9373C85.3502 85.1329 86.1905 84.5211 88.0521 84.5116C89.897 84.502 91.742 84.552 93.5845 84.4973C95.408 84.4449 96.7078 85.0757 97.1815 86.9349C101.655 86.9326 106.073 86.9326 110.596 86.9326ZM55.5219 59.0801C51.7131 59.0801 47.8209 59.0682 43.9334 59.1063C43.6882 59.1087 43.3145 59.4563 43.224 59.7205C42.4194 62.1011 41.5814 64.4745 40.9315 66.9002C40.5792 68.2119 40.5792 69.6165 40.4197 70.9686C45.157 70.9686 49.6872 70.9686 54.0508 70.9686C54.5459 66.9812 55.0292 63.0771 55.5219 59.0801ZM40.5673 73.3801C40.5316 73.5158 40.5031 73.5705 40.5054 73.6277C40.6221 77.5746 41.6195 81.3049 43.3264 84.8472C43.443 85.0876 43.9334 85.2686 44.25 85.2709C47.8185 85.2995 51.3869 85.29 54.9554 85.2876C55.1839 85.2876 55.4124 85.2543 55.5148 85.2471C55.0244 81.2764 54.5411 77.3485 54.0508 73.3825C49.6372 73.3801 45.1261 73.3801 40.5673 73.3801ZM56.6574 70.9615C60.7782 70.9615 64.8275 70.9615 68.8744 70.9615C68.8744 66.9836 68.8744 63.0747 68.8744 59.1278C65.3012 59.1278 61.778 59.1278 58.2477 59.1278C57.2335 63.0295 56.7336 66.9502 56.6574 70.9615ZM68.8601 85.2424C68.8601 81.224 68.8601 77.3152 68.8601 73.4111C64.7608 73.4111 60.7282 73.4111 56.6527 73.4111C56.7479 77.4508 57.2216 81.3764 58.2572 85.2424C61.8161 85.2424 65.3155 85.2424 68.8601 85.2424ZM71.3883 59.0801C71.3883 63.1199 71.3883 67.0502 71.3883 70.9781C74.9329 70.9781 78.399 70.9781 81.9793 70.9781C81.796 69.3094 82.1127 67.8096 83.153 66.5075C83.272 66.3575 83.2482 66.048 83.2101 65.8266C82.853 63.7532 82.4959 61.6797 82.0889 59.6158C82.046 59.4039 81.6723 59.1063 81.4485 59.1039C78.1229 59.0706 74.7948 59.0801 71.3883 59.0801ZM74.8329 42.8924C75.8923 43.8327 77.1111 44.7469 78.1276 45.8491C80.7962 48.7414 82.4007 52.2432 83.5672 55.9569C83.7624 56.5758 84.0338 56.7782 84.6813 56.771C87.9807 56.7377 91.2801 56.7567 94.5796 56.752C94.8224 56.752 95.0652 56.7163 95.3533 56.6925C91.5896 50.2555 84.0528 44.2446 74.8329 42.8924ZM44.9452 56.7091C48.754 56.7091 52.5462 56.7091 56.367 56.7091C58.1429 51.391 60.3854 46.3609 65.3584 43.0543C59.5998 42.5449 47.459 50.6958 44.9452 56.7091ZM56.3623 87.6991C52.5272 87.6991 48.7445 87.6991 44.9332 87.6991C47.947 94.0409 60.0426 102.113 65.2584 101.306C60.1354 96.8904 60.0069 96.6952 56.3623 87.6991ZM84.2813 74.0324C88.7687 74.0324 93.1536 74.0324 97.5767 74.0324C97.5767 72.4803 97.6862 70.9638 97.5458 69.4689C97.4029 67.9596 96.2245 66.9955 94.6534 66.9645C92.1847 66.9169 89.7161 66.9122 87.2475 66.9669C85.5216 67.005 84.348 68.2096 84.2885 69.9188C84.2456 71.2543 84.2813 72.5921 84.2813 74.0324ZM71.3883 44.316C71.3883 48.4938 71.3883 52.6003 71.3883 56.7186C74.702 56.7186 77.9372 56.7186 81.258 56.7186C81.1224 56.302 81.0176 55.9378 80.8843 55.5855C79.5893 52.1004 77.9848 48.8033 75.1495 46.2704C74.0807 45.3158 72.8833 44.5802 71.3883 44.316ZM59.0356 56.6948C62.3565 56.6948 65.6107 56.6948 68.9244 56.6948C68.9244 52.7146 68.9244 48.7938 68.922 44.8754C68.922 44.7016 68.8935 44.5279 68.8792 44.3541C64.5514 44.9111 60.5401 51.2053 59.0356 56.6948ZM68.8863 87.6896C65.5512 87.6896 62.3017 87.6896 58.9237 87.6896C59.3618 88.8227 59.7236 89.8844 60.1783 90.9057C61.4685 93.8004 63.004 96.5524 65.5964 98.4997C66.5415 99.2091 67.6746 99.6685 68.8839 100.33C68.8863 95.9239 68.8863 91.8389 68.8863 87.6896ZM99.2502 67.1097C99.2502 66.805 99.2931 66.6217 99.2431 66.467C98.5289 64.2412 97.8005 62.0177 97.0839 59.7919C96.903 59.2301 96.565 59.0563 95.9603 59.0635C92.6585 59.0992 89.3567 59.0801 86.0548 59.0801C85.5597 59.0801 85.0645 59.0801 84.536 59.0801C84.8931 61.0465 85.2312 62.9081 85.5716 64.7863C86.1525 64.7268 86.7047 64.6268 87.257 64.6221C89.7257 64.6054 92.1943 64.6221 94.6629 64.6125C96.2127 64.6054 97.4886 65.2029 98.5456 66.3075C98.767 66.5336 98.9646 66.7812 99.2502 67.1097ZM91.0326 86.904C90.3803 86.904 89.728 86.8969 89.0758 86.9064C86.8309 86.9397 87.1499 86.5588 87.0999 88.8965C87.0856 89.5678 87.3665 89.7845 87.9974 89.7749C89.5971 89.7535 91.1992 89.7726 92.8013 89.7678C95.089 89.7583 94.7819 90.0225 94.8248 87.7062C94.8367 87.0635 94.5558 86.8826 93.9678 86.8992C92.9894 86.923 92.011 86.904 91.0326 86.904ZM81.8627 74.0776C82.1198 73.2754 81.6342 73.3539 81.2152 73.3539C78.13 73.3539 75.0448 73.3539 71.962 73.3563C71.7668 73.3563 71.5716 73.392 71.4026 73.4063C71.4026 74.0705 71.4026 74.6561 71.4026 75.356C72.8642 74.2752 74.4044 74.0205 76.0494 74.0657C77.9705 74.1181 79.8964 74.0776 81.8627 74.0776Z" fill="white"/>
</svg>
