<svg width="152" height="151" viewBox="0 0 152 151" fill="none" xmlns="http://www.w3.org/2000/svg">
<path d="M75.9997 138.174C110.973 138.174 139.325 110.087 139.325 75.4408C139.325 40.794 110.973 12.7073 75.9997 12.7073C41.0261 12.7073 12.6743 40.794 12.6743 75.4408C12.6743 110.087 41.0261 138.174 75.9997 138.174Z" fill="#D84498"/>
<path d="M76 150.73C34.0938 150.73 0 116.955 0 75.4405C0 33.926 34.0938 0.150879 76 0.150879C117.908 0.150879 152 33.926 152 75.4405C152.002 116.955 117.908 150.73 76 150.73ZM76 4.62402C36.5823 4.62402 4.51536 36.3913 4.51536 75.4405C4.51536 114.49 36.5823 146.257 76 146.257C115.418 146.257 147.485 114.488 147.485 75.4405C147.485 36.3934 115.418 4.62402 76 4.62402Z" fill="#D84498"/>
<path fill-rule="evenodd" clip-rule="evenodd" d="M49.9045 78.7108C51.3229 78.307 52.6874 77.8349 54.0913 77.5409C55.6525 77.2158 57.2407 76.9611 58.8309 76.839C61.4088 76.6423 63.6306 77.5513 65.5811 79.2429C66.4155 79.9656 67.3411 80.6013 68.2956 81.1603C72.3954 83.5664 76.5284 85.9144 80.6344 88.3101C82.6367 89.478 83.6161 91.2628 83.5684 93.5819C83.5581 94.085 83.4235 94.5861 83.3303 95.1949C84.552 94.9402 85.7301 94.6979 86.9062 94.4495C93.4949 93.056 100.082 91.6417 106.676 90.2772C109.842 89.6208 113.116 91.6935 113.861 94.7414C114.648 97.9674 112.878 101.212 109.664 102.109C103.154 103.922 96.6174 105.637 90.0888 107.391C85.5293 108.614 80.9471 109.757 76.4186 111.085C74.1037 111.762 71.8985 111.698 69.7803 110.695C67.0761 109.416 64.436 107.997 61.8002 106.579C59.2078 105.186 56.6858 103.633 53.818 102.856C52.5922 102.525 51.3001 102.432 49.9874 102.22C49.9149 102.606 49.8859 102.773 49.8528 102.939C49.4179 105.119 47.8111 106.453 45.5873 106.465C44.113 106.471 42.6367 106.478 41.1624 106.463C38.7812 106.438 37.0067 104.655 37.0047 102.272C36.9984 94.6897 36.9984 87.1071 37.0047 79.5266C37.0067 77.1682 38.686 75.3896 41.0589 75.3026C42.6346 75.2446 44.2166 75.257 45.7944 75.2984C47.6911 75.3481 49.1239 76.4601 49.7285 78.2636C49.772 78.4023 49.8362 78.5389 49.9045 78.7108ZM49.8838 99.6177C51.501 99.8952 52.9959 100.046 54.4329 100.419C57.4353 101.2 60.0816 102.796 62.7899 104.252C65.4279 105.668 68.072 107.076 70.7659 108.381C72.0476 109.002 73.4411 109.25 74.9092 108.855C83.7299 106.476 92.5569 104.127 101.382 101.767C103.825 101.113 106.271 100.471 108.708 99.7937C110.919 99.1808 112.048 97.0936 111.312 95.0417C110.66 93.2237 108.819 92.3602 106.589 92.8344C99.8475 94.2673 93.1077 95.6981 86.3679 97.1371C84.2994 97.5782 82.1915 97.9012 80.1809 98.5327C78.2428 99.1394 76.5015 99.0814 74.7539 98.0606C71.2711 96.0273 67.7718 94.0271 64.2828 92.0062C64.0178 91.8529 63.7403 91.6852 63.5395 91.4595C63.1274 90.9978 63.1191 90.4553 63.4711 89.9625C63.8149 89.4779 64.3077 89.2605 64.8957 89.5069C65.227 89.6457 65.5397 89.8341 65.8523 90.0142C69.2564 91.9772 72.6543 93.9484 76.0604 95.9051C77.8163 96.9135 79.7295 96.4745 80.6468 94.8739C81.5724 93.2609 80.9988 91.4202 79.2326 90.3932C77.1102 89.1591 74.9526 87.983 72.8593 86.7013C69.7803 84.8149 66.4155 83.38 63.672 80.9553C62.0921 79.5577 60.2182 79.1891 58.1787 79.361C55.5552 79.5825 53.0746 80.3694 50.5878 81.1645C50.0143 81.3488 49.8631 81.6304 49.8652 82.2143C49.89 87.8049 49.8797 93.3955 49.8797 98.9882C49.8838 99.2429 49.8838 99.4976 49.8838 99.6177ZM39.4811 90.8653C39.4811 94.5654 39.477 98.2656 39.4832 101.966C39.4853 103.328 40.1106 103.956 41.4751 103.968C42.7941 103.978 44.1151 103.98 45.4341 103.968C46.751 103.954 47.3908 103.324 47.3929 102.009C47.3991 94.582 47.4012 87.1568 47.3929 79.7295C47.3908 78.4437 46.78 77.8474 45.4776 77.8329C44.2104 77.8163 42.9411 77.8267 41.6739 77.8287C40.005 77.8329 39.4853 78.3484 39.4832 79.9987C39.479 83.6202 39.479 87.2438 39.4811 90.8653Z" fill="white"/>
<path fill-rule="evenodd" clip-rule="evenodd" d="M81.1501 46.4758C82.5767 45.9105 83.8522 45.426 85.1049 44.8877C85.3182 44.7965 85.5439 44.4901 85.5708 44.2603C85.6412 43.6991 85.5833 43.1235 85.6081 42.5562C85.6557 41.4898 86.2997 40.6657 87.3474 40.471C89.6561 40.0424 91.9814 40.0445 94.2881 40.4752C95.3151 40.6678 95.9798 41.5374 96.0088 42.5851C96.0274 43.2809 96.0129 43.9787 96.0129 44.6557C97.4706 45.2624 98.889 45.8526 100.456 46.5048C100.835 46.0927 101.264 45.571 101.748 45.1071C102.701 44.1961 103.856 44.0491 104.823 44.9249C106.389 46.3433 107.89 47.8445 109.308 49.4078C110.176 50.3644 110.112 51.642 109.099 52.4557C107.848 53.46 107.625 54.4145 108.561 55.719C108.867 56.1455 109.07 56.7005 109.151 57.2243C109.283 58.1002 109.764 58.299 110.538 58.1934C110.843 58.1519 111.159 58.1809 111.468 58.1892C112.737 58.2265 113.752 58.974 113.814 60.2143C113.919 62.3491 113.917 64.4984 113.814 66.6331C113.754 67.8569 112.789 68.7555 111.551 68.6106C109.851 68.4118 109.083 69.0702 108.755 70.6501C108.623 71.2899 108.184 71.8614 107.958 72.4888C107.877 72.7124 107.933 73.0748 108.072 73.2653C108.36 73.6566 108.757 73.9672 109.095 74.3234C110.029 75.3131 110.194 76.4747 109.302 77.4624C107.886 79.0299 106.38 80.5248 104.815 81.9453C103.892 82.7839 102.573 82.7487 101.829 81.7693C100.75 80.3509 99.6924 80.3654 98.3672 81.2682C98.0359 81.4959 97.6073 81.5871 97.2201 81.7258C96.8349 81.8645 96.4415 81.9846 96.0191 82.1233C96.0191 82.846 96.0336 83.5438 96.015 84.2395C95.986 85.3866 95.2364 86.2521 94.0976 86.4281C91.911 86.7677 89.7183 86.7698 87.5296 86.4302C86.3825 86.2521 85.6495 85.426 85.606 84.2519C85.5791 83.5562 85.6019 82.8584 85.6019 82.2352C84.2104 81.6243 82.8977 81.0321 81.5663 80.4814C81.4172 80.4192 81.1314 80.5228 80.9906 80.6449C80.5807 80.999 80.2225 81.4131 79.8228 81.7817C78.9345 82.5996 77.8081 82.7073 76.8494 82.0053C75.0646 80.6967 73.5075 79.1458 72.2071 77.3547C71.5238 76.4126 71.5176 75.1723 72.4308 74.4725C73.8512 73.3854 73.905 72.3149 72.9546 70.9379C72.644 70.4865 72.4991 69.8964 72.3687 69.3477C72.2341 68.7741 71.9276 68.6189 71.3789 68.652C70.8405 68.6851 70.2898 68.6706 69.7535 68.6064C68.7078 68.4801 67.8402 67.7409 67.8009 66.7098C67.7222 64.5211 67.7119 62.3242 67.8071 60.1377C67.8568 58.9968 68.89 58.0733 70.0599 58.2348C71.7765 58.4729 72.5157 57.7627 72.849 56.2014C72.9857 55.5616 73.4247 54.9922 73.6524 54.3627C73.7311 54.1412 73.6731 53.7747 73.5303 53.5883C73.1845 53.1411 72.7289 52.7808 72.3562 52.3522C71.6108 51.495 71.5404 50.4141 72.2071 49.4989C73.5096 47.7078 75.0646 46.1569 76.8474 44.8462C77.8123 44.1381 78.8579 44.2002 79.7566 45.0119C80.268 45.4778 80.7173 46.0182 81.1501 46.4758ZM111.447 60.6988C110.424 60.6988 109.548 60.6905 108.675 60.7009C107.89 60.7091 107.482 60.3199 107.205 59.591C106.558 57.8848 105.867 56.1952 105.115 54.5325C104.792 53.8182 104.788 53.2508 105.355 52.7125C105.991 52.1079 106.635 51.5094 107.399 50.7951C106.035 49.4326 104.769 48.1716 103.459 46.863C102.732 47.6126 102.146 48.2358 101.541 48.8363C100.924 49.4492 100.446 49.4409 99.6592 49.0889C98.0172 48.3559 96.3587 47.6457 94.6711 47.0266C93.8967 46.7429 93.5054 46.3495 93.5282 45.5233C93.5509 44.6557 93.5344 43.784 93.5344 42.8233C91.6646 42.8233 89.9025 42.8233 88.0908 42.8233C88.0908 43.8109 88.099 44.664 88.0887 45.515C88.0783 46.4013 87.7698 46.6891 86.9312 47.0121C85.252 47.6581 83.5893 48.3497 81.9473 49.0868C81.1542 49.443 80.6863 49.4554 80.0651 48.8404C79.446 48.2275 78.8496 47.5919 78.1374 46.8568C76.8018 48.1985 75.5553 49.4492 74.3482 50.6605C74.4579 50.8696 74.4724 50.9255 74.5055 50.9607C75.0501 51.5136 75.5988 52.0623 76.1434 52.6172C76.8764 53.3668 76.8453 53.7229 76.4043 54.6795C75.6837 56.2428 75.0273 57.8393 74.431 59.4523C74.0914 60.3758 73.8243 60.6864 72.8407 60.6988C71.9918 60.7091 71.1429 60.7009 70.2007 60.7009C70.2007 62.5499 70.2007 64.3099 70.2007 66.1321C71.1532 66.1321 71.9773 66.1238 72.8014 66.1341C73.7684 66.1466 74.0914 66.4882 74.4206 67.3703C75.0314 69.0061 75.692 70.6273 76.4208 72.2155C76.8494 73.1514 76.8805 73.5221 76.1164 74.2695C75.5284 74.8431 74.9093 75.3856 74.1866 76.0503C75.5739 77.4313 76.8246 78.6758 78.1394 79.9844C78.8828 79.2224 79.4915 78.5909 80.1065 77.9656C80.6262 77.4376 81.1708 77.4086 81.8603 77.7192C83.5458 78.4791 85.2561 79.1934 86.9851 79.8519C87.718 80.1314 88.1011 80.5373 88.0908 81.3199C88.0804 82.1937 88.0887 83.0675 88.0887 84.0242C89.9398 84.0242 91.7081 84.0242 93.5323 84.0242C93.5323 83.08 93.5282 82.2538 93.5323 81.4297C93.5364 80.4234 93.818 80.1583 94.7374 79.8125C96.396 79.1852 98.0338 78.5019 99.6489 77.773C100.506 77.3858 100.891 77.363 101.581 78.065C102.173 78.6696 102.726 79.3135 103.401 80.0548C104.794 78.6592 106.043 77.4086 107.385 76.0648C106.664 75.3835 106.055 74.8265 105.469 74.2468C104.718 73.5013 104.751 73.139 105.192 72.1865C105.917 70.6253 106.583 69.0309 107.178 67.4158C107.54 66.4323 107.813 66.1279 108.894 66.1238C109.712 66.1196 110.53 66.1238 111.447 66.1238C111.447 64.2809 111.447 62.5582 111.447 60.6988Z" fill="white"/>
<path fill-rule="evenodd" clip-rule="evenodd" d="M45.5231 82.289C45.5334 83.3947 44.5789 84.3699 43.4649 84.3927C42.3592 84.4155 41.3819 83.4651 41.357 82.347C41.3301 81.2019 42.2288 80.2556 43.3655 80.2308C44.5478 80.2039 45.5127 81.1253 45.5231 82.289Z" fill="white"/>
<path fill-rule="evenodd" clip-rule="evenodd" d="M90.9108 51.0001C97.8536 51.1098 103.415 56.7833 103.264 63.6018C103.109 70.6584 97.4601 75.984 90.2586 75.8701C83.7217 75.7645 78.2139 69.9233 78.334 63.2249C78.4582 56.3961 84.1192 50.8924 90.9108 51.0001ZM80.856 63.374C80.8311 68.8363 85.2684 73.3502 90.6996 73.3916C96.2074 73.433 100.69 69.0019 100.715 63.4941C100.742 57.9553 96.3586 53.5304 90.8156 53.4993C85.3678 53.4682 80.8808 57.9159 80.856 63.374Z" fill="white"/>
<path fill-rule="evenodd" clip-rule="evenodd" d="M89.3205 64.9043C90.9087 63.0801 92.3602 61.3698 93.8717 59.7154C94.1844 59.3737 94.7269 59.0486 95.1617 59.0528C96.1556 59.059 96.6401 60.2786 95.9713 61.0633C94.1305 63.225 92.2566 65.3619 90.3662 67.4822C89.8133 68.1034 89.1404 68.0951 88.5254 67.5091C87.5543 66.5815 86.6059 65.629 85.6742 64.6641C85.1337 64.105 85.14 63.3576 85.6307 62.8627C86.1235 62.3657 86.8772 62.3492 87.4301 62.8917C88.0719 63.5191 88.6641 64.1982 89.3205 64.9043Z" fill="white"/>
</svg>
