<svg width="51" height="47" viewBox="0 0 51 47" fill="none" xmlns="http://www.w3.org/2000/svg">
<path fill-rule="evenodd" clip-rule="evenodd" d="M0.862818 45.3568C0.862818 42.3033 0.862818 39.2503 0.862819 36.1968C1.27031 35.014 2.14124 34.5908 3.3433 34.5406C3.92976 34.5161 4.54944 34.3185 5.07877 34.0504C6.53966 33.3106 7.31616 31.9756 7.88396 30.513C8.71117 28.3823 8.99799 26.1414 9.16063 23.8801C9.19328 23.4236 9.20669 22.9654 9.23117 22.4693C9.0009 22.4693 8.82602 22.4693 8.65113 22.4693C6.89993 22.4693 5.14814 22.4414 3.39752 22.4787C2.16515 22.5055 1.2843 22.0688 0.861653 20.8656C0.861653 14.7591 0.861654 8.65266 0.861654 2.54619C1.3391 1.36103 2.22694 0.979193 3.47972 0.989104C8.9088 1.03108 14.339 1.00659 19.7687 1.00951C20.024 1.00951 20.2875 1.00485 20.5336 1.06314C21.5864 1.3109 22.1338 2.10897 22.1344 3.37865C22.1367 8.50285 22.1413 13.6276 22.1326 18.7518C22.1279 21.5133 22.0696 24.2713 21.6925 27.0158C21.2465 30.2571 20.4875 33.4056 19.0715 36.3711C17.7085 39.2253 15.8547 41.69 13.3066 43.6039C10.4799 45.727 7.26893 46.7198 3.77119 46.8853C3.69074 46.8894 3.60971 46.8818 3.53043 46.89C2.26891 47.027 1.34667 46.5735 0.862818 45.3568Z" fill="#ACADB0"/>
<path fill-rule="evenodd" clip-rule="evenodd" d="M50.2305 2.54663C50.2305 9.29612 50.2305 16.0456 50.2305 22.7945C50.206 22.9513 50.1739 23.1075 50.1582 23.2649C50.0194 24.6372 49.9198 26.0153 49.7396 27.3824C49.2791 30.8714 48.3848 34.2403 46.6832 37.3445C43.3492 43.4283 38.2956 46.7692 31.2628 46.891C29.8106 46.9161 28.97 46.1052 28.9618 44.6554C28.9473 42.0525 28.9566 39.4496 28.9589 36.8467C28.9595 36.1611 29.1461 35.5525 29.69 35.085C30.1744 34.6682 30.7667 34.6548 31.3531 34.5533C32.0066 34.4402 32.6899 34.3108 33.274 34.017C34.7174 33.2912 35.4881 31.9697 36.0611 30.5245C36.8318 28.5821 37.1407 26.54 37.3139 24.4728C37.3681 23.8234 37.3972 23.1717 37.4416 22.4692C37.1769 22.4692 36.9874 22.4692 36.798 22.4692C34.9506 22.4692 33.1026 22.4745 31.2552 22.4669C30.1365 22.4622 29.3571 21.962 29.086 21.0579C28.9957 20.7559 28.9636 20.4259 28.963 20.1088C28.956 14.5334 28.9578 8.95858 28.9584 3.38317C28.9584 3.27066 28.956 3.15757 28.9654 3.04564C29.0709 1.75089 29.8707 1.00821 31.1759 1.00762C36.7991 1.00529 42.4229 1.00588 48.0461 1.00996C48.2682 1.00996 48.4944 1.03503 48.7113 1.08283C49.5105 1.26063 49.9133 1.86108 50.2305 2.54663Z" fill="#ACADB0"/>
</svg>
