<?xml version="1.0" encoding="utf-8"?>
<!-- Generator: Adobe Illustrator 16.0.0, SVG Export Plug-In . SVG Version: 6.00 Build 0)  -->
<!DOCTYPE svg PUBLIC "-//W3C//DTD SVG 1.1//EN" "http://www.w3.org/Graphics/SVG/1.1/DTD/svg11.dtd">
<svg version="1.1" id="Layer_1" xmlns="http://www.w3.org/2000/svg" xmlns:xlink="http://www.w3.org/1999/xlink" x="0px" y="0px"
	 width="1080px" height="1080px" viewBox="0 0 1080 1080" style="enable-background:new 0 0 1080 1080;" xml:space="preserve">
<g>
	<path style="fill-rule:evenodd;clip-rule:evenodd;" d="M466.09,456.99c6.72,0,12.22,0,18.8,0c0-4.31,0-8.1,0-11.88
		c0-21.11,0-42.22,0-63.33c0-38.97,13.43-56.62,51.76-66.89c0-3.45-0.94-7.56,0.27-10.88c1.17-3.19,4.57-5.55,6.99-8.28
		c2.37,2.5,7.02,5.3,6.74,7.46c-1.36,10.42,3.78,13.33,12.67,17.02c22.61,9.39,34.23,27.47,34.82,52.28
		c0.33,13.93,1.08,27.85,1.31,41.78c0.23,13.92,0.05,27.85,0.05,42.51c6.41,0,12.12,0,18.96,0c0-14.51,0.47-28.73-0.11-42.91
		c-0.98-24.07,6.35-43.75,27.28-57.35c1.7-1.1,2.58-4.93,2.33-7.33c-0.95-9.07,2.16-16.28,8.64-22.36
		c4.69-4.4,11.62-6.03,13.32-14.18c0.93-4.47,8.71-3.14,11.54,1.22c2.36,3.63,5.18,7.23,8.55,9.88c8.29,6.52,13,14.26,12.18,25.24
		c-0.2,2.76,1.41,6.89,3.57,8.4c17.52,12.19,25.97,28.79,25.93,49.99c-0.06,30.92-0.01,61.84-0.01,92.76c0,2.87,0,5.74,0,9.5
		c6.92-3.14,11.26-5.53,9.09-14c-2.15-8.37,2.44-15.58,8.74-21.23c4.58-4.1,10.68-6.04,12.61-13.5c1.32-5.1,10.71-4.21,11.65,1.26
		c1.02,5.97,5.21,7.21,8.92,9.83c8.96,6.31,13.49,14.57,11.85,25.96c-0.36,2.53,0.98,6.43,2.92,7.98
		c14.29,11.45,20.58,26.16,20.53,44.34c-0.19,70.76-0.07,141.52-0.07,212.29c0,3.53,0,7.07,0,11.17c3.08,0.48,6.16,0.12,7.99,1.46
		c2.49,1.82,5.3,4.84,5.53,7.56c0.16,1.86-3.55,4.74-6.1,5.91c-2.23,1.02-5.26,0.33-7.93,0.33c-183.45,0.01-366.89,0.02-550.34-0.09
		c-5.41,0-13.3,2.73-14.2-6.27c-0.91-9.06,7.29-7.34,13.78-8.61c0-3.62,0-7.09,0-10.56c0-70.17,0.2-140.34-0.13-210.5
		c-0.09-19.41,5.36-35.53,21.34-47.49c1.71-1.28,2.59-5.09,2.22-7.46c-1.55-9.79,1.64-17.54,8.96-23.8
		c4.7-4.01,10.66-6.11,12.69-13.5c1.39-5.05,8.96-3.46,11.87,1.7c1.83,3.25,4.3,6.59,7.33,8.62c9.75,6.51,13.86,15.98,12.97,27.31
		c-0.3,3.76,3.39,7.84,5.25,11.78c1.25-0.35,2.49-0.7,3.74-1.05c0-2.71,0-5.41,0-8.12c0-30.92,0.13-61.84-0.04-92.76
		c-0.12-21.54,8.09-38.51,26.03-50.81c2.06-1.41,3.9-5.22,3.6-7.64c-1.45-11.86,3.95-19.82,12.93-26.51
		c2.97-2.21,4.85-5.84,7.57-8.48c1.95-1.88,4.51-4.46,6.71-4.38c2.21,0.08,4.49,2.9,6.44,4.82c2.51,2.48,4.33,5.8,7.12,7.8
		c9.14,6.54,14.33,14.62,13.37,26.38c-0.22,2.68,1.66,6.68,3.86,8.22c16.93,11.8,25.39,27.89,25.58,48.36
		C466.21,422.81,466.09,439.67,466.09,456.99z M352.18,774.31c0-63.09,0-125.04,0-186.75c-24.03,0-47.36,0-70.48,0
		c0,62.62,0,124.56,0,186.75C305.55,774.31,328.64,774.31,352.18,774.31z M732.28,587.27c0,62.69,0,124.64,0,186.83
		c23.9,0,47.21,0,70.74,0c0-62.58,0-124.51,0-186.83C779.3,587.27,756.19,587.27,732.28,587.27z M367.85,620.36
		c0,51.64,0,102.58,0,153.82c27.97,0,55.42,0,83.2,0c0-51.49,0-102.42,0-153.82C423.26,620.36,396.02,620.36,367.85,620.36z
		 M716.5,774.24c0-51.52,0-102.66,0-153.87c-27.98,0-55.21,0-82.78,0c0,51.63,0,102.77,0,154.34c26.59,0,52.43,0.01,78.26-0.02
		C713.41,774.7,714.83,774.42,716.5,774.24z M475.61,572.17c4.6-45.49,27.89-71.53,64.12-72.78c16.74-0.57,31.77,3.97,44.8,14.44
		c18.46,14.83,25.79,34.89,25.67,57.79c6.78,2.31,8.36-0.34,8.33-6.16c-0.18-27.64-0.08-55.28-0.08-82.93c0-3.18,0-6.35,0-9.74
		c-51.27,0-101.34,0-151.74,0c0,33.44,0,66.26,0,99.38C469.93,572.17,472.54,572.17,475.61,572.17z M450.83,572.02
		c0-33.45,0-66.44,0-99.1c-28.18,0-55.6,0-82.84,0c0,33.52,0,66.28,0,98.9c6.15,0,11.61,0,17.6,0c0-11.91,0.18-23.17-0.06-34.42
		c-0.17-8,3.46-11.34,11.31-11.1c8,0.25,16.02,0.01,24.03,0.06c10.44,0.08,12.39,2.02,12.44,12.49c0.06,11.12,0.01,22.25,0.01,33.16
		C440.14,572.02,445.39,572.02,450.83,572.02z M651.23,572.04c0-11.22-0.03-21.86,0.01-32.49c0.04-11.6,1.64-13.15,13.56-13.19
		c7.13-0.02,14.27-0.04,21.4,0.01c10.99,0.07,12.72,1.84,12.76,13.16c0.04,10.85,0.01,21.7,0.01,32.22c6.99,0,12.45,0,17.81,0
		c0-33.35,0-65.96,0-99.07c-27.92,0-55.37,0-83.28,0c0,33.31,0,66.12,0,99.37C639.27,572.04,644.52,572.04,651.23,572.04z
		 M466.11,774.15c12.72,0,24.14,0,36.6,0c0-17.4-0.24-34.24,0.13-51.06c0.14-6.12,0.94-12.48,2.94-18.22
		c1.62-4.66,1.05-7.29-2.11-10.93c-17.52-20.17-18.37-46.42-2.64-67.92c1.14-1.55,2.15-3.2,4.1-6.12c-10.86,0-20.3,0.43-29.68-0.14
		c-7.39-0.45-9.56,2.02-9.5,9.46c0.33,43.9,0.16,87.81,0.16,131.72C466.11,765.04,466.11,769.14,466.11,774.15z M581.07,620.38
		c2.5,3.58,4.21,5.89,5.76,8.3c10.59,16.44,12.57,33.9,4.33,51.64c-3.41,7.34-11.6,13.05-13.22,20.46
		c-1.62,7.41,3.17,15.99,3.5,24.12c0.66,16.21,0.2,32.47,0.2,49.18c12.68,0,24.31,0,36.17,0c0-51.52,0-102.37,0-153.7
		C605.66,620.38,594.18,620.38,581.07,620.38z M594.72,572.19c2.42-21.52-7.61-41.82-25.8-51.63c-19.56-10.55-39.05-9.65-57.06,3.5
		c-16.05,11.72-22.32,28.16-21.1,48.13C525.96,572.19,560.05,572.19,594.72,572.19z M583.17,391.52c0-9.79,1.08-18.49-0.21-26.82
		c-3.76-24.28-28.05-39.56-51.85-33.39c-24.73,6.41-37.09,30.47-30.43,60.21c2.48,0,5.12,0,7.75,0
		C533.08,391.52,557.71,391.52,583.17,391.52z M567.77,688.39c10.14-9.16,14.72-20.14,13.73-33.4
		c-1.16-15.66-13.36-30.01-28.57-33.81c-16.57-4.14-33.63,2.54-42.62,16.69c-8.55,13.47-7.89,32.13,2.11,44.1
		c1.79,2.14,6.56,4.54,8.18,3.64C536.89,676.55,552.36,678.23,567.77,688.39z M566.97,774.27c0-20.08,0.56-39.05-0.21-57.98
		c-0.47-11.6-11.66-21.18-23.29-22.02c-11.12-0.81-24.65,8.08-25.36,19.39c-1.25,19.98-0.35,40.09-0.35,60.61
		C534.2,774.27,550.1,774.27,566.97,774.27z M451.47,406.85c0.32-18.1-7.25-31.01-22.05-38.77c-15.4-8.09-31.18-7-45.33,3.46
		c-11.59,8.56-17.4,20.28-16.45,35.32C395.89,406.85,423.15,406.85,451.47,406.85z M716.87,406.72
		c0.46-25.09-19.11-44.81-42.6-43.92c-24.29,0.92-43.05,21.06-40.37,43.92C661.32,406.72,688.8,406.72,716.87,406.72z
		 M499.87,456.86c28.56,0,56.59,0,84.82,0c0-17.17,0-33.67,0-50.38c-28.56,0-56.59,0-84.82,0
		C499.87,423.65,499.87,440.15,499.87,456.86z M367.99,421.88c0,12.3,0,23.7,0,34.98c28.06,0,55.45,0,82.86,0
		c0-12.02,0-23.34,0-34.98C422.96,421.88,395.81,421.88,367.99,421.88z M633.41,456.83c28.4,0,55.77,0,83.1,0
		c0-12.04,0-23.38,0-34.66c-28.12,0-55.51,0-83.1,0C633.41,434,633.41,445.15,633.41,456.83z M801.73,538.64
		c-2.93-16.11-17.16-27.75-33.7-28.08c-16.4-0.33-31.51,11.81-34.45,28.08C756.32,538.64,778.97,538.64,801.73,538.64z
		 M351.27,538.81c-4.43-17.8-20.07-29.68-36.1-28.13c-13.49,1.3-30.57,10.01-32,28.13C305.68,538.81,328.17,538.81,351.27,538.81z
		 M282.29,571.97c23.09,0,46.38,0,69.89,0c0-6.22,0-11.92,0-18.45c-19.35,0-38,0-56.65,0c-16.03,0-16.23,0.23-14.22,16.51
		C281.37,570.57,281.81,571.05,282.29,571.97z M732.13,571.79c24.26,0,47.53,0,70.89,0c0-6.21,0-11.73,0-17.67
		c-23.89,0-47.17,0-70.89,0C732.13,560.22,732.13,565.73,732.13,571.79z M666.31,541.14c0,10.89,0,20.77,0,30.89
		c6.13,0,11.62,0,17.33,0c0-10.57,0-20.66,0-30.89C677.56,541.14,672.3,541.14,666.31,541.14z M400.75,571.96c6.26,0,11.76,0,17.6,0
		c0-10.41,0-20.3,0-30.67c-6,0-11.47,0-17.6,0C400.75,551.5,400.75,561.39,400.75,571.96z M689.16,348.61
		c-2.59-4.85-3.69-10.19-6.75-11.79c-3.83-2-9.75-2.29-13.88-0.82c-4.71,1.67-7.47,6.47-5.16,12.61
		C671.19,348.61,678.76,348.61,689.16,348.61z M395.04,348.43c11.13,0,18.68,0,29.74,0c-3.94-5.61-5.79-10.8-9.33-12.53
		c-3.53-1.73-9.5-1.32-13.02,0.63C399.27,338.29,397.97,343.41,395.04,348.43z M302.65,496.49c10.44,0,18.22,0,29.47,0
		c-3.77-5.56-5.52-10.92-8.97-12.48c-3.84-1.74-9.96-1.36-13.74,0.64C306.32,486.28,305.22,491.67,302.65,496.49z M779.1,496.57
		c0.89-0.73,1.78-1.47,2.68-2.2c-2.62-3.65-4.52-8.98-8.06-10.5c-3.87-1.67-9.98-1.14-13.76,0.92c-3.01,1.64-3.97,7.02-6.37,11.78
		C763.91,496.57,771.5,496.57,779.1,496.57z M466.76,587.06c0,6.02,0,11.71,0,17.69c4.61,0,8.62,0,12.85,0c0-6.19,0-11.86,0-17.69
		C475.33,587.06,471.8,587.06,466.76,587.06z M604.66,604.55c5.06,0,9.05,0,13.18,0c0-6.18,0-11.64,0-17.22c-4.65,0-8.68,0-13.18,0
		C604.66,593.23,604.66,598.69,604.66,604.55z M507.34,604.7c0-5.97,0-11.41,0-17.33c-4.05,0-7.69,0-11.53,0c0,6.09,0,11.72,0,17.33
		C500.02,604.7,503.43,604.7,507.34,604.7z M416.39,587.26c0,6.06,0,11.73,0,17.51c3.8,0,6.95,0,10.46,0c0-6.12,0-11.77,0-17.51
		C422.99,587.26,419.83,587.26,416.39,587.26z M588.91,604.83c0-6.35,0-11.8,0-17.38c-4.32,0-8,0-11.83,0c0,6.05,0,11.51,0,17.38
		C581.15,604.83,584.62,604.83,588.91,604.83z M561.76,587.5c-4.59,0-8.23,0-11.85,0c0,6.08,0,11.52,0,17.22c4.14,0,7.78,0,11.85,0
		C561.76,598.77,561.76,593.34,561.76,587.5z M534.52,604.81c0-6.23,0-11.88,0-17.33c-4.3,0-7.95,0-11.64,0c0,6.04,0,11.48,0,17.33
		C526.82,604.81,530.26,604.81,534.52,604.81z M390.82,587.14c0,6.26,0,11.7,0,17.61c3.53,0,6.6,0,10.06,0c0-6.03,0-11.7,0-17.61
		C397.42,587.14,394.54,587.14,390.82,587.14z M682.02,587.29c0,6.06,0,11.71,0,17.15c3.92,0,7.21,0,10.29,0c0-6.2,0-11.6,0-17.15
		C688.5,587.29,685.41,587.29,682.02,587.29z M666.72,604.92c0-6.33,0-11.79,0-17.35c-3.76,0-7.06,0-10.13,0c0,6.16,0,11.62,0,17.35
		C660.15,604.92,663.04,604.92,666.72,604.92z M367.77,605.67c2.98-0.87,7.07-1.26,7.22-2.24c0.73-4.84,0.81-9.89,0.15-14.74
		c-0.13-0.93-4.57-1.28-7.37-1.98C367.77,593.54,367.77,599.01,367.77,605.67z M716.77,604.74c0-6.21,0-11.64,0-17.28
		c-3.23,0-5.97,0-8.88,0c0,5.99,0,11.41,0,17.28C710.97,604.74,713.49,604.74,716.77,604.74z M442.31,604.38c2.8,0,5.72,0,8.68,0
		c0-5.99,0-11.47,0-17.03c-3.14,0-5.68,0-8.68,0C442.31,593.03,442.31,598.29,442.31,604.38z M633.51,587.36c0,6.15,0,11.6,0,16.95
		c7.11,2.53,8.38-1.28,7.67-6.42C640.57,593.46,644.73,585.39,633.51,587.36z"/>
	<path style="fill-rule:evenodd;clip-rule:evenodd;" d="M340.56,719.73c0.01,6.53-0.11,13.07,0.05,19.6
		c0.17,6.99-2.74,10.5-10.04,10.33c-9.2-0.22-18.42-0.17-27.62-0.01c-6.71,0.12-9.9-2.97-9.89-9.62c0.02-13.96,0-27.92,0.02-41.88
		c0.01-6.08,2.8-9.47,9.16-9.45c9.8,0.03,19.6,0.01,29.4,0c5.84,0,8.82,2.97,8.88,8.74C340.62,704.88,340.55,712.3,340.56,719.73z
		 M325.64,734.83c0-10.69,0-20.86,0-31.44c-6.08,0-11.57,0-17.58,0c0,10.64,0,20.85,0,31.44
		C314.13,734.83,319.62,734.83,325.64,734.83z"/>
	<path style="fill-rule:evenodd;clip-rule:evenodd;" d="M326.8,612.4c-4.45,3.35-7.08,6.87-9.5,6.73c-2.53-0.15-4.85-3.82-7.26-5.96
		c2.32-2.55,4.27-6.46,7.07-7.19C319.11,605.45,322.22,609.19,326.8,612.4z"/>
	<path style="fill-rule:evenodd;clip-rule:evenodd;" d="M791.46,719.47c0,7.13,0.07,14.25-0.02,21.38
		c-0.08,5.72-2.95,8.77-8.85,8.74c-10.1-0.04-20.19,0.01-30.29-0.04c-5.49-0.03-8.2-3.06-8.23-8.37
		c-0.09-14.55-0.08-29.1-0.03-43.65c0.02-5.73,2.92-8.82,8.8-8.82c9.8,0,19.6,0.03,29.4-0.01c6.33-0.03,9.22,3.28,9.25,9.38
		c0.04,7.13,0.01,14.25,0.01,21.38C791.48,719.47,791.47,719.47,791.46,719.47z M776.44,734.96c0-11,0-21.2,0-31.45
		c-6.14,0-11.65,0-17.44,0c0,10.72,0,20.89,0,31.45C764.91,734.96,770.17,734.96,776.44,734.96z"/>
	<path style="fill-rule:evenodd;clip-rule:evenodd;" d="M777.41,613.22c-4.56,2.95-7.65,6.46-9.72,5.93
		c-2.81-0.71-4.84-4.51-7.2-6.99c2.65-2.2,5.12-5.76,8.01-6.14C770.59,605.74,773.24,609.67,777.41,613.22z"/>
	<path style="fill-rule:evenodd;clip-rule:evenodd;" d="M432.32,719.53c0,7.13,0,14.25,0,21.38c0,5.87-2.94,8.71-8.8,8.68
		c-9.8-0.03-19.6-0.02-29.4,0c-5.72,0.01-8.97-2.5-8.97-8.51c0.01-14.55,0.01-29.1-0.02-43.65c-0.01-5.34,2.45-8.57,7.92-8.64
		c10.39-0.15,20.79-0.12,31.18-0.03c5.49,0.04,8.04,3.2,8.08,8.5C432.36,704.68,432.32,712.11,432.32,719.53z M417.46,703.51
		c-6.14,0-11.56,0-17.36,0c0,10.66,0,20.78,0,31.27c6.07,0,11.48,0,17.36,0C417.46,724.28,417.46,714.36,417.46,703.51z"/>
	<path style="fill-rule:evenodd;clip-rule:evenodd;" d="M409.15,663c-3.58-4.58-7.39-7.36-7.05-9.51c0.44-2.84,4.12-5.18,6.41-7.74
		c2.36,2.14,6.48,4.16,6.64,6.46C415.34,654.95,412.16,657.95,409.15,663z"/>
	<path style="fill-rule:evenodd;clip-rule:evenodd;" d="M696.54,719.54c0,7.13,0.03,14.25-0.01,21.38c-0.03,5.83-2.97,8.7-8.84,8.67
		c-9.8-0.04-19.6-0.04-29.4,0.01c-5.77,0.03-8.99-2.6-9.01-8.51c-0.05-14.55-0.05-29.1-0.02-43.65c0.01-5.81,2.99-8.74,8.84-8.73
		c9.8,0.01,19.6,0.04,29.4-0.01c6.41-0.03,9.09,3.37,9.07,9.46c-0.03,7.13-0.01,14.25-0.01,21.38
		C696.56,719.54,696.55,719.54,696.54,719.54z M664.04,734.67c6.46,0,11.9,0,17.34,0c0-10.83,0-20.95,0-31.05
		c-6.19,0-11.61,0-17.34,0C664.04,714.18,664.04,724.08,664.04,734.67z"/>
	<path style="fill-rule:evenodd;clip-rule:evenodd;" d="M673.39,663.07c-3.6-4.6-7.36-7.35-7.06-9.53c0.4-2.83,4.03-5.22,6.26-7.79
		c2.39,2.12,6.52,4.1,6.71,6.4C679.53,654.89,676.38,657.92,673.39,663.07z"/>
	<path style="fill-rule:evenodd;clip-rule:evenodd;" d="M523.48,431.36c0,4.16,0.88,8.59-0.28,12.39c-0.92,2.98-4.37,5.18-6.69,7.73
		c-2.38-2.48-6.52-4.77-6.82-7.48c-0.9-8.21-0.91-16.66,0.02-24.87c0.3-2.64,4.59-4.83,7.05-7.23c2.23,2.33,5.61,4.32,6.4,7.07
		c1.11,3.84,0.28,8.23,0.28,12.39C523.45,431.36,523.47,431.36,523.48,431.36z"/>
	<path style="fill-rule:evenodd;clip-rule:evenodd;" d="M575.06,431.97c0,4.45,0.88,9.16-0.32,13.26c-0.75,2.55-4.5,5.49-7.16,5.77
		c-1.9,0.2-5.91-3.58-6.09-5.82c-0.73-8.85-0.81-17.83-0.01-26.67c0.22-2.4,4.4-6.17,6.73-6.15c2.34,0.02,5.92,3.65,6.65,6.33
		c1.13,4.15,0.3,8.83,0.3,13.28C575.12,431.97,575.09,431.97,575.06,431.97z"/>
	<path style="fill-rule:evenodd;clip-rule:evenodd;" d="M535.24,431.66c0-4.42-0.84-9.08,0.31-13.18c0.73-2.61,4.41-6.08,6.77-6.08
		c2.34,0,6.48,3.7,6.69,6.07c0.8,8.77,0.79,17.7-0.02,26.47c-0.22,2.35-4.39,6.02-6.74,6.01c-2.34,0-5.98-3.5-6.7-6.11
		C534.4,440.73,535.24,436.08,535.24,431.66z"/>
	<path style="fill-rule:evenodd;clip-rule:evenodd;" d="M409.66,431.7c2.08,0.01,4.6-0.75,6.13,0.17c2.93,1.74,5.29,4.43,7.89,6.72
		c-2.69,2.49-5.01,6.11-8.18,7.17c-3.73,1.25-8.47,1.16-12.28,0.01c-2.99-0.9-5.22-4.29-7.79-6.57c2.67-2.5,5.08-5.38,8.1-7.34
		C405,430.91,407.59,431.7,409.66,431.7z"/>
	<path style="fill-rule:evenodd;clip-rule:evenodd;" d="M674.58,445.97c-2.37,0-5.26,0.85-7-0.2c-2.66-1.61-6.27-4.54-6.26-6.89
		c0.01-2.38,3.57-6.05,6.24-6.81c4.12-1.17,9.08-1.27,13.18-0.09c3.19,0.93,5.61,4.51,8.38,6.91c-2.77,2.39-5.31,5.15-8.4,7
		c-1.53,0.92-4.06,0.16-6.14,0.16C674.58,446.03,674.58,446,674.58,445.97z"/>
</g>
</svg>
