<?xml version="1.0" encoding="utf-8"?>
<!-- Generator: Adobe Illustrator 16.0.0, SVG Export Plug-In . SVG Version: 6.00 Build 0)  -->
<!DOCTYPE svg PUBLIC "-//W3C//DTD SVG 1.1//EN" "http://www.w3.org/Graphics/SVG/1.1/DTD/svg11.dtd">
<svg version="1.1" id="Layer_1" xmlns="http://www.w3.org/2000/svg" xmlns:xlink="http://www.w3.org/1999/xlink" x="0px" y="0px"
	 width="1080px" height="1080px" viewBox="0 0 1080 1080" style="enable-background:new 0 0 1080 1080;" xml:space="preserve">
<g>
	<path style="fill-rule:evenodd;clip-rule:evenodd;" d="M685.36,503.67c0,13.77-0.02,26.64,0.01,39.5
		c0.03,11.79-0.92,11.44,10.92,11.29c1.41-0.02,2.82,0.34,5.05,0.63c0,16.43,0,32.66,0,50.19c6.12,0,11.4,0.28,16.64-0.07
		c5.55-0.37,7.07,1.95,7.04,7.26c-0.2,28.53-0.09,57.06-0.09,85.58c0,32.19-0.15,64.37,0.12,96.55c0.05,6.4-1.34,8.83-8.4,8.82
		c-116.55-0.22-233.1-0.21-349.65-0.02c-6.58,0.01-8.15-2.04-8.13-8.33c0.21-60.47,0.24-120.94-0.03-181.41
		c-0.03-7.02,2.39-9.01,8.84-8.47c4.79,0.4,9.64,0.08,15.35,0.08c0-17.18,0-33.41,0-49.89c2.17-0.42,3.53-0.85,4.9-0.91
		c11.28-0.52,11.29-0.5,11.29-11.55c0-12.86,0-25.72,0-39.22c7.2,0,13.46,0,20.83,0c0-11.52,0-22.43,0-33.33
		c0-2.44-0.01-4.88,0-7.31c0.03-9.4,0.06-9.85,9.66-9.31c7.25,0.41,10.04-1.59,9.56-9.27c-0.66-10.69,0.23-21.47-0.3-32.17
		c-0.36-7.15,1.45-10.71,9.21-9.39c1.84,0.31,3.82-0.2,6.96-0.43c0-6.69,0-13.17,0-19.65c0-4.63,0-9.26,0-13.9
		c0-15.76,0-15.96,15.49-16.06c5.36-0.03,7.21-1.69,7.13-7.16c-0.27-19.01-0.1-38.04-0.1-57.06c0-2.63,0-5.25,0-7.69
		c12.09-2.98,13.01-2.49,13.11,8.6c0.04,4.65,1.39,6.75,6.28,6.34c3.85-0.32,7.74-0.06,12.48-0.06c0.25-5.22,0.47-9.97,0.79-16.58
		c4.38,0.86,10.14,0.33,12.11,2.81c2.22,2.8,1.04,8.3,1.37,13.18c12.15,0,23.91,0,35.82,0c0.84-5.14,0.77-10.49,2.9-14.72
		c0.82-1.62,6.69-0.68,10.99-0.96c0.27,5.43,0.51,10.19,0.78,15.6c5.32,0,10.51,0,15.67,0c1.1-5.09,1.51-10.44,3.69-14.93
		c0.65-1.32,6.31-0.2,10.84-0.2c0,3.86,0,7.41,0,10.97c0,18.04,0.18,36.09-0.1,54.13c-0.09,5.56,1.39,7.72,7.32,7.74
		c17.91,0.07,17.91,0.3,17.91,18.59c0,8.05,0.3,16.11-0.1,24.13c-0.29,5.76,1.68,8.12,7.49,7.41c2.58-0.32,5.23-0.05,8.81-0.05
		c0,13.68,0,26.52,0,39.37c0,11.15,0,11.13,10.84,11.27c2.37,0.03,4.73,0.28,7.93,0.48c0,13.39-0.02,26.25,0.01,39.11
		c0.03,12.11-0.57,10.32,10.75,10.46C678.26,503.7,681.17,503.67,685.36,503.67z M609.17,789.36c3.08,0.2,5.69,0.52,8.3,0.52
		c28.52,0.04,57.04-0.16,85.56,0.16c6.68,0.07,8.74-1.91,8.7-8.67c-0.25-51.19-0.25-102.38,0-153.58c0.03-6.81-1.57-9.2-8.86-9.18
		c-107.26,0.23-214.52,0.22-321.78,0.01c-7-0.01-9.1,1.86-9.06,8.96c0.28,51.19,0.25,102.38,0.03,153.57
		c-0.03,6.45,1.45,8.98,8.46,8.89c29-0.36,58.02-0.32,87.02-0.02c6.62,0.07,8.73-1.82,8.67-8.64c-0.32-37.29-0.16-74.59-0.13-111.89
		c0-2.83,0.25-5.66,0.37-8.38c1.4-0.36,2.08-0.64,2.77-0.7c5.48-0.47,13.06,1.08,15.87-1.9c2.92-3.09,1.62-10.54,1.45-16.07
		c-0.17-5.35,2.21-6.6,7.01-6.57c22.18,0.15,44.37-0.02,66.55,0.11c6.26,0.04,13.97-1.33,18.27,1.76c2.98,2.14,1.49,10.83,1.51,16.6
		c0.02,4.34,1.48,6.28,5.98,6.01c4.26-0.25,8.54-0.05,13.32-0.05C609.17,703.94,609.17,746.31,609.17,789.36z M576.48,650.06
		c-22.54,0-44.08,0-66.52,0c0,3.67,0,6.78,0,9.89c-0.02,13.38-0.02,13.69-13.55,13.61c-6.11-0.04-7.23,2.53-7.21,7.87
		c0.17,33.39,0.23,66.79-0.05,100.19c-0.05,6.31,1.65,8.48,8.19,8.41c29.98-0.3,59.97-0.33,89.95,0.01c6.88,0.08,8.61-2.26,8.55-8.8
		c-0.29-31.44-0.13-62.89-0.13-94.34c0-12.69,0-12.93-12.65-13.11c-5.21-0.08-6.86-2.09-6.64-6.98
		C576.67,661.28,576.48,655.72,576.48,650.06z M582.66,568.09c1.31,11.44,2.33,22.26,4.03,32.99c0.23,1.47,3.81,3.43,5.85,3.45
		c29.95,0.22,59.9,0.1,89.86,0.21c4.47,0.02,6.02-1.74,5.91-6.07c-0.2-7.79-0.42-15.61,0.07-23.37c0.38-6.17-1.86-7.81-7.86-7.76
		c-29.95,0.28-59.9,0.12-89.86,0.14C588.28,567.68,585.91,567.91,582.66,568.09z M396.86,568.01c0,11.34-0.2,22.02,0.24,32.67
		c0.06,1.4,3.37,3.81,5.19,3.82c28.99,0.24,57.99,0.22,86.98,0.06c1.81-0.01,5.03-1.42,5.2-2.53c1.66-11.14,2.81-22.36,4.17-34.02
		C464.2,568.01,431.14,568.01,396.86,568.01z M576.88,517.43c1.31,11.73,2.21,22.11,3.87,32.36c0.28,1.72,3.88,4.13,5.96,4.15
		c26.26,0.28,52.53,0.13,78.79,0.25c4.54,0.02,6.73-1.34,6.59-6.22c-0.24-8.26-0.26-16.54,0.01-24.8c0.17-5.08-2.23-5.97-6.68-5.94
		c-23.59,0.2-47.18,0.16-70.77,0.19C589.12,517.44,583.58,517.43,576.88,517.43z M412.83,517.75c0,11.01-0.26,21.23,0.25,31.42
		c0.09,1.73,3.42,4.71,5.29,4.73c25.6,0.32,51.21,0.28,76.81,0.1c1.74-0.01,4.81-1.6,5-2.8c1.67-10.92,2.84-21.92,4.22-33.45
		C473.34,517.75,443.7,517.75,412.83,517.75z M651.22,503.25c0-11.07,0.18-21.95-0.26-32.8c-0.05-1.19-3.7-3.19-5.69-3.21
		c-21.67-0.2-43.34-0.1-65.01-0.04c-2.84,0.01-5.68,0.25-9.28,0.43c1.47,12.32,2.85,23.83,4.25,35.63
		C600.37,503.25,624.9,503.25,651.22,503.25z M433.57,503.6c23.62,0,46,0.07,68.38-0.15c1.52-0.02,4.15-2.06,4.35-3.44
		c1.5-10.53,2.52-21.14,3.7-31.76c-1.63-0.45-2.55-0.93-3.48-0.94c-22.89-0.14-45.79-0.3-68.68-0.18c-1.43,0.01-4.04,2.22-4.08,3.48
		C433.43,481.27,433.57,491.93,433.57,503.6z M565.28,416.79c1.18,11.01,2.35,20.63,3.18,30.27c0.42,4.83,2.49,6.65,7.42,6.54
		c12.66-0.27,25.32-0.08,37.98-0.08c18.71,0,18.71,0,18.71-18.75c0-17.98,0-17.98-17.86-17.98
		C598.69,416.79,582.67,416.79,565.28,416.79z M515.98,416.84c-20.75,0-40.15-0.11-59.54,0.24c-1.37,0.02-3.75,3.39-3.84,5.29
		c-0.42,8.49-0.07,17.02-0.23,25.53c-0.08,4.06,1.57,5.66,5.6,5.64c16.3-0.1,32.6,0.07,48.89-0.19c1.84-0.03,5.03-1.98,5.24-3.39
		C513.68,439.43,514.66,428.81,515.98,416.84z M568.94,568.18c-19.64,0-37.8,0-56.45,0c-1.41,11.96-2.78,23.45-4.2,35.5
		c21.88,0,42.86,0,64.59,0C571.52,591.4,570.24,579.89,568.94,568.18z M573.96,342.84c-21.77,0-42.59,0-64.06,0
		c0-11.19,0-21.84,0-33.16c-4.2-0.19-7.8-0.15-11.35-0.55c-6.21-0.71-8.03,2.04-7.78,7.98c0.4,9.49,0.34,19.01,0.02,28.51
		c-0.18,5.37,1.65,7.36,7.11,7.23c16.81-0.38,33.62-0.48,50.43-0.51c11.94-0.02,23.88,0.09,35.81,0.5c5.47,0.19,7.3-1.92,7.15-7.25
		c-0.29-10.23-0.18-20.47-0.07-30.71c0.09-8.03-5.88-5.25-9.93-5.66c-4.15-0.42-7.69-0.2-7.42,5.84
		C574.26,324.05,573.96,333.06,573.96,342.84z M559.49,366.17c1.31,11.93,2.29,22.52,3.84,33.03c0.21,1.4,3.31,3.35,5.11,3.38
		c14.33,0.28,28.66,0.06,42.99,0.21c4.01,0.04,4.96-1.9,4.93-5.37c-0.08-8.5-0.18-17.01,0.04-25.5c0.12-4.55-1.9-5.93-6.13-5.82
		c-7.51,0.19-15.02,0.07-22.54,0.07C578.61,366.17,569.48,366.17,559.49,366.17z M521.89,366.25c-17.34,0-33.54-0.08-49.73,0.16
		c-1.18,0.02-3.31,2.27-3.34,3.53c-0.27,10.62-0.15,21.25-0.15,32.74c15.83,0,30.83,0.07,45.82-0.13c1.18-0.02,3.21-1.74,3.37-2.87
		C519.34,388.93,520.5,378.14,521.89,366.25z M567.42,554.15c-1.42-11.93-2.46-22.54-4.18-33.04c-0.25-1.5-3.78-3.44-5.84-3.5
		c-11.2-0.35-22.41-0.03-33.62-0.23c-4.33-0.08-6.12,1.65-6.5,5.85c-0.76,8.49-1.63,16.97-2.8,25.41c-0.63,4.52,1.46,5.56,5.31,5.52
		c7.31-0.08,14.62,0,21.93,0C549.91,554.16,558.11,554.15,567.42,554.15z M561.51,503.11c-1.22-11.16-2.19-21.76-3.75-32.27
		c-0.21-1.43-3.31-3.38-5.15-3.46c-8.02-0.38-16.07-0.39-24.08,0.01c-1.8,0.09-4.79,2.16-5.01,3.65
		c-1.55,10.48-2.52,21.05-3.72,32.07C534.11,503.11,547.34,503.11,561.51,503.11z M525.3,453.38c9.69,0,18.36,0.17,27.01-0.21
		c1.07-0.05,2.97-3.06,2.86-4.56c-0.71-9.2-1.73-18.4-3.08-27.53c-0.23-1.56-2.43-3.87-3.89-4.01c-5.06-0.5-10.21-0.44-15.28-0.02
		c-1.36,0.11-3.47,2.12-3.66,3.48C527.76,431.05,526.66,441.63,525.3,453.38z M541.64,329.88c19.82,0,19.67,0.01,19.05-14.71
		c-0.18-4.32-1.61-6.15-6.01-6.03c-7.28,0.19-14.57,0.02-21.86,0.04c-9.48,0.02-9.48,0.03-9.5,9.72
		c-0.02,10.98-0.02,10.98,11.04,10.99C536.78,329.88,539.21,329.88,541.64,329.88z M531.21,402.25c6.8,0,12.26,0,18.67,0
		c-1.22-11.15-2.21-21.74-3.77-32.24c-0.19-1.31-3.53-3.11-5.29-2.98c-2.06,0.15-5.49,1.92-5.73,3.4
		C533.45,380.7,532.49,391.09,531.21,402.25z"/>
	<path style="fill-rule:evenodd;clip-rule:evenodd;" d="M400.27,675.19c3.89,0,7.68,0,12.53,0c0,4.94,0,9.48,0,14.02
		c0,18.49-0.12,36.98,0.07,55.46c0.05,4.7-2,5.94-6.18,5.6c-3.47-0.28-7.55,1.07-7.51-4.96c0.17-22.38,0.1-44.76,0.17-67.14
		C399.35,677.27,399.89,676.37,400.27,675.19z"/>
	<path style="fill-rule:evenodd;clip-rule:evenodd;" d="M639.1,749.65c-12.8,1.38-12.81,1.38-12.81-10.07
		c0-20.16,0.14-40.32-0.09-60.48c-0.06-5.28,1.48-7.29,7.03-7.25c5.31,0.04,6.5,2.06,6.46,6.93c-0.2,21.86-0.08,43.72-0.11,65.58
		C639.57,746,639.29,747.65,639.1,749.65z"/>
	<path style="fill-rule:evenodd;clip-rule:evenodd;" d="M684.94,670.66c0,27.84,0,53.25,0,79.56c-3.01,0-5.81,0.61-8.13-0.19
		c-1.88-0.65-4.5-2.98-4.52-4.59c-0.29-22.86-0.53-45.73-0.04-68.58C672.44,667.54,680.16,674.36,684.94,670.66z"/>
	<path style="fill-rule:evenodd;clip-rule:evenodd;" d="M448.75,675.17c4.5,0,8.07,0,12.14,0c0,24.99,0,49.6,0,74.64
		c-4.08,0-7.83,0-12.14,0C448.75,724.92,448.75,700.33,448.75,675.17z"/>
</g>
</svg>
