<?xml version="1.0" encoding="utf-8"?>
<!-- Generator: Adobe Illustrator 16.0.0, SVG Export Plug-In . SVG Version: 6.00 Build 0)  -->
<!DOCTYPE svg PUBLIC "-//W3C//DTD SVG 1.1//EN" "http://www.w3.org/Graphics/SVG/1.1/DTD/svg11.dtd">
<svg version="1.1" id="Layer_1" xmlns="http://www.w3.org/2000/svg" xmlns:xlink="http://www.w3.org/1999/xlink" x="0px" y="0px"
	 width="1080px" height="1080px" viewBox="0 0 1080 1080" style="enable-background:new 0 0 1080 1080;" xml:space="preserve">
<g>
	<path style="fill-rule:evenodd;clip-rule:evenodd;" d="M305.35,832.69c0-118.71,0-236.35,0-353.85c-0.51-0.44-0.82-0.94-1.16-0.96
		c-17.32-0.81-27.19-8.95-30.71-28.26c-1.61-8.83-3.93-17.53-5.5-26.36c-3.31-18.6,8.63-32.95,27.65-33.2
		c15.55-0.21,31.11-0.04,47.44-0.04c0.1-12.82-0.85-25.52,8.28-35.81c9.21-10.39,21.17-12.45,35.08-11.67c0-2.75,0-5.06,0-7.38
		c0.01-16.47-0.13-32.94,0.06-49.41c0.23-19.32,14-32.89,33.41-33.11c10.76-0.13,21.53,0.2,32.27-0.21c2.52-0.1,5.87-1.73,7.3-3.75
		c48.15-67.63,142.85-67.83,190.58-0.42c1.55,2.19,5.11,4.09,7.78,4.16c16.02,0.39,32.06,0.09,48.09,0.22
		c19.85,0.16,33.56,13.57,33.87,33.37c0.26,16.25,0.06,32.5,0.08,48.75c0,2.35,0,4.71,0,7.67c13.54-0.5,25.61,1.24,34.81,11.59
		c9.16,10.31,8.37,22.95,8.46,36.01c15.66,0,30.76-0.15,45.85,0.04c15.8,0.2,27.46,10.68,28.25,25.42c0.2,3.64-0.49,7.44-1.44,10.99
		c-2.5,9.3-5.55,18.45-8.03,27.76c-3.3,12.35-10.41,20.43-23.41,22.92c-1.52,0.29-2.74,2.98-3.74,4.76
		c-0.47,0.84-0.09,2.15-0.09,3.25c0,113.1,0,226.19,0,339.28c0,2.39,0,4.77,0,7.85c2.8,0.15,5.11,0.36,7.41,0.37
		c7.69,0.04,15.38-0.12,23.06,0.07c7.16,0.18,11.28,4.06,11.28,10.15c0.01,6.13-3.99,9.74-11.29,10.17
		c-1.09,0.07-2.19,0.02-3.29,0.02c-189.74,0-379.47,0-569.21,0c-0.88,0-1.76,0.02-2.64-0.01c-7.82-0.3-11.96-3.82-11.98-10.16
		c-0.01-6.31,4.24-10.09,11.91-10.19C285.43,832.59,295.06,832.69,305.35,832.69z M444.83,629.18c0-2.69,0-5.06,0-7.42
		c0-18.44-0.04-36.88,0.01-55.32c0.06-22.41,13.2-35.42,35.76-35.42c55.1-0.02,110.2-0.02,165.3,0c22.11,0.01,35.33,13.1,35.41,35.1
		c0.07,18.66,0,37.32,0.03,55.98c0,2.33,0.19,4.65,0.3,7.08c39.79,0,78.97,0,118.21,0c0-50.67,0-100.99,0-151.1
		c-158.25,0-315.95,0-473.66,0c0,50.68,0,100.83,0,151.1C365.8,629.18,404.99,629.18,444.83,629.18z M562.64,410.44
		c-88.25,0-176.51-0.01-264.76,0.01c-9.5,0-11.75,2.86-9.73,12.05c1.69,7.7,3.33,15.41,5.04,23.1c2.49,11.23,2.89,11.53,14.32,11.53
		c149.29,0,298.57,0,447.86,0c20.86,0,41.71-0.12,62.57,0.07c5.78,0.05,8.85-2.12,10.31-7.76c2.19-8.47,4.99-16.78,7.48-25.17
		c3.36-11.37,1.53-13.83-10.29-13.83C737.83,410.44,650.23,410.44,562.64,410.44z M612.34,832.37c0-3.18,0-5.78,0-8.37
		c0-43.67,0.02-87.35-0.01-131.03c-0.01-12.29,0.3-24.6-0.34-36.86c-1.73-32.96-37.89-54.76-67.7-40.64
		c-20.66,9.79-30.44,26.89-30.45,49.63c-0.02,53.99-0.01,107.98,0.01,161.97c0,1.68,0.28,3.36,0.45,5.3
		C546.91,832.37,579.09,832.37,612.34,832.37z M406.28,342.1c104.85,0,208.97,0,313.67,0c0-17.24,0-34.09,0-50.94
		c0-14.73-4.02-18.77-18.71-18.77c-92.18,0-184.36,0-276.54,0c-1.97,0-3.97-0.11-5.92,0.11c-7.18,0.81-12.33,5.79-12.42,13.01
		C406.11,304.15,406.28,322.79,406.28,342.1z M761.84,389.73c3.1-21.16-0.91-27.12-20.7-27.05c-119.4,0.45-238.79,0.22-358.19,0.23
		c-2.85,0-5.73-0.1-8.55,0.25c-5.61,0.71-9.58,4.01-10.31,9.5c-0.73,5.52-0.16,11.21-0.16,17.06
		C496.87,389.73,629.38,389.73,761.84,389.73z M493.46,832.31c0-3.26,0-5.87,0-8.48c0-52.45-0.01-104.9,0.01-157.35
		c0.01-27.17,10.92-48.71,33.31-64.33c1.45-1.01,3.38-2.76,3.4-4.18c0.24-15.29,0.15-30.58,0.15-46.53c-16.92,0-33.1-0.01-49.28,0
		c-12.52,0.01-15.8,3.32-15.8,16.03c-0.01,86.03-0.01,172.05,0.01,258.08c0,2.14,0.19,4.27,0.3,6.76
		C474.83,832.31,483.71,832.31,493.46,832.31z M660.41,832.4c0.24-1.35,0.45-1.99,0.45-2.62c0.02-88.72,0.06-177.43,0-266.15
		c0-8.06-4.18-12.09-12.26-12.15c-16.25-0.12-32.5-0.05-48.75-0.01c-1.23,0-2.45,0.39-4.04,0.66c0,14.79-0.11,29.26,0.14,43.72
		c0.03,1.72,1.58,4.03,3.1,5.02c23.39,15.21,33.81,36.94,33.71,64.52c-0.2,53.14-0.06,106.28-0.06,159.42c0,2.52,0,5.03,0,7.57
		C642.54,832.4,651.27,832.4,660.41,832.4z M444.5,696.6c-39.9,0-79.03,0-118.33,0c0,12.63,0,24.79,0,36.98
		c39.69,0,78.97,0,118.33,0C444.5,721,444.5,709.02,444.5,696.6z M681.93,696.53c0,12.7,0,25,0,37.14c39.72,0,78.84,0,118.03,0
		c0-12.68,0-24.84,0-37.14C760.38,696.53,721.24,696.53,681.93,696.53z M444.51,801.2c-39.63,0-78.94,0-118.33,0
		c0,10.59,0,20.77,0,30.93c39.72,0,79.02,0,118.33,0C444.51,821.55,444.51,811.53,444.51,801.2z M681.7,832.22
		c39.64,0,78.93,0,118.26,0c0-10.64,0-20.81,0-31.11c-39.59,0-78.74,0-118.26,0C681.7,811.6,681.7,821.77,681.7,832.22z
		 M627.33,252.32c-38.8-48.63-114.25-42.15-144.17,0C531.06,252.32,578.78,252.32,627.33,252.32z M326.23,649.57
		c0,9.02,0,17.44,0,25.88c39.64,0,78.82,0,118.1,0c0-8.83,0-17.24,0-25.88C404.82,649.57,365.81,649.57,326.23,649.57z
		 M681.64,675.4c39.96,0,79.13,0,118.24,0c0-8.9,0-17.31,0-25.62c-39.71,0-78.89,0-118.24,0
		C681.64,658.51,681.64,666.78,681.64,675.4z M444.53,754.91c-39.96,0-79.13,0-118.24,0c0,8.89,0,17.3,0,25.62
		c39.7,0,78.88,0,118.24,0C444.53,771.81,444.53,763.55,444.53,754.91z M681.9,754.7c0,9.12,0,17.52,0,25.82
		c39.74,0,78.91,0,117.98,0c0-8.91,0-17.34,0-25.82C760.33,754.7,721.31,754.7,681.9,754.7z M574.97,591.42c0-13.38,0-26.36,0-39.52
		c-8.19,0-15.92,0-23.8,0c0,13.44,0,26.42,0,39.52C559.21,591.42,566.8,591.42,574.97,591.42z"/>
	<path style="fill-rule:evenodd;clip-rule:evenodd;" d="M382.48,575.76c-20.85,0-37.88-16.99-37.75-37.65
		c0.13-20.57,17.49-37.72,38.03-37.57c20.39,0.16,37.17,17.02,37.32,37.51C420.22,558.83,403.35,575.76,382.48,575.76z
		 M382.32,520.88c-9.88,0.08-17.29,7.75-17.14,17.73c0.15,9.58,7.63,17.08,17.12,17.17c9.74,0.09,17.49-7.65,17.52-17.48
		C399.85,528.46,392.15,520.8,382.32,520.88z"/>
	<path style="fill-rule:evenodd;clip-rule:evenodd;" d="M740.44,575.78c-20.83,0.05-37.6-16.64-37.62-37.45
		c-0.03-20.69,16.87-37.75,37.44-37.8c20.66-0.05,37.55,16.86,37.58,37.62C777.87,559.06,761.3,575.73,740.44,575.78z
		 M740.13,555.79c9.53,0.11,17.74-7.93,17.82-17.45c0.08-9.56-8-17.56-17.7-17.5c-9.46,0.05-17.24,7.64-17.48,17.05
		C722.53,547.35,730.61,555.68,740.13,555.79z"/>
	<path style="fill-rule:evenodd;clip-rule:evenodd;" d="M563.09,317.45c-22.83,0-45.66,0.01-68.48-0.01
		c-5.74,0-9.79-2.38-10.69-8.43c-0.79-5.28,1.62-8.96,6.49-10.85c1.57-0.61,3.44-0.61,5.17-0.62c45-0.03,89.99-0.04,134.99-0.01
		c7.58,0.01,11.92,3.85,11.84,10.15c-0.08,6.14-4.06,9.71-11.49,9.74C608.31,317.52,585.7,317.46,563.09,317.45z"/>
</g>
</svg>
