<?xml version="1.0" encoding="utf-8"?>
<!-- Generator: Adobe Illustrator 16.0.0, SVG Export Plug-In . SVG Version: 6.00 Build 0)  -->
<!DOCTYPE svg PUBLIC "-//W3C//DTD SVG 1.1//EN" "http://www.w3.org/Graphics/SVG/1.1/DTD/svg11.dtd">
<svg version="1.1" id="Layer_1" xmlns="http://www.w3.org/2000/svg" xmlns:xlink="http://www.w3.org/1999/xlink" x="0px" y="0px"
	 width="1080px" height="1080px" viewBox="0 0 1080 1080" style="enable-background:new 0 0 1080 1080;" xml:space="preserve">
<g>
	<path style="fill-rule:evenodd;clip-rule:evenodd;" d="M676.26,358.13c-0.71-0.54-0.95-0.9-1.23-0.92
		c-21.68-2.02-21.69-2.02-21.68-24.14c0-13.95,0.18-27.91-0.06-41.86c-0.14-8.36,2.78-13.5,11.84-12.16
		c9.45,1.41,13.21-2.31,16-11.51c5.13-16.96,17.55-28.05,34.44-33.5c5.88-1.9,10.53-3.26,10.19-11.19c-0.1-2.38,4.86-4.99,7.5-7.49
		c2.49,2.66,6.98,5.25,7.06,7.97c0.18,6.47,2.94,8.59,8.65,10.24c18.69,5.38,31.36,17.72,36.86,36.26c2.16,7.29,5.2,9.58,12.56,9.3
		c13.06-0.5,14.63,1.45,14.67,14.51c0.05,15.66,0.03,31.31,0.01,46.97c-0.02,15.2-0.93,16.09-16.21,16.26c-2.03,0.02-4.07,0-6.96,0
		c0,20.85,0,41.35,0,61.86c0.62,0.37,1.17,0.98,1.73,1c20.16,0.69,21.84-2.79,21.47,23.65c-0.18,12.93-0.01,25.86-0.04,38.8
		c-0.03,14.67-1.01,15.64-15.53,15.95c-2.33,0.05-4.66,0.24-7.74,0.41c0,20.59,0,40.82,0,61.78c1.6,0.24,3.48,0.71,5.38,0.76
		c17.52,0.46,17.88,0.79,17.89,17.85c0.01,14.98,0.03,29.95-0.01,44.92c-0.04,14.07-1.05,15.05-15.06,15.37
		c-2.65,0.06-5.29,0.37-8.96,0.64c0,4.48,0,8.47,0,12.46c0,65.68,0.01,131.37-0.01,197.05c0,13.49-1.77,15.29-15.31,15.29
		c-155.88,0.02-311.75,0.02-467.62,0c-13.48,0-15.1-1.71-15.11-15.44c-0.02-65.69-0.01-131.37-0.01-197.06c0-3.98,0-7.96,0-11.39
		c-1.81-0.8-2.42-1.33-3.01-1.3c-23.06,1.04-21.06-2.47-21.05-22.83c0.01-12.93-0.01-25.87,0-38.8
		c0.02-15.63,0.86-16.44,16.87-16.74c1.99-0.04,3.98-0.22,6.56-0.36c0-20.61,0-40.87,0-61.63c-1.63-0.33-3.21-0.87-4.82-0.93
		c-18.61-0.74-18.61-0.73-18.62-18.97c0-14.29-0.02-28.59,0-42.88c0.02-15.26,0.78-15.99,16.19-16.26c2.03-0.04,4.06-0.21,6.97-0.37
		c0-20.58,0-41.09,0-61.64c-0.55-0.32-1.1-0.89-1.68-0.92c-21.49-1.21-21.49-1.2-21.49-23.4c0-13.95,0.2-27.91-0.07-41.86
		c-0.17-8.77,2.85-14.19,12.39-12.82c8.97,1.29,12.68-1.98,15.43-10.87c5.32-17.23,17.66-28.8,35.05-34.23
		c5.65-1.76,9.6-3.4,9.63-10.63c0.01-2.66,4.7-5.3,7.25-7.95c2.7,2.8,5.67,5.38,8.03,8.45c1.98,2.58,2.69,7.66,4.91,8.29
		c23.64,6.71,37.36,22.38,42.79,45.62c0.92,0.43,1.51,0.92,2.13,0.96c22.21,1.23,22.21,1.22,22.21,23.6
		c0,12.93,0.02,25.87-0.01,38.8c-0.04,14.82-0.8,15.58-15.46,15.78c-2.32,0.03-4.64,0-7.67,0c0,21,0,41.24,0,62.1
		c1.74,0.34,3.62,0.98,5.52,1.05c17.59,0.66,17.58,0.63,17.61,17.84c0.02,8.85,0.06,17.7,0.15,26.54c0.01,0.99,0.39,1.98,0.76,3.73
		c74.58,0,149.25,0,225.77,0c0-9.92-0.01-19.94,0-29.96c0.01-17.64,0.02-17.64,17.23-18.12c1.66-0.05,3.31-0.27,5.68-0.47
		C676.26,399.05,676.26,378.79,676.26,358.13z M467.26,848.17c0-5.24-0.03-9.59,0.01-13.94c0.31-34.7-0.6-69.47,1.31-104.08
		c1.62-29.27,24.36-53.78,52.44-61.01c47-12.1,90.02,20.8,91.28,70.64c0.81,31.97,0.17,63.98,0.24,95.97
		c0.01,3.96,0.33,7.91,0.53,12.28c21.59,0,42.18,0,63.13,0c0-68.67,0-136.79,0-204.65c-91.48,0-182.17,0-272.6,0
		c0,68.62,0,136.5,0,204.78C424.7,848.17,445.01,848.17,467.26,848.17z M595.8,848.23c0.42-2.16,0.88-3.44,0.88-4.73
		c0.02-35.34,0.58-70.7-0.41-106.02c-0.26-9.4-3.7-19.58-8.44-27.81c-12.63-21.93-38.95-31.9-62.4-25.31
		c-25.09,7.05-41.69,28.09-42.06,54.93c-0.47,34.32-0.14,68.65-0.08,102.97c0,1.91,0.72,3.81,1.16,5.97
		C521.58,848.23,558.23,848.23,595.8,848.23z M511.55,626.07c0-11.49-0.13-21.98,0.03-32.46c0.27-17.6,10.5-28.77,26.21-28.86
		c16.11-0.1,26.46,11.31,26.61,29.47c0.08,10.44,0.01,20.88,0.01,31.58c6.47,0,11.7,0,17.92,0c0-10.43-0.05-20.23,0.01-30.03
		c0.12-19.51,9.66-30.88,25.97-31.03c16.65-0.15,26.53,11.48,26.66,31.5c0.07,9.75,0.01,19.5,0.01,29.69c6.58,0,11.85,0,18.36,0
		c0-15.36-0.12-30.22,0.03-45.07c0.15-15.51-3.93-21.07,19.38-19.85c1.23,0.07,2.5-0.55,3.74-0.84c0-4.4,0-8.35,0-12.55
		c-91.38,0-182.26,0-273.06,0c0,4.78,0,8.72,0,13.14c2.55,0.13,4.52,0.3,6.5,0.33c16.71,0.32,16.71,0.31,16.73,17.39
		c0,2.72,0,5.44,0,8.16c0,13.09,0,26.17,0,39.09c5.7,0,9.61,0,14.28,0c0-10.87-0.09-21.04,0.02-31.21
		c0.21-18.44,10.24-29.72,26.32-29.78c16.11-0.06,26.17,11.21,26.33,29.64c0.09,10.45,0.02,20.9,0.02,31.69
		C500.02,626.07,505.04,626.07,511.55,626.07z M772.21,848.01c0-69.67,0-138.75,0-208.83c-7.33,0-14.11,0.52-20.77-0.13
		c-8.51-0.83-10.9,2.29-10.85,10.77c0.34,62.86,0.17,125.72,0.21,188.58c0,3.24,0.39,6.47,0.59,9.61
		C752.37,848.01,762.1,848.01,772.21,848.01z M693.76,639.21c0,70.13,0,139.22,0,208.66c10.49,0,20.43,0,31.49,0
		c0-4.36,0-8.02,0-11.68c0-41.79,0-83.57,0-125.36c0-21.06,0.21-42.13-0.26-63.18c-0.06-2.85-3.29-7.8-5.49-8.05
		C711.2,638.63,702.71,639.21,693.76,639.21z M386.15,848.31c0-70.04,0-139.13,0-209.13c-7.39,0-14.18,0.54-20.84-0.13
		c-8.7-0.88-10.76,2.6-10.72,10.9c0.32,62.52,0.16,125.04,0.2,187.56c0,3.55,0.39,7.09,0.61,10.8
		C366.2,848.31,375.67,848.31,386.15,848.31z M307.54,639.8c0,69.83,0,138.71,0,207.99c10.46,0,20.39,0,30.63,0
		c0-69.65,0-138.5,0-207.99C327.83,639.8,318.14,639.8,307.54,639.8z M796.27,622.99c0-15.57,0-30.32,0-44.89
		c-42.71,0-84.67,0-126.64,0c0,15.3,0,29.77,0,44.89C711.92,622.99,753.61,622.99,796.27,622.99z M410.46,577.86
		c-42.49,0-84.45,0-126.7,0c0,15.3,0,30.02,0,44.93c42.71,0,84.66,0,126.7,0C410.46,607.42,410.46,592.91,410.46,577.86z
		 M283.47,481.46c42.57,0,84.51,0,126.85,0c0-15.37,0-29.79,0-44.54c-42.58,0-84.48,0-126.85,0
		C283.47,451.92,283.47,466.12,283.47,481.46z M669.56,481.44c42.48,0,84.42,0,126.65,0c0-15.06,0-29.77,0-44.38
		c-42.71,0-84.62,0-126.65,0C669.56,452.19,669.56,466.34,669.56,481.44z M283.56,340.31c42.43,0,84.31,0,126.73,0
		c0-15.15,0-29.85,0-44.73c-42.59,0-84.47,0-126.73,0C283.56,310.78,283.56,325.2,283.56,340.31z M796.4,295.45
		c-42.49,0-84.37,0-126.6,0c0,15.34,0,30.03,0,44.69c42.65,0,84.53,0,126.6,0C796.4,324.86,796.4,310.43,796.4,295.45z
		 M386.02,419.18c0-21.01,0-41.42,0-61.83c-10.54,0-20.26,0-30.33,0c0,20.92,0,41.33,0,61.83
		C366.34,419.18,376.04,419.18,386.02,419.18z M741.44,357.12c0,21.08,0,41.23,0,61.98c10.6,0,20.54,0,30.51,0
		c0-21.09,0-41.51,0-61.98C761.59,357.12,752.12,357.12,741.44,357.12z M693.68,419.09c10.95,0,20.64,0,30.94,0
		c0-20.82,0-40.98,0-61.68c-10.53,0-20.49,0-30.94,0C693.68,378.15,693.68,398.33,693.68,419.09z M386.43,560.73
		c0-21.01,0-40.96,0-61.49c-10.41,0-20.41,0-30.95,0c0,20.81,0,40.97,0,61.49C365.96,560.73,375.72,560.73,386.43,560.73z
		 M693.66,560.55c10.93,0,20.68,0,30.8,0c0-20.69,0-40.82,0-61.17c-10.78,0-20.75,0-30.8,0
		C693.66,520.11,693.66,540.05,693.66,560.55z M772.29,560.63c0-20.64,0-40.82,0-61.27c-10.56,0-20.55,0-30.64,0
		c0,20.9,0,41.03,0,61.27C752.27,560.63,762.01,560.63,772.29,560.63z M307.58,357.25c0,20.93,0,41.12,0,62.46
		c8.91,0,17.32,0.27,25.69-0.21c1.88-0.11,5.15-2.8,5.18-4.36c0.36-19.17,0.23-38.35,0.23-57.89
		C327.64,357.25,318.21,357.25,307.58,357.25z M337.88,560.65c0-21.05,0-41.13,0-61.45c-10.63,0-20.31,0-30.26,0
		c0,20.75,0,40.88,0,61.45C317.89,560.65,327.57,560.65,337.88,560.65z M309.6,278.51c24.94,0,49.86,0,74.81,0
		c-1.74-18.17-19.16-32.33-38.53-31.71C326.87,247.41,310.53,261.51,309.6,278.51z M770.51,278.46
		c-1.44-17.61-18.5-31.68-37.61-31.7c-19.99-0.02-38.78,17.69-37.19,31.7C720.62,278.46,745.55,278.46,770.51,278.46z M483.4,530.05
		c0-15.23,0-29.86,0-44.47c-10.78,0-20.7,0-30.69,0c0,15.24,0,29.65,0,44.47C463.19,530.05,473.14,530.05,483.4,530.05z
		 M627.31,530.27c0-15.57,0-29.99,0-44.89c-10.47,0-20.42,0-30.74,0c0,15.27,0,29.92,0,44.89
		C607.1,530.27,616.82,530.27,627.31,530.27z M548.64,485.28c0,15.62,0,30.05,0,44.59c10.59,0,20.56,0,30.44,0
		c0-15.22,0-29.65,0-44.59C568.67,485.28,558.98,485.28,548.64,485.28z M500.95,485.29c0,15.63,0,30.04,0,44.52
		c10.7,0,20.63,0,30.39,0c0-15.3,0-29.75,0-44.52C521,485.29,511.31,485.29,500.95,485.29z M644.64,483.69c0,17.08,0,31.75,0,46.2
		c11.13,0,21.43,0,31.56,0c0-10.69,0-20.62,0-30.82c-2.42-0.2-4.07-0.41-5.73-0.45c-8.01-0.21-17.07,1.58-17.71-11.03
		C652.71,486.36,648.23,485.35,644.64,483.69z M403.42,498.55c0,11.16,0,21.13,0,31.23c11.19,0,21.76,0,32.16,0
		c0-15.36,0-29.83,0-44.31c-0.79-0.59-1.58-1.18-2.37-1.78c-2.21,2.21-5.8,4.12-6.36,6.69c-1.41,6.46-5.43,8.07-11,8.16
		C411.86,498.61,407.87,498.55,403.42,498.55z M527.69,625.78c7.34,0,13.54,0,20.53,0c0-11.76,0.06-22.86-0.02-33.96
		c-0.05-6.81-3.42-11.18-10.41-11.06c-7.04,0.12-10.03,4.8-10.07,11.48C527.64,603.04,527.69,613.85,527.69,625.78z M477.49,625.95
		c0-12.67,0.77-24.24-0.45-35.59c-0.38-3.55-6.08-9-9.44-9.08c-3.41-0.07-9.6,5.14-9.95,8.52c-1.23,11.9-0.48,24.01-0.48,36.15
		C464.45,625.95,470.43,625.95,477.49,625.95z M618.85,626.02c0-12.58,0.77-24.11-0.45-35.42c-0.39-3.61-5.9-9.03-9.35-9.26
		c-3.31-0.21-9.67,4.97-10.01,8.26c-1.23,11.9-0.48,23.99-0.48,36.42C605.7,626.02,611.68,626.02,618.85,626.02z"/>
	<path style="fill-rule:evenodd;clip-rule:evenodd;" d="M426.85,678.55c0.37-8.35,7.77-15.4,16-15.26
		c8.67,0.15,15.89,7.94,15.51,16.73c-0.37,8.43-7.58,15.31-15.98,15.23C433.69,695.16,426.45,687.38,426.85,678.55z"/>
	<path style="fill-rule:evenodd;clip-rule:evenodd;" d="M653.13,678.95c0.19,8.79-7.25,16.38-15.99,16.31
		c-8.43-0.06-15.33-7.02-15.51-15.63c-0.19-8.83,7.2-16.44,15.86-16.33C645.75,663.41,652.95,670.62,653.13,678.95z"/>
	<path style="fill-rule:evenodd;clip-rule:evenodd;" d="M721.16,600.55c-5.08,5.65-8.09,12.09-11.88,12.59
		c-7.77,1.03-8.08-6.02-8.12-12.15c-0.04-6.21,0.43-12.98,8.23-12.07C713.02,589.34,716.03,595.24,721.16,600.55z"/>
	<path style="fill-rule:evenodd;clip-rule:evenodd;" d="M766.99,602.8c-3.34,3.63-6.4,9.96-10.07,10.34
		c-7.75,0.8-7.93-6.39-7.98-12.36c-0.05-5.72,0.38-11.86,7.57-12.13c7.9-0.3,8.81,5.82,8.17,12.24
		C765.44,601.52,766.21,602.16,766.99,602.8z"/>
	<path style="fill-rule:evenodd;clip-rule:evenodd;" d="M381,602.66c-3.23,3.72-6.07,10.09-9.77,10.63
		c-8.57,1.26-8.56-6.17-8.61-12.51c-0.04-6.07,0.07-12.39,8.13-12.38C378.76,588.41,379.21,594.58,381,602.66z"/>
	<path style="fill-rule:evenodd;clip-rule:evenodd;" d="M313.2,598.23c3.15-3.34,6.04-9.15,9.5-9.52c8.66-0.92,8.4,6.43,8.38,12.69
		c-0.02,5.99-0.06,12.44-8.19,12.26C313.79,613.46,315.36,606.05,313.2,598.23z"/>
	<path style="fill-rule:evenodd;clip-rule:evenodd;" d="M382.71,459.9c-5.24,5.11-8.33,10.73-11.93,11.09
		c-7.92,0.78-8.14-6.2-8.11-12.21c0.03-6.08,0.66-13.11,8.5-11.7C374.96,447.76,377.73,454.09,382.71,459.9z"/>
	<path style="fill-rule:evenodd;clip-rule:evenodd;" d="M334.88,458.59c-5.01,5.54-7.87,11.6-11.75,12.35
		c-7.19,1.38-8.08-5.15-7.94-10.97c0.15-6.03-0.91-13.82,8.08-12.91C326.81,447.42,329.79,453.29,334.88,458.59z"/>
	<path style="fill-rule:evenodd;clip-rule:evenodd;" d="M721.57,458.53c-5.54,5.78-8.57,11.75-12.49,12.41
		c-7.13,1.21-8.01-5.29-7.89-11.16c0.11-5.81-0.62-13.21,7.41-12.72C712.37,447.31,715.81,453.2,721.57,458.53z"/>
	<path style="fill-rule:evenodd;clip-rule:evenodd;" d="M767,457.15c-2.04,8.14-2.26,14.47-10.5,14.15
		c-7.47-0.29-7.58-6.44-7.52-12.01c0.06-5.81-0.13-13.17,7.9-12.21C760.6,447.53,763.64,453.62,767,457.15z"/>
	<path style="fill-rule:evenodd;clip-rule:evenodd;" d="M382.74,318.14c-5.19,5.42-8.17,11.33-11.7,11.68
		c-8.77,0.87-8.32-6.77-8.36-12.94c-0.03-5.79,0.96-12.37,8.19-10.94C374.77,306.72,377.65,312.65,382.74,318.14z"/>
	<path style="fill-rule:evenodd;clip-rule:evenodd;" d="M311.3,317.74c5.01-5.48,7.75-11.26,11.34-11.84
		c8.14-1.32,8.43,5.76,8.39,11.72c-0.04,5.83,0.09,13.22-7.98,12.17C319.31,329.31,316.32,323.15,311.3,317.74z"/>
	<path style="fill-rule:evenodd;clip-rule:evenodd;" d="M721.62,317.93c-5.73,5.55-9.04,11.55-12.84,11.87
		c-8.07,0.69-7.51-6.71-7.58-12.55c-0.07-5.74,0.32-12.45,7.7-11.3C712.83,306.55,715.96,312.34,721.62,317.93z"/>
	<path style="fill-rule:evenodd;clip-rule:evenodd;" d="M767.01,319.75c-3.37,3.52-6.43,9.6-10.16,10.04
		c-8.11,0.96-7.87-6.47-7.86-12.26c0.01-5.46-0.22-11.7,7.53-11.96C765,305.27,764.86,311.67,767.01,319.75z"/>
</g>
</svg>
