<?xml version="1.0" encoding="utf-8"?>
<!-- Generator: Adobe Illustrator 16.0.0, SVG Export Plug-In . SVG Version: 6.00 Build 0)  -->
<!DOCTYPE svg PUBLIC "-//W3C//DTD SVG 1.1//EN" "http://www.w3.org/Graphics/SVG/1.1/DTD/svg11.dtd">
<svg version="1.1" id="Layer_1" xmlns="http://www.w3.org/2000/svg" xmlns:xlink="http://www.w3.org/1999/xlink" x="0px" y="0px"
	 width="1080px" height="1080px" viewBox="0 0 1080 1080" style="enable-background:new 0 0 1080 1080;" xml:space="preserve">
<g>
	<path style="fill-rule:evenodd;clip-rule:evenodd;" d="M899.25,922.5c-239.28,0-478.56,0-717.84,0c0.36-2.56,1.04-5.13,1.05-7.69
		c0.06-84.51,0.06-169.03,0.01-253.54c0-2.94-0.64-5.88-1.04-9.36c-6.43-0.66-12.39-1.27-18.35-1.88c0-24.45,0-48.9,0-73.36
		c5.94,0,11.88,0,18.62,0c0-12.63,0-24.04,0-36.68c-6.7,0-12.66,0-18.62,0c0-7.86,0-15.72,0-23.58c5.92-0.68,11.84-1.37,18.57-2.14
		c0-11.83,0-23.21,0-35.05c-6.72-0.76-12.65-1.44-18.57-2.11c0-24.45,0-48.91,0-73.36c55.54,0,111.07,0,167.89,0
		c0-66.27,0-130.93,0-196.11c8.45-0.42,15.66-0.77,23.36-1.16c0-17,0-33,0-49c8.73,0,17.47,0,26.2,0c0,16.35,0,32.69,0,50.32
		c9.01,0,16.17,0,24.32,0c0,33.02,0,64.69,0,96.65c90.95,0,180.83,0,271.81,0c0-32.93,0-64.6,0-96.79
		c8.27-0.44,15.46-0.81,23.48-1.23c0-16.9,0-32.93,0-48.96c8.73,0,17.46,0,26.2,0c0,16.33,0,32.66,0,50.36c8.83,0,15.96,0,24.04,0
		c0,65.86,0,130.28,0,196.35c56.07,0,111.18,0,166.47,0c0,25.47,0,49.29,0,73.25c-6.27,0.58-11.82,1.1-17.53,1.63
		c0,12.25,0,23.69,0,35.4c6.55,0.64,12,1.17,17.61,1.72c0,8.18,0,15.4,0,23.2c-6.44,0.47-12.28,0.9-17.46,1.27
		c0,12.79,0,24.28,0,35.66c6.76,0.47,12.21,0.84,17.08,1.19c0,25.32,0,49.04,0,72.63c-6.5,0.67-11.95,1.24-17.62,1.82
		c-0.32,4.18-0.74,7.18-0.74,10.19c-0.04,83.77-0.04,167.54,0.02,251.31C898.21,916.49,898.89,919.49,899.25,922.5z M453.87,896.99
		c0-37.77-0.4-73.97,0.09-110.16c0.8-58.97,26.14-103.93,78.32-132.5c4.25-2.33,12.02-2.28,16.28,0.06
		c51.62,28.38,76.99,72.91,78.11,131.33c0.62,32.29,0.12,64.6,0.13,96.9c0,4.62,0,9.24,0,14.3c17.23,0,32.72,0,48.67,0
		c0-98.44,0-195.98,0-294.23c-90.39,0-180.02,0-270.35,0c0,98.41,0,195.94,0,294.29C421.28,896.99,436.77,896.99,453.87,896.99z
		 M601.07,897.31c0-42.77,1.44-84.19-0.42-125.46c-1.69-37.49-20.69-66.69-51.17-88.65c-6.86-4.94-11.76-4.77-18.48,0.1
		c-30.78,22.33-49.5,51.94-51.21,90c-1.76,39.21-0.93,78.54-1.12,117.81c-0.01,1.99,1.07,3.98,1.7,6.2
		C520.56,897.31,560.19,897.31,601.07,897.31z M231.72,897.14c0-20.28-0.05-39,0.02-57.72c0.05-13.89,4.57-25.76,16.51-33.77
		c24.51-16.44,55.8-0.18,57.46,30.48c1.08,19.94,0.2,39.98,0.2,60.51c9.03,0,16.52,0,23.73,0c0-65.94,0-130.71,0-195.75
		c-40.94,0-80.88,0-121.17,0c0,65.79,0,130.86,0,196.25C216.32,897.14,223.15,897.14,231.72,897.14z M750.92,700.84
		c0,66.13,0,130.89,0,196.04c8.07,0,15.24,0,23.67,0c0-9.56-0.12-18.22,0.03-26.89c0.24-13.51-0.32-27.13,1.26-40.48
		c1.86-15.72,15.11-27.64,30.55-29.86c15.61-2.24,31.65,5.38,37.83,19.81c3.14,7.35,4.21,15.96,4.51,24.07
		c0.65,17.68,0.2,35.39,0.2,53.36c9.08,0,16.25,0,23.51,0c0-65.74,0-130.56,0-196.05C831.76,700.84,791.83,700.84,750.92,700.84z
		 M675.52,380.57c-90.34,0-179.97,0-270.16,0c0,40.9,0,81.15,0,121.52c90.54,0,180.15,0,270.16,0
		C675.52,461.17,675.52,421.24,675.52,380.57z M355.99,281.62c0,205.47,0,410.21,0,614.93c8.53,0,16.03,0,23.2,0
		c0-205.71,0-410.16,0-614.93C371,281.62,363.78,281.62,355.99,281.62z M701.5,281.66c0,205.51,0,410.23,0,614.86
		c8.54,0,16.05,0,23.17,0c0-205.73,0-410.17,0-614.86C716.41,281.66,709.19,281.66,701.5,281.66z M330.09,576.24
		c0-32.95,0-64.59,0-97.14c-40.81,0-81.07,0-121.88,0c0,32.56,0,64.53,0,97.14C248.87,576.24,288.76,576.24,330.09,576.24z
		 M872.15,576.27c0-33.29,0-65.19,0-97.25c-40.97,0-80.87,0-121.26,0c0,32.76,0,64.7,0,97.25
		C791.66,576.27,831.55,576.27,872.15,576.27z M404.75,353.38c91.1,0,180.99,0,270.7,0c0-8.09,0-14.89,0-21.85
		c-90.68,0-180.57,0-270.7,0C404.75,339.24,404.75,345.73,404.75,353.38z M183.38,429.92c0,8.02,0,15.2,0,22.58
		c49.39,0,97.92,0,146.24,0c0-8.22,0-15.38,0-22.58C280.4,429.92,232.19,429.92,183.38,429.92z M750.68,452.89
		c49.18,0,97.4,0,146.34,0c0-7.88,0-15.35,0-22.93c-49.31,0-97.5,0-146.34,0C750.68,437.67,750.68,444.5,750.68,452.89z
		 M183.31,625.52c49.87,0,98.1,0,146.42,0c0-8.14,0-15.31,0-22.93c-49.15,0-97.39,0-146.42,0
		C183.31,610.55,183.31,617.75,183.31,625.52z M897.25,603.06c-49.43,0-97.96,0-146.14,0c0,8.42,0,15.55,0,22.52
		c49.3,0,97.51,0,146.14,0C897.25,617.49,897.25,610.3,897.25,603.06z M281.09,896.96c0-20.83,0.74-40.35-0.54-59.73
		c-0.3-4.59-7.37-8.73-11.33-13.09c-4.12,4.13-11.52,8.06-11.81,12.44c-1.29,19.78-0.56,39.69-0.56,60.38
		C265.08,896.96,272.22,896.96,281.09,896.96z M823.83,896.88c0-20.89,0.75-40.54-0.56-60.05c-0.3-4.48-7.65-8.48-11.75-12.71
		c-3.98,4.37-11.1,8.53-11.41,13.14c-1.29,19.49-0.54,39.12-0.54,59.61C807.76,896.88,814.95,896.88,823.83,896.88z M675.73,528.19
		c-8.58,0-15.76,0-23.69,0c0,16.27,0,31.74,0,47.64c8.26,0,15.75,0,23.69,0C675.73,559.67,675.73,544.55,675.73,528.19z
		 M428.27,576.25c0-16.4,0-32.19,0-47.94c-8.34,0-15.53,0-23.04,0c0,16.4,0,31.86,0,47.94
		C413.27,576.25,420.49,576.25,428.27,576.25z M576.4,528.16c-7.91,0-15.01,0-22.65,0c0,16.46,0,32.13,0,47.77
		c8.21,0,15.31,0,22.65,0C576.4,559.58,576.4,544.22,576.4,528.16z M603.07,528c0,16.87,0,32.25,0,48.12c8.08,0,15.21,0,22.63,0
		c0-16.48,0-32.19,0-48.12C617.82,528,611.02,528,603.07,528z M477.24,576.33c0-16.79,0-32.46,0-47.87c-8.41,0-15.5,0-22.48,0
		c0,16.51,0,31.93,0,47.87C462.45,576.33,469.27,576.33,477.24,576.33z M504.39,528.12c0,16.49,0,32.17,0,47.79
		c8.12,0,15.21,0,22.53,0c0-16.34,0-31.7,0-47.79C519.39,528.12,512.62,528.12,504.39,528.12z M700.93,255.26
		c8.82,0,16.32,0,23.87,0c0-8.27,0-15.45,0-22.84c-8.45,0-15.95,0-23.87,0C700.93,240.35,700.93,247.24,700.93,255.26z
		 M379.26,255.66c0-8.76,0-15.95,0-23.17c-8.42,0-15.91,0-23.31,0c0,8.29,0,15.43,0,23.17
		C364.11,255.66,371.29,255.66,379.26,255.66z M230.99,675.41c0-8.51,0-15.72,0-23.7c-7.86,0-15.01,0-22.65,0c0,8.2,0,15.71,0,23.7
		C216.06,675.41,222.86,675.41,230.99,675.41z M329.87,652.5c-8.56,0-15.86,0-22.99,0c0,8.36,0,15.16,0,22.67
		c7.94,0,15.08,0,22.99,0C329.87,667.34,329.87,660.13,329.87,652.5z M822.87,675.24c0-8.38,0-15.85,0-23.25
		c-8.26,0-15.37,0-22.54,0c0,8.26,0,15.43,0,23.25C807.98,675.24,814.77,675.24,822.87,675.24z M849.66,674.98
		c8.48,0,15.62,0,22.87,0c0-8.17,0-15.39,0-23.27c-7.85,0-15.01,0-22.87,0C849.66,659.68,849.66,666.9,849.66,674.98z
		 M257.89,651.59c0,8.64,0,16.13,0,23.22c8.36,0,15.46,0,22.37,0c0-8.29,0-15.45,0-23.22C272.53,651.59,265.73,651.59,257.89,651.59
		z M773.81,675.38c0-8.44,0-15.64,0-23.22c-8.23,0-15.65,0-22.84,0c0,8.41,0,15.57,0,23.22
		C758.71,675.38,765.51,675.38,773.81,675.38z"/>
	<path style="fill-rule:evenodd;clip-rule:evenodd;" d="M430.15,649.82c0-7.55,0-14.64,0-22.54c7.63,0,14.73,0,22.78,0
		c0,7.26,0,14.33,0,22.54C445.97,649.82,438.91,649.82,430.15,649.82z"/>
	<path style="fill-rule:evenodd;clip-rule:evenodd;" d="M650.53,627.5c0,7.59,0,14.68,0,22.6c-7.73,0-14.83,0-22.84,0
		c0-7.33,0-14.44,0-22.6C634.65,627.5,641.72,627.5,650.53,627.5z"/>
	<path style="fill-rule:evenodd;clip-rule:evenodd;" d="M430.11,477.34c0-24.3,0-47.71,0-72.18c73.24,0,146.24,0,220.2,0
		c0,23.92,0,47.62,0,72.18C577.12,477.34,504.42,477.34,430.11,477.34z M454.42,452.73c58.06,0,114.6,0,171.58,0
		c0-7.97,0-15.13,0-22.54c-57.64,0-114.47,0-171.58,0C454.42,438.14,454.42,444.97,454.42,452.73z"/>
	<path style="fill-rule:evenodd;clip-rule:evenodd;" d="M305.46,516.28c0,8.03,0,14.87,0,22.72c-7.79,0-15.27,0-23.52,0
		c0-7.44,0-14.6,0-22.72C289.7,516.28,296.86,516.28,305.46,516.28z"/>
	<path style="fill-rule:evenodd;clip-rule:evenodd;" d="M255.68,539.41c-7.73,0-14.91,0-23.04,0c0-7.63,0-15.07,0-23.3
		c7.76,0,14.89,0,23.04,0C255.68,523.95,255.68,531.37,255.68,539.41z"/>
	<path style="fill-rule:evenodd;clip-rule:evenodd;" d="M847.95,539.33c-8.19,0-15.37,0-22.42,0c-4.23-24.42-1.19-27.39,22.42-22.17
		C847.95,524.49,847.95,531.92,847.95,539.33z"/>
	<path style="fill-rule:evenodd;clip-rule:evenodd;" d="M798.73,539.29c-7.87,0-15.12,0-23.25,0c0-7.26,0-14.45,0-22.82
		c7.64,0,15.07,0,23.25,0C798.73,524.25,798.73,531.41,798.73,539.29z"/>
</g>
</svg>
